<svg width="258" height="46" viewBox="0 0 258 46" fill="none" xmlns="http://www.w3.org/2000/svg">
<g transform="translate(0 3.07361)">
<path d="M172.577 32.1002C170.534 32.1002 168.776 31.6639 167.3 30.7912C165.834 29.9096 164.7 28.6726 163.9 27.0803C163.108 25.479 162.712 23.6033 162.712 21.4532C162.712 19.3301 163.108 17.4588 163.9 15.8395C164.7 14.2202 165.816 12.9562 167.246 12.0476C168.686 11.139 170.368 10.6847 172.293 10.6847C173.463 10.6847 174.596 10.8781 175.694 11.2649C176.791 11.6518 177.776 12.259 178.649 13.0867C179.522 13.9143 180.21 14.9894 180.714 16.3118C181.217 17.6253 181.469 19.2221 181.469 21.1023V22.5327H164.993V19.51H177.516C177.516 18.4484 177.3 17.5083 176.868 16.6897C176.436 15.862 175.829 15.2098 175.046 14.733C174.272 14.2562 173.364 14.0178 172.32 14.0178C171.187 14.0178 170.197 14.2967 169.351 14.8544C168.515 15.4032 167.867 16.1229 167.408 17.0135C166.958 17.8952 166.734 18.8533 166.734 19.8878V22.2493C166.734 23.6347 166.976 24.8132 167.462 25.7848C167.957 26.7564 168.645 27.4986 169.527 28.0114C170.409 28.5152 171.439 28.7671 172.617 28.7671C173.382 28.7671 174.079 28.6591 174.709 28.4432C175.338 28.2183 175.883 27.8854 176.342 27.4446C176.8 27.0038 177.151 26.4595 177.394 25.8118L181.213 26.5C180.907 27.6246 180.358 28.6096 179.567 29.4553C178.784 30.2919 177.799 30.9442 176.611 31.412C175.433 31.8708 174.088 32.1002 172.577 32.1002Z" fill="#102349"/>
<path d="M150.562 31.6819V10.9547H154.461V14.2473H154.677C155.055 13.1317 155.721 12.2546 156.675 11.6159C157.637 10.9682 158.726 10.6443 159.94 10.6443C160.192 10.6443 160.489 10.6533 160.831 10.6713C161.182 10.6893 161.456 10.7118 161.654 10.7387V14.5981C161.492 14.5531 161.204 14.5037 160.79 14.4497C160.376 14.3867 159.963 14.3552 159.549 14.3552C158.595 14.3552 157.745 14.5576 156.998 14.9625C156.261 15.3583 155.676 15.9116 155.244 16.6223C154.812 17.324 154.596 18.1246 154.596 19.0243V31.6819H150.562Z" fill="#102349"/>
<path d="M137.156 32.1002C135.213 32.1002 133.517 31.6549 132.069 30.7642C130.62 29.8736 129.496 28.6276 128.695 27.0263C127.894 25.425 127.494 23.5538 127.494 21.4127C127.494 19.2626 127.894 17.3824 128.695 15.772C129.496 14.1617 130.62 12.9113 132.069 12.0206C133.517 11.13 135.213 10.6847 137.156 10.6847C139.099 10.6847 140.795 11.13 142.243 12.0206C143.692 12.9113 144.816 14.1617 145.617 15.772C146.417 17.3824 146.818 19.2626 146.818 21.4127C146.818 23.5538 146.417 25.425 145.617 27.0263C144.816 28.6276 143.692 29.8736 142.243 30.7642C140.795 31.6549 139.099 32.1002 137.156 32.1002ZM137.169 28.7131C138.429 28.7131 139.472 28.3802 140.3 27.7145C141.128 27.0488 141.739 26.1627 142.135 25.0561C142.54 23.9496 142.743 22.7306 142.743 21.3992C142.743 20.0767 142.54 18.8622 142.135 17.7557C141.739 16.6402 141.128 15.7451 140.3 15.0703C139.472 14.3956 138.429 14.0583 137.169 14.0583C135.901 14.0583 134.848 14.3956 134.012 15.0703C133.184 15.7451 132.568 16.6402 132.163 17.7557C131.767 18.8622 131.569 20.0767 131.569 21.3992C131.569 22.7306 131.767 23.9496 132.163 25.0561C132.568 26.1627 133.184 27.0488 134.012 27.7145C134.848 28.3802 135.901 28.7131 137.169 28.7131Z" fill="#102349"/>
<path d="M124.519 13.0328H120.309C120.147 12.1332 119.846 11.3415 119.405 10.6578C118.964 9.97407 118.424 9.39381 117.786 8.91701C117.147 8.44021 116.432 8.08037 115.64 7.83747C114.857 7.59457 114.025 7.47312 113.144 7.47312C111.551 7.47312 110.125 7.87345 108.866 8.67412C107.616 9.47478 106.626 10.6488 105.897 12.1961C105.178 13.7435 104.818 15.6327 104.818 17.8637C104.818 20.1128 105.178 22.011 105.897 23.5583C106.626 25.1057 107.62 26.2752 108.879 27.0669C110.139 27.8585 111.556 28.2544 113.13 28.2544C114.003 28.2544 114.83 28.1374 115.613 27.9035C116.405 27.6606 117.12 27.3053 117.759 26.8375C118.397 26.3697 118.937 25.7984 119.378 25.1237C119.828 24.44 120.138 23.6573 120.309 22.7757L124.519 22.7892C124.294 24.1476 123.858 25.3981 123.21 26.5406C122.572 27.6741 121.749 28.6547 120.741 29.4824C119.742 30.301 118.6 30.9352 117.313 31.3851C116.027 31.8349 114.624 32.0598 113.103 32.0598C110.71 32.0598 108.578 31.493 106.707 30.3595C104.836 29.217 103.36 27.5842 102.281 25.4611C101.21 23.3379 100.675 20.8055 100.675 17.8637C100.675 14.913 101.215 12.3806 102.294 10.2664C103.374 8.14334 104.849 6.51503 106.72 5.3815C108.592 4.23898 110.719 3.66772 113.103 3.66772C114.57 3.66772 115.937 3.87914 117.205 4.30196C118.483 4.71578 119.63 5.32753 120.647 6.13719C121.663 6.93785 122.504 7.91844 123.17 9.07895C123.836 10.2305 124.285 11.5484 124.519 13.0328Z" fill="#102349"/>
<path d="M91.9446 3.94495H90.9446V32.055H91.9446V3.94495Z" fill="#102349"/>
<path d="M31.1494 4H37.6837V27.1132C37.6837 30.3711 35.7493 32 31.8805 32H25.7575C21.9192 32 20 30.3711 20 27.1132V4H26.5343V26.2767C26.5343 27.0105 26.9303 27.3774 27.7223 27.3774H29.9156C30.7381 27.3774 31.1494 27.0105 31.1494 26.2767V4Z" fill="#102349"/>
<path d="M42.2809 4H54.3899C58.2587 4 60.1931 5.61426 60.1931 8.84277V27.1132C60.1931 30.3711 58.2587 32 54.3899 32H42.2809V4ZM53.6588 26.5849V9.4151C53.6588 8.68134 53.2475 8.31446 52.425 8.31446H48.8152V27.6855H52.425C53.2475 27.6855 53.6588 27.3187 53.6588 26.5849Z" fill="#102349"/>
<path d="M74.4657 26.2767V21.2138C74.4657 20.8323 74.3743 20.5681 74.1916 20.4214C74.0088 20.2453 73.6889 20.1572 73.232 20.1572H69.2109C65.6163 20.1572 63.819 18.5136 63.819 15.2264V8.84277C63.819 5.61426 65.7381 4 69.5764 4H75.1511C78.9895 4 80.9086 5.61426 80.9086 8.84277V12.4969H74.3743V9.72327C74.3743 8.98952 73.9631 8.62264 73.1406 8.62264H71.587C70.7645 8.62264 70.3532 8.98952 70.3532 9.72327V14.6541C70.3532 15.0356 70.4446 15.3145 70.6274 15.4906C70.8102 15.6373 71.13 15.7107 71.587 15.7107H75.5167C77.4663 15.7107 78.8676 16.1216 79.7206 16.9434C80.5735 17.7358 81 18.9245 81 20.5094V27.1132C81 30.3711 79.0808 32 75.2425 32H69.7135C65.8448 32 63.9104 30.3711 63.9104 27.1132V23.5031H70.4446V26.2767C70.4446 27.0105 70.8559 27.3774 71.6784 27.3774H73.232C74.0545 27.3774 74.4657 27.0105 74.4657 26.2767Z" fill="#102349"/>
<g clip-path="url(#clip0_911_88)">
<path d="M20.4551 26.4731C19.5376 27.6481 17.6683 27.4577 16.9141 27.3233C16.7153 27.2881 16.5293 27.4389 16.5478 27.6229C16.5905 28.0487 16.8782 28.4656 16.8782 28.4656C16.708 28.5294 16.5514 28.5723 16.4087 28.6012C16.4518 28.7679 16.4923 28.9339 16.531 29.0991C16.655 29.0939 16.7643 29.0841 16.8479 29.0762C17.1606 29.0469 17.466 28.9712 17.7604 28.8504C17.4958 28.6129 17.3571 28.3612 17.3479 28.3446L17.0908 27.8704C17.0297 27.7577 17.14 27.6294 17.2619 27.671L17.7755 27.8464C18.0777 27.95 18.8584 28.151 19.5759 27.7889C20.1405 27.5037 20.4215 27.0021 20.6928 26.5169C20.7249 26.4594 20.7556 26.4012 20.785 26.3427C20.6772 26.3948 20.5671 26.4375 20.4553 26.4729L20.4551 26.4731ZM9.57553 30.8896C9.51837 31.0791 9.42191 31.2971 9.26115 31.5271L9.2023 31.6302C9.19705 31.6396 9.19327 31.6498 9.18822 31.6591C9.69174 32.2575 10.3302 32.4096 10.7692 32.4331L10.8225 31.9535C10.8415 31.7852 10.8204 31.6144 10.762 31.4556C10.185 31.4164 9.80543 31.1416 9.57574 30.8894L9.57553 30.8896ZM13.0064 27.6048C12.3058 27.8631 11.6299 27.9941 10.9936 27.9941C10.3524 27.9941 9.67114 27.8608 8.96505 27.5985C8.87468 27.565 8.7839 27.53 8.69269 27.4921C8.40206 27.3716 8.1068 27.2285 7.80902 27.066C7.56693 27.386 7.37107 27.7437 7.23321 28.1319L6.55717 30.0352C6.37476 30.5489 6.26947 31.0854 6.24468 31.6296L6.17932 33.0577H6.87428L6.95204 31.4358C6.9783 30.8908 7.09326 30.3535 7.29248 29.845L7.91893 28.2469C7.98407 28.0802 8.17804 28.0029 8.34154 28.0781C8.34658 28.0804 8.35141 28.0825 8.35646 28.0848C8.37264 28.0921 8.38798 28.1004 8.40311 28.1091C8.47078 28.1487 8.54139 28.1827 8.61368 28.2116L8.61305 28.2127C8.61305 28.2127 9.47382 28.7162 10.9537 28.6712C12.2631 28.6316 13.8512 27.3494 14.1998 27.0546C13.8949 27.2221 13.5925 27.3687 13.2949 27.4921C13.1985 27.5321 13.1024 27.5694 13.0068 27.6046L13.0064 27.6048ZM14.8364 31.8469L14.7258 32.7506H15.2487C15.2563 31.2916 14.7866 30.6477 14.7622 30.615C14.841 30.8016 14.9194 31.1679 14.8364 31.8469ZM11.6722 30.696C11.5824 30.5966 11.4818 30.5058 11.3696 30.4271C11.101 30.2383 10.8421 30.1258 10.721 30.0785L11.0348 30.5412L11.2239 30.8204C11.2857 30.9119 11.3393 31.0081 11.3836 31.1083C11.5118 31.3977 11.5612 31.7164 11.5261 32.0306L11.4503 32.7114L11.4112 33.0625L11.3721 33.4146H12.0706L12.1393 32.0064C12.1627 31.5289 11.9979 31.0662 11.6886 30.7139C11.6833 30.7079 11.6776 30.7019 11.6722 30.696ZM13.5795 19.0373C13.1976 19.5246 12.8803 20.1156 12.6674 20.7823C12.5136 21.2637 12.427 21.7441 12.4018 22.206C12.3938 22.3537 12.3926 22.4994 12.397 22.6429C12.5498 22.7104 12.6874 22.7858 12.8114 22.8644C12.7868 22.6502 12.775 22.4304 12.7761 22.206C12.7799 21.4762 12.9186 20.7019 13.1884 19.9421C13.3002 19.6273 13.4317 19.3248 13.5795 19.0373ZM8.47897 24.7062C8.47897 24.7062 8.47771 24.7066 8.47729 24.7066C8.19401 25.0816 7.83466 25.3527 7.41331 25.4998C7.23111 25.5633 7.04324 25.601 6.8518 25.6148C6.95456 25.691 7.0611 25.7679 7.17185 25.8448C7.33787 25.96 7.49989 26.066 7.65792 26.1644C7.7651 26.231 7.87038 26.2935 7.97378 26.3529C8.08368 26.4158 8.19149 26.4748 8.2972 26.53C8.34238 26.5535 8.38714 26.5764 8.43148 26.5987C8.41131 26.5521 8.39323 26.5062 8.37642 26.461C8.32851 26.3323 8.29362 26.2094 8.26904 26.0925C8.23835 25.9464 8.22364 25.81 8.22112 25.6844C8.20851 25.0671 8.47918 24.7066 8.47918 24.7066H8.47939L8.47897 24.7062ZM8.77339 19.9421C9.04322 20.7019 9.18192 21.4762 9.1857 22.206C9.18675 22.4312 9.17498 22.6521 9.14998 22.8671C9.28174 22.7831 9.42884 22.7027 9.59339 22.6316C9.62533 22.4939 9.65034 22.3521 9.66694 22.206C9.76592 21.3379 9.59381 20.3344 9.12182 19.3696C8.50335 18.1058 7.51334 17.2021 6.50232 16.8494C6.61433 16.9221 6.72571 17.0023 6.83624 17.09C7.6657 17.7485 8.35373 18.7616 8.77318 19.9421H8.77339ZM15.4309 16.3802C15.3605 16.3669 15.2932 16.3523 15.2279 16.3369C15.1178 16.4141 15.0093 16.4827 14.9022 16.5446C14.2721 16.9085 13.6986 17.0177 13.2395 17.0177H13.2195C13.2909 17.091 13.3511 17.1491 13.3977 17.1927C13.4597 17.2506 13.4969 17.2823 13.4982 17.2833L13.76 17.5029C14.1967 17.426 14.6966 17.2421 15.2279 16.8683V16.8687L15.4973 16.6789C15.6181 16.5941 15.5763 16.4077 15.4309 16.3802ZM8.07444 15.9594C7.98323 15.7204 7.92923 15.4975 7.89791 15.3135C7.89791 15.3131 7.89749 15.3125 7.89749 15.3125C7.89749 15.3125 7.80776 16.5983 8.75994 17.5687C8.95895 17.7581 9.18759 17.9371 9.44944 18.0939C9.52908 18.1419 9.61041 18.1864 9.693 18.2281C10.272 18.5206 10.9234 18.6671 11.6425 18.6671C12.1786 18.6671 12.7528 18.5854 13.3618 18.4223L13.7049 18.33C13.8354 18.2948 13.8726 18.1291 13.7692 18.0427L13.533 17.8448L13.362 17.8908C13.2817 17.9123 13.2021 17.9323 13.123 17.9508C12.6023 18.0737 12.1082 18.1356 11.6428 18.1356C10.9238 18.1356 10.2724 17.9891 9.69342 17.6966C9.61083 17.655 9.52951 17.6104 9.44986 17.5625C9.18801 17.4056 8.95937 17.2266 8.76036 17.0373C8.69627 16.9719 8.63722 16.9052 8.58195 16.8377C8.37285 16.5833 8.22385 16.3181 8.11752 16.0662C8.10239 16.0304 8.0881 15.9948 8.07465 15.9598L8.07444 15.9594ZM7.87627 11.5841C7.87564 11.5733 7.87627 11.5623 7.87564 11.5512C7.87438 11.5227 7.87417 11.4939 7.87417 11.4652C7.87417 11.4439 7.87417 11.4229 7.8748 11.4016C7.87627 11.3625 7.879 11.3231 7.88278 11.2837C7.88362 11.2748 7.88362 11.266 7.88446 11.2573L8.1171 9.14165C8.14505 8.88665 8.17594 8.63165 8.20809 8.37665C8.21061 8.35602 8.21293 8.33561 8.21545 8.31498C8.23415 8.16831 8.25538 8.02165 8.27534 7.87498C8.28606 7.79644 8.29635 7.7179 8.30749 7.63936C8.31548 7.58352 8.32262 7.52748 8.33061 7.47165C8.33166 7.46415 8.33271 7.45644 8.33376 7.44894C8.33376 7.44894 8.33376 7.44894 8.33376 7.44873C8.3283 7.44998 8.32262 7.45144 8.31716 7.45269C8.2186 7.47436 8.11857 7.49748 8.01707 7.52269C8.00635 7.5254 7.99542 7.52811 7.98471 7.53081C7.88173 7.55665 7.77729 7.58394 7.67179 7.61352C7.6636 7.61581 7.6554 7.61831 7.64721 7.62061C7.53793 7.65144 7.4276 7.68415 7.31601 7.71956C7.31433 7.72019 7.31244 7.72081 7.31055 7.72123C7.19896 7.75665 7.08632 7.79436 6.97305 7.83436C6.96822 7.83602 6.96359 7.83748 6.95897 7.83915C6.96191 7.89144 6.9657 7.95186 6.97116 8.01977C7.02286 8.67998 7.20905 10.0546 7.87627 11.5841Z" fill="#1FDFFF"/>
<path d="M9.01275 34.0221H9.62618L9.76782 33.6163C9.78547 33.5657 9.85755 33.5657 9.8752 33.6163L10.0168 34.0221H10.5918L10.6595 33.4148H10.6597V33.4138H9.02851L9.01275 34.0221ZM16.4381 33.4525H14.6401L14.5705 34.0219H15.2189L15.3605 33.6161C15.3781 33.5655 15.4502 33.5655 15.4677 33.6161L15.6093 34.0219H16.4682C16.4623 33.8432 16.4543 33.6986 16.4381 33.4525ZM7.73799 33.7596H6.14675L6.11019 34.5592L6.10388 34.698H6.889L7.12793 34.0134C7.14559 33.9628 7.21767 33.9628 7.23532 34.0134L7.47426 34.698H8.27829V33.7596H7.7382H7.73799ZM13.5978 34.1165H11.2939L11.2653 34.3732L11.2262 34.724L11.1624 35.298H12.1742L12.434 34.5536C12.4516 34.503 12.5237 34.503 12.5414 34.5536L12.8011 35.298H13.7003L13.7413 34.9625L13.7705 34.7242L13.8449 34.1165H13.5978ZM10.981 3.66212L11.2038 3.61567C11.3744 3.57983 11.4822 3.41296 11.444 3.24421C11.3641 2.89212 11.28 2.54108 11.1924 2.19067L11.0737 1.71775C10.9984 1.38567 10.9173 1.11358 10.8347 0.889624C10.8152 0.836916 10.7957 0.786916 10.7761 0.739624C10.7187 0.782541 10.6294 0.871707 10.526 1.05317C10.3955 1.28212 10.2425 1.65817 10.1028 2.27483L10.1009 2.28254L9.98217 2.75546C9.97565 2.78129 9.96977 2.80712 9.96346 2.83296C10.2404 3.15546 10.5798 3.43233 10.9808 3.66212H10.981ZM9.47025 6.55275C9.47928 6.56108 9.48748 6.56962 9.49673 6.57796C9.6121 6.68087 9.73461 6.77692 9.86322 6.86692C10.0305 6.98421 10.2083 7.09087 10.3972 7.18608C10.9278 7.45296 11.5444 7.63254 12.2436 7.72483C12.2217 7.55712 12.1988 7.38962 12.1751 7.22233C12.1583 7.10358 12.1406 6.98525 12.1232 6.86671C12.1055 6.74796 12.0881 6.629 12.0696 6.51025C12.0309 6.26275 11.9908 6.01546 11.9483 5.76858C11.9151 5.57546 11.7905 5.41067 11.6142 5.32233C10.9625 4.99692 10.587 4.54087 10.587 4.54087H10.5876C10.2636 4.36317 9.96914 4.16004 9.70519 3.93171C9.52804 4.72129 9.37043 5.51671 9.23299 6.31546C9.30696 6.39608 9.38577 6.47546 9.47067 6.55275H9.47025ZM9.85356 12.8252C9.88928 12.8261 9.92459 12.8271 9.96115 12.8271C10.591 12.8271 11.0823 12.7107 11.4627 12.545C11.5579 12.5036 11.5442 12.365 11.4431 12.3419C10.3983 12.1019 9.78946 11.6242 9.53918 11.3869C9.21744 11.2321 8.91798 11.0546 8.64142 10.8559L8.58889 11.333C8.53992 11.778 8.73263 12.2132 9.09219 12.4686C9.31285 12.6252 9.56776 12.7438 9.85356 12.825V12.8252ZM12.5916 11.1813C12.6063 11.0611 12.6076 10.9382 12.5941 10.8146L12.4657 9.64775C12.4367 9.38421 12.2404 9.16796 11.9782 9.11442C10.5006 8.81317 9.84473 7.98087 9.84473 7.98087L9.8462 7.97942C9.56082 7.82712 9.29435 7.65379 9.04911 7.45692C8.96253 8.04317 8.88582 8.63046 8.82131 9.21712L8.76625 9.71796C9.22206 10.1432 9.78169 10.4834 10.438 10.7294C11.0688 10.9659 11.7901 11.1163 12.5914 11.1809L12.5916 11.1813Z" fill="#EB2126"/>
<path d="M19.2331 26.5198C19.083 26.495 18.9277 26.4698 18.7348 26.4527C18.6114 26.4419 17.5042 26.3577 16.5583 26.7448C16.3154 26.8442 16.097 26.9709 15.9005 27.1132C16.0088 27.3182 16.0998 27.5338 16.1704 27.7617C16.2569 28.0413 16.3358 28.3217 16.4083 28.6013C16.5509 28.5725 16.7075 28.5296 16.8777 28.4657C16.8777 28.4657 16.59 28.0486 16.5474 27.623C16.5289 27.439 16.7149 27.2882 16.9137 27.3234C17.6681 27.4577 19.5374 27.6484 20.4547 26.4732C20.3826 26.4961 20.3101 26.5165 20.2363 26.5323C19.8356 26.6186 19.5563 26.5729 19.2329 26.5198H19.2331ZM9.18798 31.6594C9.11022 31.8073 9.06567 31.9719 9.06147 32.1386L9.04655 32.7117H10.7378L10.7689 32.4334C10.3299 32.4098 9.6915 32.2577 9.18798 31.6594ZM15.9186 29.609C15.9047 29.5442 15.8904 29.4792 15.8757 29.4142C15.848 29.2898 15.8186 29.165 15.7883 29.04C15.7555 28.9052 15.7213 28.7705 15.6853 28.6355C15.6259 28.4125 15.5622 28.1894 15.4935 27.9679C15.4544 27.8421 15.4061 27.7215 15.3525 27.6038C15.3008 27.4902 15.2434 27.3798 15.1783 27.274C15.1161 27.1727 15.0467 27.0759 14.9723 26.9817C14.9036 26.8948 14.8315 26.8102 14.7527 26.7296C14.5676 26.8459 14.3831 26.954 14.1994 27.0548C13.851 27.3496 12.2629 28.6319 10.9532 28.6715C9.47357 28.7165 8.61259 28.2129 8.61259 28.2129C8.61259 28.2129 8.61322 28.2121 8.61322 28.2119C8.54093 28.183 8.47032 28.149 8.40266 28.1094C8.38753 28.1007 8.37218 28.0923 8.356 28.085C8.35096 28.0827 8.34613 28.0807 8.34108 28.0784C8.17759 28.0032 7.98362 28.0805 7.91847 28.2471L7.29202 29.8452C7.0928 30.3538 6.97764 30.8911 6.95158 31.4361L6.87383 33.058H8.32952L8.33856 32.7119L8.3539 32.1209C8.36147 31.8302 8.44111 31.5423 8.58422 31.2886L8.75781 30.9805C8.78723 30.9288 9.06967 30.4482 9.528 30.2538C9.54397 30.2469 9.56036 30.2457 9.57612 30.2482C9.61584 30.2544 9.64947 30.2873 9.65136 30.3313C9.65661 30.4484 9.64863 30.6459 9.57528 30.8898C9.80498 31.1421 10.1845 31.4169 10.7616 31.4561C10.7536 31.4342 10.7448 31.4123 10.7353 31.3911L10.6557 31.2115C10.5182 30.8934 10.4407 30.6177 10.3995 30.3873C10.3581 30.1557 10.3535 29.9698 10.3617 29.8334C10.3635 29.8025 10.3795 29.7792 10.4014 29.7652C10.4394 29.7409 10.4949 29.745 10.5254 29.7896L10.7212 30.0786C10.8423 30.1259 11.1012 30.2384 11.3697 30.4271C11.482 30.5059 11.5828 30.5967 11.6724 30.6961C11.6778 30.7021 11.6833 30.708 11.6887 30.714C11.9981 31.0663 12.1626 31.5292 12.1395 32.0065L12.0708 33.4146H13.9308L13.9691 33.1015L14.0119 32.7505L14.0182 32.699L14.0914 32.1007C14.1326 31.7636 14.2076 31.4311 14.3196 31.1102C14.4045 30.8671 14.5161 30.6111 14.651 30.4409H14.6516C14.6516 30.4409 14.7071 30.4838 14.7626 30.6148C14.787 30.6473 15.2566 31.2915 15.2491 32.7505H16.3837C16.3114 31.9355 16.1828 30.8877 15.9548 29.78C15.943 29.7232 15.9312 29.6661 15.919 29.609H15.9186ZM8.33373 7.4492C8.33268 7.4567 8.33163 7.4644 8.33058 7.4719C8.33163 7.4642 8.33289 7.4567 8.33415 7.44899C8.33415 7.44899 8.33394 7.44899 8.33373 7.44899V7.4492ZM8.11749 9.1417C8.14543 8.8867 8.17612 8.6317 8.20827 8.3767C8.17612 8.6317 8.14522 8.8867 8.11727 9.1417L7.88464 11.2573C7.88359 11.2661 7.8838 11.275 7.88296 11.2838C7.8838 11.2748 7.88401 11.2661 7.88506 11.2573L8.11769 9.1417H8.11749ZM15.2276 16.3369H15.2279C15.2279 16.3369 15.2279 16.3369 15.2274 16.3369H15.2276ZM8.22067 25.6842C8.22319 25.8098 8.2379 25.9463 8.26858 26.0923C8.29317 26.2092 8.32805 26.3321 8.37597 26.4609C8.39278 26.5061 8.41106 26.5519 8.43103 26.5986C9.5404 27.1542 10.4075 27.2921 10.9932 27.2921C11.6759 27.2921 12.7414 27.1048 14.1273 26.2861C14.1439 26.2763 14.1603 26.2667 14.1771 26.2567C14.2101 26.2369 14.2435 26.2165 14.2769 26.1959C14.3515 26.1502 14.4266 26.1032 14.5031 26.0538C14.6046 25.9879 14.7077 25.919 14.8124 25.8465C14.8132 25.8459 14.8143 25.8452 14.8151 25.8446C14.8708 25.8059 14.9254 25.7673 14.979 25.7288C15.0316 25.6911 15.0831 25.6534 15.1335 25.6159C14.9904 25.6071 14.8494 25.5854 14.7109 25.5492C14.6562 25.5348 14.6018 25.5188 14.548 25.5C13.9684 25.2977 13.5063 24.8615 13.1982 24.2415C13.1249 24.1177 12.9797 23.905 12.746 23.695C12.6678 23.6248 12.5859 23.5607 12.5008 23.5021C12.3682 23.4104 12.2274 23.3327 12.0784 23.2694C11.7503 23.1298 11.384 23.0592 10.982 23.0592C10.2812 23.0592 9.68771 23.2732 9.21803 23.6952C8.96018 23.9269 8.80992 24.1621 8.74541 24.2769C8.73679 24.2938 8.72754 24.31 8.71851 24.3267C8.71157 24.3405 8.70758 24.349 8.70737 24.3494L8.70632 24.349C8.63655 24.4769 8.56006 24.5967 8.47684 24.7069C8.47747 24.7069 8.4781 24.7067 8.47852 24.7065H8.47831C8.47831 24.7065 8.20764 25.0671 8.22025 25.6844L8.22067 25.6842ZM11.4441 26.2204C11.515 25.9871 11.6768 25.6742 12.0357 25.6744C12.3593 25.6744 12.5026 25.9115 12.5642 26.0838C12.5878 26.1496 12.5413 26.2217 12.4892 26.2002V26.1998C12.2957 26.1196 11.8974 26.0175 11.5351 26.3234C11.4838 26.3667 11.421 26.2957 11.4441 26.2202V26.2204ZM9.39266 26.084C9.45424 25.9117 9.59777 25.6746 9.92119 25.6746C10.2801 25.6746 10.4419 25.9873 10.5128 26.2207C10.5357 26.2961 10.473 26.3671 10.4218 26.3238C10.0595 26.018 9.66123 26.12 9.46769 26.2002V26.2007C9.41557 26.2221 9.36892 26.15 9.39245 26.0842L9.39266 26.084ZM14.7044 23.3034C14.2273 23.3034 13.8005 23.0923 13.5118 22.76C13.529 22.9159 13.5532 23.0684 13.5862 23.2157C13.6433 23.4715 13.7228 23.7023 13.8215 23.9061C13.8692 23.9879 13.8957 24.044 13.9037 24.0613C14.1248 24.4448 14.424 24.7123 14.7838 24.8377C15.2621 25.0046 15.8156 24.91 16.3738 24.5738C16.4969 24.4996 16.6201 24.4142 16.7428 24.3167C16.7872 24.2815 16.8309 24.245 16.8742 24.2075C16.8765 24.2054 16.8788 24.2036 16.8813 24.2015C17.0162 24.0842 17.1465 23.9557 17.2715 23.8171C17.7639 23.2715 18.1739 22.5692 18.4545 21.7792C18.4721 21.7294 18.4887 21.6794 18.5051 21.6294C18.6404 21.2194 18.734 20.8077 18.7842 20.4059C18.8577 19.8173 18.839 19.2494 18.7247 18.7388C18.5362 17.8963 18.1111 17.3202 17.5273 17.1167C17.3724 17.0627 17.21 17.0361 17.0421 17.0361C16.5762 17.0361 16.068 17.2413 15.5685 17.6379C15.5563 17.6475 15.5445 17.6579 15.5326 17.6677C14.821 18.2463 14.2267 19.1344 13.8568 20.1754C13.818 20.285 13.7827 20.3948 13.7497 20.5046C14.0147 20.3036 14.345 20.1829 14.7046 20.1829C14.8519 20.1829 14.994 20.2044 15.1293 20.2419C14.8645 20.3707 14.6817 20.6398 14.6817 20.9519C14.6817 21.389 15.0391 21.7432 15.4802 21.7432C15.8041 21.7432 16.0821 21.5519 16.2076 21.2773C16.254 21.4244 16.279 21.5809 16.279 21.7432C16.279 21.9054 16.2542 22.0598 16.2084 22.2061C16.0094 22.8417 15.4113 23.3034 14.7044 23.3034ZM7.61943 24.5884C7.97605 24.2982 8.23832 23.8277 8.37513 23.2161C8.4285 22.9777 8.46045 22.7267 8.47243 22.4673C8.20911 22.9642 7.68395 23.3036 7.0783 23.3036C6.37136 23.3036 5.77328 22.8419 5.57427 22.2063C5.52846 22.06 5.50387 21.9046 5.50387 21.7434C5.50387 20.8817 6.20892 20.1832 7.07851 20.1832C7.22604 20.1832 7.3681 20.2046 7.50343 20.2423C7.23864 20.3711 7.05603 20.6402 7.05603 20.9521C7.05603 21.3892 7.41349 21.7434 7.85459 21.7434C8.07987 21.7434 8.28308 21.6507 8.42829 21.5019C8.39446 21.2479 8.34381 20.9902 8.27615 20.7317C8.23012 20.5561 8.17654 20.38 8.11496 20.2046C8.1116 20.195 8.10866 20.1852 8.1053 20.1757C7.72913 19.1169 7.12117 18.2157 6.39343 17.6379C5.71381 17.0984 5.01822 16.9132 4.43443 17.1171C4.28291 17.17 4.14232 17.2484 4.01371 17.3496C3.64637 17.6382 3.37654 18.1157 3.237 18.7394C3.13151 19.2111 3.10818 19.7315 3.16282 20.2717C3.21283 20.7648 3.32778 21.2746 3.50725 21.7798C3.79326 22.5846 4.21356 23.2982 4.71834 23.8482C4.83686 23.9773 4.96001 24.0979 5.08757 24.2082C5.0945 24.2142 5.10165 24.2196 5.10858 24.2257C5.14515 24.2569 5.18192 24.2879 5.21912 24.3175C5.36349 24.4321 5.50828 24.5296 5.65287 24.6119C6.18916 24.9171 6.71832 24.999 7.17812 24.8386C7.33783 24.783 7.48536 24.6982 7.61985 24.5888L7.61943 24.5884ZM21.2721 8.99607C21.2686 8.94586 21.2526 8.89941 21.2286 8.85795C21.1771 8.76878 21.0851 8.70586 20.976 8.69711C20.259 8.63941 19.4346 8.75191 18.5169 9.03336C18.453 9.05295 18.3895 9.07336 18.3265 9.09399C18.2033 9.1342 18.0825 9.17649 17.9638 9.21982C17.9123 9.23857 17.8614 9.25774 17.8108 9.27691C17.7408 9.30357 17.6715 9.33066 17.6034 9.35795C17.12 9.55232 16.6878 9.76086 16.3404 9.94274C16.262 9.98378 16.1765 9.9017 16.2153 9.82274C16.2693 9.71295 16.3255 9.61524 16.3816 9.52628C16.6899 9.03774 17.0011 8.85003 17.0147 8.84232C16.7634 8.65295 16.4969 8.48628 16.2191 8.34628C16.1668 8.32003 16.1147 8.29482 16.0626 8.26961C15.1509 7.83024 14.2486 7.56586 13.462 7.40815C13.4401 7.40378 13.4185 7.39961 13.3968 7.39524C13.4821 7.97691 13.5578 8.5592 13.6217 9.14128L13.8543 11.2567C13.9321 11.9634 13.6162 12.6542 13.0305 13.0596C12.4568 13.4567 11.7299 13.6579 10.8696 13.6579C9.99411 13.6579 9.25712 13.4494 8.67942 13.039C8.19272 12.6932 7.9004 12.1409 7.8756 11.5509C7.87602 11.5617 7.8756 11.5727 7.87623 11.5838C7.20901 10.0542 7.02282 8.67961 6.97113 8.0194C6.96587 7.95149 6.96188 7.89107 6.95894 7.83899C6.56827 7.97753 6.16836 8.14441 5.76803 8.34628C5.49189 8.48545 5.2269 8.65086 4.97682 8.83878C4.97892 8.83961 4.98123 8.84045 4.98333 8.84149C4.98438 8.84211 5.0199 8.86316 5.07727 8.90753C5.19495 8.99857 5.40678 9.19211 5.61777 9.52628C5.67388 9.61524 5.72999 9.71295 5.784 9.82274C5.82288 9.9017 5.73714 9.98378 5.65875 9.94274C5.32377 9.76732 4.90978 9.56732 4.44725 9.37899C4.42728 9.37086 4.40732 9.36253 4.38693 9.35441C4.26967 9.30732 4.14925 9.26128 4.02632 9.21649C3.90737 9.17316 3.78633 9.13086 3.66318 9.09066C3.60329 9.07107 3.54277 9.05191 3.48203 9.03316C2.56453 8.7517 1.7399 8.6392 1.02288 8.69691C0.894058 8.70711 0.788773 8.79274 0.746534 8.90836C0.736447 8.93607 0.728881 8.96503 0.72678 8.99566C0.69925 9.39899 0.69904 9.96753 0.788353 10.6046C0.889435 11.3257 1.08634 12.0307 1.3732 12.7C1.52198 13.0473 1.69682 13.3848 1.89415 13.7123C1.99124 13.8738 2.094 14.0327 2.20244 14.1888C2.3052 14.3367 2.41259 14.4823 2.52544 14.625C2.52607 14.6259 2.52691 14.6269 2.52754 14.6277C2.60214 14.7219 2.67843 14.8154 2.75723 14.9073C2.80662 14.9648 2.77488 15.0542 2.69965 15.0675C2.64417 15.0773 2.57693 15.0857 2.50316 15.0879C2.47164 16.0136 2.51493 17.0321 2.68032 18.115C2.97327 17.2802 3.50074 16.6973 4.19885 16.4538C4.9184 16.2027 5.72432 16.3438 6.50229 16.8488C7.5131 17.2015 8.50311 18.1052 9.12178 19.369C9.59399 20.3338 9.76589 21.3373 9.66691 22.2054C9.65031 22.3515 9.6253 22.4936 9.59336 22.6311C9.96721 22.4698 10.427 22.3565 10.982 22.3563H10.9829C11.5503 22.3563 12.0183 22.475 12.3965 22.6421C12.3921 22.4988 12.3934 22.3532 12.4014 22.2052C12.4266 21.7434 12.5132 21.2629 12.667 20.7815C12.8799 20.1148 13.1974 19.5236 13.579 19.0365C13.985 18.2461 14.5167 17.5721 15.1249 17.0892C16.0025 16.3923 16.9391 16.1667 17.762 16.454C18.474 16.7025 19.0093 17.3032 19.2984 18.165C19.4701 17.0634 19.5153 16.0273 19.4834 15.0875C19.4142 15.0848 19.3514 15.0767 19.2991 15.0673C19.2238 15.0538 19.1921 14.9646 19.2415 14.9071C19.3169 14.819 19.3905 14.7298 19.4619 14.6396C19.4613 14.6304 19.4609 14.6213 19.4602 14.6123L19.4712 14.6275C19.5811 14.4886 19.6853 14.3469 19.7858 14.2032C19.8942 14.0477 19.9972 13.8896 20.0943 13.7288C20.2956 13.3961 20.4738 13.0529 20.6253 12.6998C20.9122 12.0304 21.1089 11.3254 21.2099 10.6044C21.2992 9.96732 21.299 9.39878 21.2715 8.99545L21.2721 8.99607ZM4.32137 10.924L3.21073 12.7434C3.15105 12.8409 3.01067 12.8559 2.92955 12.7738C2.87534 12.719 2.82406 12.665 2.77425 12.6113C2.66666 12.4954 2.56894 12.3821 2.48005 12.2715C2.37476 12.1404 2.28209 12.0134 2.20076 11.8902C1.50412 10.8361 1.63105 10.0794 1.7294 9.78295C1.7563 9.7017 1.84246 9.65211 1.92967 9.66836C2.30436 9.73774 2.66414 9.85857 2.98882 9.99566C3.10209 10.0434 3.21073 10.0929 3.31434 10.1434C3.42592 10.1977 3.53142 10.2523 3.62956 10.3061C3.91725 10.4638 4.14232 10.6113 4.27303 10.7017C4.34637 10.7529 4.36718 10.8488 4.32158 10.924H4.32137ZM15.4973 16.679L15.2279 16.8688V16.8684C14.6964 17.2421 14.1967 17.4261 13.76 17.5029L13.7696 17.5111C13.8728 17.5975 13.8358 17.7634 13.7051 17.7984L13.5332 17.8446L13.7694 18.0425C13.8728 18.1292 13.8356 18.2948 13.7051 18.3298L13.3619 18.4221C12.7529 18.5852 12.1788 18.6669 11.6427 18.6669C10.9238 18.6669 10.2721 18.5202 9.69318 18.2279C9.61059 18.1863 9.52926 18.1417 9.44961 18.0938C9.18777 17.9369 8.95913 17.7579 8.76012 17.5686C7.80773 16.5984 7.89767 15.3123 7.89767 15.3123C7.89767 15.3123 7.89788 15.3132 7.89809 15.3134C7.89788 15.3117 7.89746 15.3098 7.89725 15.3084C7.88107 15.2121 7.99917 15.1632 8.0599 15.2275C8.06495 15.2329 8.07062 15.2377 8.07482 15.245C8.11433 15.3123 8.15993 15.3859 8.21037 15.4632C8.75192 16.2913 9.94073 17.6042 11.9598 17.4386C12.1534 17.4227 12.3539 17.3946 12.5628 17.3498C12.0819 17.1261 11.7339 16.69 11.499 16.2886C11.3933 16.1077 11.3105 15.9338 11.2489 15.7896C11.21 15.6984 11.3201 15.6171 11.3979 15.6792C11.8266 16.0221 12.7029 16.5448 13.8018 16.2509C13.9054 16.2232 14.0107 16.1888 14.1178 16.1457C14.1546 16.1309 14.1916 16.1154 14.229 16.0988C14.1897 16.0773 14.1498 16.0544 14.1099 16.03C13.8892 15.8832 13.7497 15.67 13.6612 15.4523C13.6024 15.3071 13.5658 15.16 13.5439 15.029C13.5378 14.9925 13.5517 14.9621 13.5744 14.9423C13.6127 14.9094 13.6761 14.9065 13.7142 14.9554C13.9478 15.2569 14.4364 15.6611 15.4306 15.8484C15.5761 15.8759 15.6177 16.0623 15.4971 16.1471L15.2276 16.3367C15.293 16.3521 15.3602 16.3667 15.4306 16.38C15.5761 16.4075 15.6177 16.594 15.4971 16.6788L15.4973 16.679ZM19.7895 11.904C19.708 12.0265 19.6151 12.1529 19.51 12.2832C19.4207 12.3938 19.3232 12.5069 19.215 12.6227C19.1683 12.6727 19.1202 12.7232 19.0698 12.774C18.9887 12.8561 18.8483 12.8411 18.7884 12.7436L17.6778 10.9242C17.6319 10.8492 17.653 10.7532 17.7263 10.7021C17.8555 10.6123 18.0773 10.4669 18.3607 10.3111C18.4587 10.2573 18.5642 10.2023 18.676 10.1477C18.7794 10.0973 18.8878 10.0475 19.0011 9.99961C19.3281 9.86107 19.6916 9.73857 20.0699 9.66836C20.1571 9.65211 20.2435 9.7017 20.2701 9.78295C20.3689 10.0807 20.4965 10.8425 19.7897 11.9038L19.7895 11.904ZM10.8347 0.889821C10.9173 1.11357 10.9984 1.38565 11.0736 1.71795L11.1924 2.19086C11.2802 2.54128 11.3641 2.89232 11.4439 3.2444C11.4822 3.41315 11.3744 3.58003 11.2037 3.61586L10.981 3.66232C11.3065 3.84899 11.6726 4.00482 12.0784 4.12982C11.9773 3.66961 11.8707 3.21107 11.7564 2.75565L11.6358 2.27503C11.446 1.43795 11.2321 1.04399 11.0829 0.859821C10.9799 0.732738 10.908 0.705654 10.8963 0.701904H10.8421C10.8358 0.703988 10.8122 0.712738 10.7759 0.739821C10.7954 0.787321 10.8149 0.837113 10.8345 0.889821H10.8347ZM11.6139 5.32232C11.7902 5.41065 11.9149 5.57545 11.9481 5.76857C11.9905 6.01545 12.0307 6.26274 12.0693 6.51024C12.0878 6.62899 12.1053 6.74774 12.1229 6.8667C12.1406 6.98524 12.1582 7.10378 12.1748 7.22232C12.1984 7.38961 12.2215 7.55711 12.2433 7.72482C12.4028 7.74586 12.567 7.76191 12.7349 7.77378C12.7115 7.60774 12.6867 7.44191 12.6617 7.27607C12.6437 7.15607 12.6256 7.03628 12.6065 6.91628C12.5873 6.79607 12.5674 6.67607 12.5472 6.55586C12.4705 6.09607 12.3881 5.63711 12.2982 5.17982C11.6581 5.02753 11.0869 4.81482 10.5869 4.54065H10.5863C10.5863 4.54065 10.9621 4.9967 11.6135 5.32211L11.6139 5.32232ZM11.9781 9.11461C12.2404 9.16795 12.4367 9.38441 12.4657 9.64795L12.5941 10.8148C12.6077 10.9382 12.6065 11.0611 12.5915 11.1815C12.7691 11.1959 12.9511 11.2057 13.1367 11.2115L12.9173 9.21774C12.8998 9.05899 12.8799 8.90024 12.8607 8.74149C11.69 8.68149 10.683 8.42628 9.84616 7.97982L9.84469 7.98128C9.84469 7.98128 10.5006 8.81357 11.9781 9.11482V9.11461ZM11.4624 12.5452C11.082 12.7109 10.5909 12.8273 9.96091 12.8273C9.92434 12.8273 9.88903 12.8263 9.85331 12.8254C10.1572 12.9119 10.4959 12.9563 10.8692 12.9563C11.5935 12.9563 12.1721 12.7975 12.6245 12.4844C12.7523 12.3961 12.8595 12.2859 12.9437 12.1617C11.8602 12.1136 10.8908 11.9294 10.0523 11.6088C9.87516 11.5411 9.70431 11.4669 9.53872 11.3873C9.789 11.6246 10.398 12.1021 11.4427 12.3423C11.5437 12.3654 11.5574 12.504 11.4622 12.5454L11.4624 12.5452Z" fill="white"/>
<path d="M21.5458 24.7703L21.2408 25.1229C20.8884 25.5309 20.4999 25.7828 20.0857 25.8725C19.8175 25.9304 19.641 25.9013 19.3485 25.8532C19.1929 25.8277 19.0166 25.7989 18.7974 25.7794C18.6968 25.7705 18.0218 25.719 17.2428 25.8549C17.0774 25.8837 16.9074 25.9212 16.7369 25.9692C16.5863 26.0117 16.4356 26.0623 16.2879 26.1229C16.0014 26.2403 15.744 26.3875 15.5126 26.5524C15.4597 26.4864 15.4042 26.4218 15.3462 26.3587C15.607 26.1726 15.8449 25.9889 16.0556 25.8169C16.3749 25.5564 16.6321 25.3242 16.8113 25.1543C16.9368 25.0746 17.0618 24.9858 17.1854 24.8873C18.0149 24.2266 18.7029 23.2103 19.1223 22.0258C19.2942 21.5404 19.4123 21.049 19.4771 20.567C20.1109 18.4659 20.259 16.5078 20.1832 14.8498C20.1836 14.8496 20.1838 14.8494 20.1842 14.8489C20.6314 14.2501 21.0008 13.6103 21.286 12.9385C21.597 12.2058 21.8091 11.4343 21.9167 10.6452C22.0089 9.9678 22.0081 9.3957 21.9835 8.98894C21.9589 8.58531 21.911 8.34431 21.9068 8.32487H21.9064C21.8782 8.18775 21.7713 8.0801 21.6338 8.05084C20.6871 7.8485 19.5681 7.94277 18.3074 8.33072C18.1224 8.38757 17.9428 8.44944 17.7665 8.51341C17.3905 8.18733 16.978 7.90807 16.5402 7.68671C15.4075 7.1142 14.2786 6.80212 13.3344 6.63323C13.3176 6.63031 13.3008 6.62738 13.284 6.62445C13.1352 5.70454 12.9587 4.78838 12.7584 3.87955C12.6592 3.42931 12.5554 2.98053 12.4438 2.53489L12.3261 2.06417C12.1477 1.27636 11.9121 0.699658 11.6261 0.349542C11.3374 -0.00412702 11.0526 -0.0586824 10.9089 -0.0599365H10.8303C10.6864 -0.0586824 10.4018 -0.00391799 10.1131 0.349542C9.82685 0.699449 9.59148 1.27636 9.41306 2.06417L9.29517 2.53489C8.95452 3.89627 8.67145 5.28064 8.44764 6.67232C7.54716 6.84874 6.4981 7.15558 5.44673 7.68692C5.01025 7.90765 4.59899 8.18566 4.22408 8.51048C4.0505 8.44777 3.87356 8.38674 3.69178 8.33072C2.43131 7.94298 1.31206 7.8485 0.365551 8.05084C0.227903 8.0801 0.120938 8.18796 0.0929883 8.32487C0.0877346 8.35016 0.00829852 8.74919 0.00262451 9.39277V9.54076C0.00535644 9.86119 0.0270017 10.2337 0.0831113 10.6452C0.139221 11.0579 0.224751 11.4657 0.337391 11.8657C0.440153 12.2305 0.565191 12.589 0.713556 12.9385C0.996416 13.605 1.36249 14.2398 1.80486 14.8347C1.79624 15.018 1.79057 15.2049 1.78783 15.3953C1.7685 16.7439 1.90405 18.2665 2.32035 19.8873C2.36574 20.0639 2.41408 20.2413 2.46619 20.4201C2.47565 20.5049 2.48637 20.5902 2.4994 20.6757C2.54689 20.9911 2.61792 21.3099 2.71123 21.6278C2.7501 21.7605 2.79234 21.8933 2.83921 22.0256C3.25866 23.2101 3.94669 24.2266 4.77614 24.8873C4.92367 25.0048 5.07287 25.1085 5.22292 25.199C5.54444 25.5002 6.0778 25.9674 6.75343 26.4389C6.90137 26.5422 7.0489 26.64 7.19642 26.7336C7.07201 26.9044 6.95874 27.084 6.85787 27.2715C6.7446 27.4819 6.64562 27.7021 6.5645 27.9313L5.88846 29.841C5.68293 30.4215 5.56462 31.0276 5.53646 31.6426L5.39629 34.7094C5.39629 34.7134 5.39629 34.7171 5.39629 34.7211L5.37591 35.1684C5.36855 35.3258 5.49527 35.4573 5.65372 35.4573H8.70886C8.86248 35.4573 8.98688 35.3335 8.98688 35.1809V34.8482C8.99025 34.8254 8.99256 34.8024 8.99382 34.779H10.5138L10.4058 35.7524C10.3877 35.9161 10.5166 36.0591 10.6824 36.0591H10.9366C10.9366 36.0591 10.9381 36.0591 10.9387 36.0591C10.9402 36.0591 10.9415 36.0593 10.9427 36.0593H13.8762C13.8762 36.0593 13.8779 36.0591 13.8785 36.0591C13.8789 36.0591 13.8793 36.0591 13.8798 36.0591H14.0821C14.0826 36.0591 14.083 36.0591 14.0834 36.0591C14.2234 36.0584 14.3413 35.9541 14.3583 35.816L14.3822 35.6197C14.3827 35.6172 14.3835 35.6147 14.3839 35.6122L14.4854 34.7792H16.8313C16.8313 34.7792 16.8328 34.7792 16.8336 34.7792H16.9097C17.0656 34.7792 17.1909 34.6521 17.1877 34.497L17.186 34.4197C17.1787 34.0572 17.1734 33.8961 17.1553 33.6047C17.1459 33.4356 17.1333 33.2435 17.1171 33.033L17.1011 32.7993H17.0982C17.029 31.9908 16.9048 30.9501 16.6823 29.8335C16.7727 29.8276 16.8515 29.8203 16.9147 29.8142C17.5313 29.7561 18.1208 29.5523 18.6669 29.2083L19.0513 28.966C19.1522 28.9027 19.1328 28.7514 19.0194 28.7148C19.3035 28.6799 19.6015 28.5992 19.8974 28.4493C20.6552 28.0655 21.0193 27.4121 21.3123 26.8871C21.5666 26.4316 21.7496 25.9393 21.8568 25.4239L21.9518 24.9684C22.0003 24.7339 21.7032 24.5886 21.5462 24.7703H21.5458ZM18.7842 20.4138C18.734 20.8172 18.6403 21.23 18.5051 21.6414C18.4887 21.6916 18.4721 21.7415 18.4545 21.7917C18.1739 22.5843 17.7639 23.2889 17.2716 23.8364C17.1465 23.9754 17.0162 24.1043 16.8813 24.222C16.879 24.2241 16.8767 24.226 16.8742 24.2281C16.8309 24.2657 16.787 24.3023 16.7428 24.3376C16.6201 24.4354 16.497 24.5211 16.3738 24.5955C15.8157 24.9329 15.2621 25.0278 14.7838 24.8604C14.424 24.7345 14.1248 24.4661 13.9037 24.0813C13.8957 24.0638 13.8693 24.0078 13.8216 23.9256C13.7228 23.7212 13.6436 23.4896 13.5862 23.2329C13.5532 23.0851 13.529 22.9321 13.5118 22.7758C13.8005 23.1089 14.2271 23.3209 14.7044 23.3209C15.4113 23.3209 16.0094 22.8577 16.2084 22.22C16.2542 22.0732 16.279 21.9173 16.279 21.7555C16.279 21.5937 16.254 21.4357 16.2076 21.2881C16.0821 21.5634 15.8041 21.7555 15.4803 21.7555C15.0392 21.7555 14.6817 21.4002 14.6817 20.9616C14.6817 20.6485 14.8645 20.3787 15.1293 20.2493C14.994 20.2117 14.8519 20.1901 14.7046 20.1901C14.345 20.1901 14.0147 20.3114 13.7497 20.5129C13.7827 20.4027 13.8178 20.2926 13.8569 20.1826C14.2267 19.1381 14.821 18.247 15.5326 17.6666C15.5446 17.6568 15.5565 17.6463 15.5685 17.6367C16.068 17.2387 16.5762 17.033 17.0421 17.0328C17.2102 17.0328 17.3726 17.0596 17.5273 17.1137C18.1111 17.3179 18.5362 17.8959 18.7247 18.7412C18.8391 19.2537 18.8578 19.8233 18.7842 20.4138ZM9.98236 2.70462L10.1011 2.23013L10.103 2.2224C10.2427 1.6039 10.3957 1.2264 10.5262 0.996682C10.6296 0.814621 10.7189 0.725159 10.7763 0.6821C10.8127 0.654927 10.8362 0.646148 10.8425 0.644266C10.8606 0.644266 10.8788 0.644266 10.8967 0.644266C10.9085 0.64782 10.9803 0.675202 11.0833 0.802707C11.2323 0.987484 11.4465 1.38275 11.6362 2.22261L11.7568 2.70483C11.8712 3.16196 11.9775 3.62203 12.0788 4.08355C11.673 3.95814 11.3071 3.80179 10.9814 3.6145C10.5802 3.38374 10.241 3.10616 9.96407 2.78259C9.97038 2.75667 9.97626 2.73075 9.98278 2.70483L9.98236 2.70462ZM9.70475 3.88477C9.9687 4.11407 10.2631 4.31766 10.5872 4.49596C11.0869 4.77083 11.6583 4.98445 12.2984 5.13724C12.3883 5.59605 12.4705 6.05653 12.5474 6.51785C12.5674 6.63846 12.5876 6.75886 12.6067 6.87946C12.6258 6.99965 12.6437 7.12005 12.662 7.24045C12.6872 7.40683 12.7118 7.57321 12.7351 7.73981C12.5672 7.72789 12.4031 7.7118 12.2436 7.69069C11.5444 7.59809 10.928 7.41791 10.3972 7.15015C10.2081 7.05463 10.0303 6.9476 9.8632 6.82992C9.7348 6.73963 9.61228 6.64327 9.4967 6.54001C9.48746 6.53165 9.47926 6.52308 9.47022 6.51472C9.38532 6.43717 9.30631 6.35753 9.23255 6.27664C9.36998 5.47524 9.5276 4.67697 9.70475 3.88498V3.88477ZM8.82129 9.18814C8.8858 8.59932 8.96251 8.01028 9.04909 7.42209C9.29433 7.61962 9.5608 7.79353 9.84618 7.94632C10.683 8.39405 11.6898 8.65032 12.8608 8.71052C12.8799 8.86979 12.8998 9.02907 12.9173 9.18835L13.1367 11.1887C12.9511 11.1829 12.7693 11.173 12.5916 11.1586C11.7901 11.0936 11.0688 10.9429 10.4382 10.7057C9.78187 10.4588 9.22225 10.1172 8.76644 9.69084L8.8215 9.18835L8.82129 9.18814ZM8.58865 11.3108L8.64119 10.8321C8.91774 11.0315 9.21721 11.2096 9.53894 11.3649C9.70454 11.4448 9.87539 11.5192 10.0525 11.5871C10.8908 11.9088 11.8605 12.0936 12.944 12.1419C12.8597 12.2664 12.7525 12.377 12.6248 12.4656C12.1723 12.7798 11.5938 12.9391 10.8694 12.9391C10.4962 12.9391 10.1574 12.8946 9.85353 12.8078C9.56773 12.7263 9.31282 12.6074 9.09217 12.4502C8.7326 12.1939 8.5399 11.7573 8.58886 11.3108H8.58865ZM2.68054 18.1158C2.51516 17.0293 2.47208 16.0073 2.50339 15.0787C2.57736 15.0764 2.6444 15.068 2.69988 15.0582C2.77511 15.0446 2.80684 14.9551 2.75746 14.8974C2.67865 14.8052 2.60237 14.7116 2.52777 14.6169C2.52714 14.6161 2.5263 14.615 2.52566 14.6142C2.41282 14.471 2.30543 14.3249 2.20267 14.1765C2.09423 14.0199 1.99147 13.8605 1.89438 13.6985C1.69726 13.3699 1.52221 13.0313 1.37342 12.6828C1.08657 12.0112 0.88966 11.3039 0.788579 10.5804C0.699266 9.94125 0.699476 9.37082 0.727006 8.96615C0.729107 8.93543 0.736672 8.90637 0.74676 8.87857C0.788999 8.76256 0.894284 8.67665 1.0231 8.66641C1.74013 8.60851 2.56475 8.72139 3.48226 9.00378C3.54299 9.02238 3.60351 9.04182 3.66341 9.06147C3.78655 9.10181 3.9076 9.14403 4.02654 9.18772C4.14927 9.23266 4.2699 9.27885 4.38716 9.32609C4.40733 9.33424 4.4273 9.3424 4.44747 9.35076C4.9098 9.53972 5.324 9.74038 5.65898 9.91638C5.73736 9.95756 5.82289 9.8752 5.78422 9.79598C5.73022 9.68582 5.67411 9.58779 5.618 9.49854C5.40701 9.16326 5.19518 8.96908 5.07749 8.87774C5.02012 8.83321 4.98461 8.81189 4.98356 8.81147C4.98146 8.81064 4.97915 8.80959 4.97704 8.80876C5.22712 8.62022 5.49191 8.45425 5.76825 8.31462C6.16859 8.11229 6.56871 7.94465 6.95916 7.80565C6.964 7.80377 6.96862 7.80231 6.97324 7.80063C7.08672 7.7605 7.19936 7.72246 7.31074 7.68713C7.31263 7.68651 7.31431 7.68588 7.3162 7.68546C7.42779 7.65014 7.53812 7.61711 7.6474 7.58617C7.65559 7.58387 7.66379 7.58137 7.67199 7.57907C7.77769 7.54939 7.88192 7.52179 7.9849 7.49608C7.99561 7.49337 8.00654 7.49065 8.01726 7.48793C8.11876 7.46285 8.21879 7.43944 8.31735 7.4177C8.32281 7.41645 8.32849 7.41498 8.33395 7.41373C8.33395 7.41373 8.33395 7.41373 8.33395 7.41394C8.33395 7.41394 8.33416 7.41394 8.33437 7.41394C8.33332 7.42167 8.33185 7.4292 8.3308 7.43693C8.3226 7.49295 8.31546 7.54918 8.30768 7.6052C8.29655 7.684 8.28646 7.7628 8.27553 7.8416C8.25557 7.98875 8.23434 8.1357 8.21564 8.28306C8.21312 8.30375 8.21081 8.32424 8.20828 8.34493C8.17613 8.60078 8.14545 8.85662 8.1175 9.11247L7.88487 11.2351C7.88382 11.2439 7.8836 11.2529 7.88276 11.2617C7.87898 11.3012 7.87604 11.3407 7.87478 11.38C7.87394 11.4013 7.87415 11.4224 7.87415 11.4437C7.87415 11.4726 7.87436 11.5014 7.87562 11.53C7.90042 12.122 8.19273 12.6761 8.67944 13.0231C9.25713 13.4349 9.99412 13.6439 10.8696 13.6439C11.7297 13.6439 12.4569 13.442 13.0306 13.0438C13.6164 12.637 13.9321 11.9439 13.8543 11.2349L13.6217 9.11247C13.5576 8.52846 13.4822 7.94423 13.3968 7.36064C13.4185 7.36482 13.4401 7.36921 13.462 7.3736C14.2484 7.53204 15.151 7.79729 16.0626 8.23791C16.1147 8.2632 16.167 8.28829 16.2191 8.31483C16.497 8.4553 16.7632 8.62252 17.0148 8.81252C17.0011 8.82046 16.6899 9.00858 16.3816 9.49875C16.3255 9.588 16.2694 9.68603 16.2154 9.79619C16.1765 9.87541 16.262 9.95776 16.3404 9.91659C16.6878 9.73411 17.12 9.52487 17.6034 9.32986C17.6715 9.30226 17.7408 9.2753 17.8108 9.24854C17.8612 9.22911 17.9123 9.21008 17.9638 9.19127C18.0825 9.14759 18.2036 9.10536 18.3265 9.06502C18.3895 9.04433 18.453 9.02384 18.5169 9.0042C19.4344 8.7218 20.259 8.60893 20.9761 8.66683C21.0851 8.67561 21.1772 8.73873 21.2286 8.8282C21.2526 8.86979 21.2686 8.91641 21.2722 8.96678C21.2997 9.37145 21.2999 9.94188 21.2106 10.5811C21.1095 11.3045 20.9126 12.0118 20.6259 12.6834C20.4746 13.0377 20.2964 13.382 20.0949 13.7158C19.9976 13.877 19.8948 14.0358 19.7864 14.1918C19.686 14.336 19.5815 14.4781 19.4718 14.6175L19.4609 14.6023C19.4615 14.6113 19.4619 14.6205 19.4626 14.6297C19.3909 14.7202 19.3176 14.8096 19.2421 14.8981C19.1927 14.9557 19.2245 15.0454 19.2997 15.0588C19.3522 15.0682 19.4149 15.0764 19.484 15.0791C19.5159 16.0222 19.4708 17.0615 19.2991 18.1668C19.0099 17.302 18.4749 16.6992 17.7627 16.4501C16.9397 16.162 16.0031 16.3884 15.1255 17.0874C14.5174 17.5719 13.9857 18.2481 13.5797 19.0411C13.4319 19.3296 13.3004 19.6331 13.1886 19.9489C12.9188 20.7112 12.7801 21.488 12.7763 22.2204C12.775 22.4455 12.787 22.666 12.8116 22.8809C12.6876 22.8019 12.5499 22.7262 12.3972 22.6587C12.0189 22.4911 11.5511 22.3721 10.9835 22.3719H10.9827C10.4277 22.3719 9.96765 22.4858 9.594 22.6476C9.42946 22.7189 9.28235 22.7994 9.15059 22.8838C9.17539 22.6681 9.18736 22.4466 9.18631 22.2206C9.18253 21.4884 9.04383 20.7112 8.774 19.9491C8.35455 18.7648 7.66652 17.7483 6.83707 17.0876C6.72653 16.9996 6.61515 16.9191 6.50314 16.8462C5.72538 16.3395 4.91925 16.1982 4.19971 16.4499C3.50159 16.6942 2.97412 17.2788 2.68117 18.1166L2.68054 18.1158ZM5.65267 24.6332C5.50809 24.5506 5.3633 24.4528 5.21892 24.3378C5.18173 24.3081 5.14495 24.277 5.10839 24.2456C5.10145 24.2396 5.09431 24.2341 5.08737 24.2281C4.96002 24.1175 4.83688 23.9965 4.71814 23.8669C4.21337 23.315 3.79307 22.5991 3.50706 21.7915C3.32759 21.285 3.21264 20.7735 3.16262 20.2786C3.10778 19.7363 3.13131 19.2142 3.23681 18.7412C3.37634 18.1154 3.64596 17.6365 4.01351 17.3468C4.14234 17.2452 4.28292 17.1666 4.43423 17.1135C5.01802 16.9091 5.7134 17.0947 6.39323 17.6361C7.12098 18.2157 7.72894 19.1199 8.1051 20.1822C8.10846 20.1918 8.11141 20.2014 8.11477 20.2112C8.17634 20.3872 8.22993 20.5639 8.27595 20.7401C8.34362 20.9995 8.39448 21.2578 8.4281 21.5128C8.28289 21.6621 8.07967 21.7551 7.85439 21.7551C7.41329 21.7551 7.05583 21.3998 7.05583 20.9612C7.05583 20.6481 7.23845 20.3783 7.50324 20.2491C7.3679 20.2115 7.22584 20.1897 7.07832 20.1897C6.20872 20.1897 5.50368 20.8906 5.50368 21.7551C5.50368 21.9169 5.52826 22.0728 5.57408 22.2196C5.77309 22.8573 6.37117 23.3205 7.07811 23.3205C7.68375 23.3205 8.20891 22.98 8.47223 22.4815C8.46025 22.7419 8.42831 22.9936 8.37493 23.2327C8.23813 23.8464 7.97586 24.3184 7.61924 24.6095C7.48474 24.7193 7.33743 24.8041 7.17751 24.8602C6.71791 25.0211 6.18855 24.939 5.65225 24.6327L5.65267 24.6332ZM7.17162 25.8706C7.06087 25.7934 6.95433 25.7163 6.85157 25.6398C7.04301 25.626 7.23088 25.5884 7.41308 25.5244C7.83464 25.3769 8.19378 25.1049 8.47706 24.7287C8.56049 24.6181 8.63678 24.4979 8.70655 24.3696L8.7076 24.37C8.7076 24.37 8.7118 24.361 8.71873 24.3472C8.72756 24.3305 8.73681 24.3142 8.74563 24.2973C8.81036 24.1819 8.96061 23.9459 9.21826 23.7137C9.68794 23.2902 10.2812 23.0755 10.9822 23.0755C11.384 23.0755 11.7503 23.1464 12.0786 23.2864C12.2274 23.35 12.3682 23.4279 12.501 23.5199C12.5861 23.5788 12.668 23.643 12.7462 23.7134C12.9797 23.9239 13.1249 24.1376 13.1985 24.2617C13.5065 24.8838 13.9687 25.3217 14.5482 25.5244C14.602 25.5432 14.6565 25.5593 14.7111 25.5738C14.8494 25.6103 14.9906 25.6319 15.1337 25.6407C15.0833 25.6783 15.0318 25.7159 14.9793 25.7539C14.9255 25.7926 14.8708 25.8315 14.8153 25.8702C14.8145 25.8708 14.8135 25.8714 14.8126 25.872C14.708 25.9448 14.6048 26.0142 14.5033 26.08C14.427 26.1296 14.3518 26.1768 14.2772 26.2226C14.2437 26.2431 14.2103 26.2638 14.1773 26.2836C14.1607 26.2936 14.1441 26.3033 14.1275 26.3131C12.7416 27.1343 11.6762 27.3225 10.9934 27.3225C10.4077 27.3225 9.54062 27.1841 8.43125 26.6266C8.38691 26.6043 8.34215 26.5813 8.29697 26.5576C8.19126 26.5023 8.08346 26.4433 7.97355 26.38C7.87016 26.3204 7.76487 26.2575 7.6577 26.1908C7.49945 26.0921 7.33764 25.9858 7.17162 25.8702V25.8706ZM8.27805 34.427V34.7531H7.47403L7.23509 34.0662C7.21743 34.0154 7.14535 34.0154 7.1277 34.0662L6.88876 34.7531H6.10365L6.10995 34.6139L6.14652 33.8116H8.27784V34.427H8.27805ZM10.6597 33.4655H10.6595L10.5918 34.0748H10.0168L9.87518 33.6676C9.85753 33.6168 9.78545 33.6168 9.76779 33.6676L9.62615 34.0748H9.01273L9.02849 33.4644H10.6597V33.4655ZM13.7705 34.7792L13.7413 35.0185L13.7003 35.3551H12.8011L12.5413 34.6082C12.5237 34.5574 12.4516 34.5574 12.4339 34.6082L12.1742 35.3551H11.1623L11.2262 34.7792L11.2653 34.4272L11.2939 34.1697H13.8449L13.7705 34.7792ZM14.3194 31.1537C14.2074 31.4756 14.1324 31.809 14.0912 32.1474L14.018 32.7477L14.0117 32.7993L13.9689 33.1515L13.9306 33.4657H11.3721L11.4112 33.1124L11.4502 32.7602L11.5261 32.0771C11.561 31.7619 11.5118 31.4421 11.3836 31.1518C11.3393 31.051 11.2857 30.9545 11.2239 30.8629L11.0348 30.5828L10.721 30.1186L10.5252 29.8287C10.4949 29.7839 10.4392 29.7798 10.4012 29.8042C10.3793 29.8182 10.3634 29.8416 10.3615 29.8726C10.3533 30.0095 10.3579 30.1957 10.3993 30.4284C10.4405 30.6595 10.518 30.9361 10.6555 31.2553L10.7351 31.4354C10.7446 31.457 10.7534 31.4787 10.7614 31.5006C10.8198 31.6599 10.8408 31.8313 10.8219 32.0002L10.7685 32.4814L10.7374 32.7606H9.04614L9.06107 32.1856C9.06527 32.0184 9.10982 31.8533 9.18757 31.7049C9.19262 31.6953 9.1964 31.6852 9.20166 31.6758L9.2605 31.5723C9.42126 31.3414 9.51793 31.1229 9.57488 30.9327C9.64822 30.688 9.656 30.4898 9.65095 30.3723C9.64906 30.3282 9.61544 30.2952 9.57572 30.2889C9.56017 30.2864 9.54357 30.2877 9.52759 30.2946C9.06926 30.4896 8.78682 30.9718 8.7574 31.0237L8.58382 31.3328C8.44071 31.5874 8.36106 31.8763 8.3535 32.1679L8.33816 32.7609L8.32912 33.108H6.17846L6.24382 31.6752C6.26862 31.1292 6.3739 30.591 6.55631 30.0755L7.23236 28.1659C7.37021 27.7765 7.56607 27.4174 7.80816 27.0965C8.10594 27.2595 8.40099 27.4031 8.69184 27.524C8.78304 27.5618 8.87382 27.5971 8.96419 27.6308C9.6705 27.8937 10.3518 28.0275 10.9927 28.0277C11.6291 28.0277 12.3049 27.8962 13.0055 27.637C13.1012 27.6017 13.1972 27.5643 13.2937 27.5242C13.5912 27.4004 13.8936 27.2533 14.1986 27.0852C14.3822 26.9841 14.5667 26.8756 14.7519 26.7589C14.8307 26.8398 14.903 26.9247 14.9715 27.0119C15.0459 27.1061 15.1152 27.2035 15.1774 27.3051C15.2426 27.4113 15.2999 27.5221 15.3516 27.636C15.4052 27.7541 15.4536 27.8751 15.4927 28.0014C15.5614 28.2238 15.625 28.4474 15.6845 28.6711C15.7205 28.8065 15.7547 28.942 15.7875 29.077C15.818 29.2024 15.8472 29.3276 15.8749 29.4524C15.8894 29.5176 15.9039 29.5829 15.9178 29.6479C15.93 29.7051 15.9419 29.7624 15.9535 29.8195C16.1815 30.9308 16.3101 31.9822 16.3824 32.7997H14.725L14.8355 31.893C14.9185 31.2118 14.8401 30.8445 14.7613 30.657C14.7061 30.5253 14.6504 30.4825 14.6504 30.4825H14.6497C14.5148 30.6533 14.4032 30.9102 14.3183 31.1541L14.3194 31.1537ZM16.4665 34.075H15.6095L15.4679 33.6678C15.4502 33.617 15.3781 33.617 15.3607 33.6678L15.219 34.075H14.5707L14.6403 33.5037H16.4383C16.4545 33.7506 16.4625 33.8959 16.4684 34.075H16.4667H16.4665ZM20.6926 26.5453C20.4213 27.0321 20.1403 27.5355 19.5756 27.8216C18.8582 28.1851 18.0775 27.9832 17.7753 27.8793L17.2617 27.7033C17.1398 27.6615 17.0295 27.79 17.0906 27.9033L17.3476 28.3791C17.3567 28.3956 17.4956 28.6483 17.7602 28.8866C17.4657 29.0078 17.1606 29.0835 16.8477 29.1132C16.764 29.1209 16.6548 29.1309 16.5308 29.1362C16.4923 28.9702 16.4518 28.8038 16.4085 28.6366C16.336 28.3561 16.2572 28.0747 16.1706 27.7942C16.1 27.5656 16.009 27.3492 15.9008 27.1435C16.0972 27.0008 16.3154 26.8737 16.5585 26.774C17.5044 26.3858 18.6119 26.4701 18.735 26.4809C18.9279 26.4981 19.083 26.5234 19.2333 26.5482C19.5567 26.6015 19.836 26.6475 20.2367 26.5608C20.3105 26.5449 20.383 26.5244 20.4551 26.5014C20.5669 26.4659 20.6772 26.423 20.7848 26.3708C20.7554 26.4297 20.7247 26.4878 20.6926 26.5455V26.5453ZM7.8979 15.3044C7.92921 15.489 7.98322 15.7126 8.07442 15.9524C8.08787 15.9877 8.10216 16.0232 8.11729 16.0592C8.22362 16.3119 8.37262 16.578 8.58172 16.8332C8.6372 16.9009 8.69604 16.9678 8.76013 17.0334C8.95914 17.2235 9.18779 17.403 9.44963 17.5604C9.52928 17.6085 9.6106 17.6532 9.69319 17.695C10.2721 17.9885 10.9236 18.1354 11.6425 18.1354C12.1082 18.1354 12.6021 18.0736 13.1228 17.95C13.2018 17.9312 13.2815 17.9113 13.3617 17.8898L13.5328 17.8436L13.7047 17.7972C13.8352 17.7619 13.8724 17.5957 13.7692 17.509L13.7596 17.5008L13.4977 17.2805C13.4965 17.2795 13.4593 17.2477 13.3973 17.1896C13.3506 17.1459 13.2905 17.0876 13.2191 17.014H13.239C13.6982 17.014 14.2719 16.9045 14.9017 16.5393C15.0089 16.4772 15.1173 16.4087 15.2274 16.3309C15.2274 16.3309 15.2274 16.3309 15.2279 16.3309H15.2277L15.4971 16.1407C15.6177 16.0556 15.5761 15.8683 15.4307 15.841C14.4362 15.6528 13.9479 15.2473 13.7142 14.9451C13.6761 14.8958 13.6127 14.8987 13.5744 14.9319C13.5515 14.9516 13.5376 14.9821 13.5439 15.0189C13.5658 15.1503 13.6024 15.2981 13.6612 15.4436C13.7497 15.662 13.889 15.8759 14.1099 16.0232C14.1498 16.0475 14.1897 16.0707 14.229 16.0922C14.1918 16.1089 14.1546 16.1244 14.1179 16.1392C14.0107 16.1823 13.9052 16.217 13.8018 16.2448C12.7029 16.5395 11.8266 16.0151 11.3979 15.6712C11.3202 15.6089 11.21 15.6905 11.2489 15.782C11.3103 15.9267 11.3931 16.1012 11.499 16.2826C11.7337 16.6854 12.0819 17.1229 12.5628 17.3474C12.3537 17.3923 12.1534 17.4206 11.9599 17.4364C9.94075 17.6028 8.75194 16.2853 8.21039 15.4545C8.15974 15.3769 8.11414 15.3031 8.07484 15.2356C8.07064 15.2285 8.06517 15.2237 8.05992 15.2181C7.99919 15.1533 7.88108 15.2024 7.89726 15.2992C7.89747 15.3008 7.8979 15.3025 7.89811 15.3042L7.8979 15.3044ZM18.7886 12.7259C18.8483 12.8237 18.9889 12.8387 19.07 12.7564C19.1204 12.7054 19.1686 12.6548 19.2152 12.6046C19.3232 12.4884 19.421 12.3749 19.5103 12.2639C19.6153 12.1333 19.7082 12.0064 19.7898 11.8835C20.4965 10.8187 20.3689 10.0543 20.2702 9.75564C20.2435 9.67412 20.1571 9.62437 20.0699 9.64067C19.6916 9.71112 19.3283 9.83381 19.0011 9.97302C18.888 10.0211 18.7794 10.0711 18.676 10.1216C18.5642 10.1764 18.4587 10.2314 18.3608 10.2855C18.0773 10.4419 17.8556 10.5878 17.7263 10.6776C17.653 10.7291 17.632 10.8252 17.6778 10.9007L18.7884 12.7261L18.7886 12.7259ZM4.27284 10.6774C4.14212 10.5863 3.91727 10.4383 3.62936 10.2803C3.53122 10.2264 3.42573 10.1716 3.31414 10.117C3.21054 10.0665 3.10189 10.0169 2.98862 9.96884C2.66394 9.83151 2.30396 9.71028 1.92947 9.64046C1.84226 9.62416 1.7561 9.67391 1.7292 9.75543C1.63106 10.0529 1.50392 10.812 2.20057 11.8697C2.28189 11.9932 2.37457 12.1207 2.47985 12.2522C2.56875 12.3632 2.66625 12.4769 2.77406 12.5931C2.82386 12.6471 2.87514 12.7012 2.92936 12.7562C3.01048 12.8385 3.15086 12.8235 3.21054 12.7257L4.32117 10.9003C4.36698 10.825 4.34597 10.7286 4.27263 10.6774H4.27284ZM9.46749 26.2274V26.227C9.66104 26.1465 10.0593 26.0441 10.4218 26.3509C10.4731 26.3944 10.5357 26.3231 10.5128 26.2474C10.4419 26.0133 10.2801 25.6994 9.9212 25.6996C9.59757 25.6996 9.45425 25.9375 9.39268 26.1103C9.36914 26.1764 9.41559 26.2487 9.4677 26.2272L9.46749 26.2274ZM11.5351 26.3509C11.8974 26.0441 12.2957 26.1465 12.4892 26.227V26.2274C12.5413 26.2489 12.588 26.1766 12.5642 26.1105C12.5027 25.9377 12.3593 25.6998 12.0357 25.6998C11.6768 25.6998 11.515 26.0136 11.4441 26.2477C11.4212 26.3233 11.4839 26.3946 11.5351 26.3511V26.3509Z" fill="#06234C"/>
</g>
</g>
<defs>
<clipPath id="clip0_911_88">
<rect width="22" height="36" fill="white"/>
</clipPath>
</defs>
</svg>