<svg width="386" height="174" viewBox="0 0 386 174" fill="none" xmlns="http://www.w3.org/2000/svg">
<path d="M155.765 23.4H184.365V128.4C184.365 143.2 175.899 150.6 158.965 150.6H132.165C115.365 150.6 106.965 143.2 106.965 128.4V23.4H135.565V124.6C135.565 127.933 137.299 129.6 140.765 129.6H150.365C153.965 129.6 155.765 127.933 155.765 124.6V23.4Z" fill="white"/>
<path d="M204.487 23.4H257.487C274.42 23.4 282.887 30.7334 282.887 45.4V128.4C282.887 143.2 274.42 150.6 257.487 150.6H204.487V23.4ZM254.287 126V48C254.287 44.6667 252.487 43 248.887 43H233.087V131H248.887C252.487 131 254.287 129.333 254.287 126Z" fill="white"/>
<path d="M345.357 124.6V101.6C345.357 99.8667 344.957 98.6667 344.157 98C343.357 97.2 341.957 96.8 339.957 96.8H322.357C306.624 96.8 298.757 89.3334 298.757 74.4V45.4C298.757 30.7334 307.157 23.4 323.957 23.4H348.357C365.157 23.4 373.557 30.7334 373.557 45.4V62H344.957V49.4C344.957 46.0667 343.157 44.4 339.557 44.4H332.757C329.157 44.4 327.357 46.0667 327.357 49.4V71.8C327.357 73.5334 327.757 74.8 328.557 75.6C329.357 76.2667 330.757 76.6 332.757 76.6H349.957C358.491 76.6 364.624 78.4667 368.357 82.2C372.091 85.8 373.957 91.2 373.957 98.4V128.4C373.957 143.2 365.557 150.6 348.757 150.6H324.557C307.624 150.6 299.157 143.2 299.157 128.4V112H327.757V124.6C327.757 127.933 329.557 129.6 333.157 129.6H339.957C343.557 129.6 345.357 127.933 345.357 124.6Z" fill="white"/>
<path d="M46.0987 127.96L40.2886 141.642L39.3046 155.117H52.785L55.4091 153.639L63.0076 153.904L63.1244 157.497H77.2474L78.2629 153.904H88.9304C88.9304 153.904 85.9422 127.632 80.8422 124.12C61.4798 137.271 46.0942 127.973 46.0942 127.973" fill="white"/>
<path d="M81.1018 143.299L81.8881 153.311H78.1451L81.1018 143.299Z" fill="#2494D1"/>
<path d="M44.0948 131.733C44.0948 131.733 55.8138 138.731 69.8648 131.733C81.0985 126.15 46.0989 127.96 46.0989 127.96L44.0948 131.733Z" fill="#2494D1"/>
<path d="M89.0157 159.442H77.5618L78.2583 153.886H88.9303C88.9303 153.886 89.0426 157.632 89.0247 159.442" fill="#EB2126"/>
<path d="M89.0148 161.234H77.561C77.3057 161.236 77.0529 161.184 76.8194 161.08C76.586 160.977 76.3773 160.825 76.2073 160.634C76.0372 160.444 75.9097 160.219 75.8332 159.976C75.7567 159.732 75.733 159.475 75.7636 159.222L76.4736 153.684C76.5286 153.247 76.742 152.846 77.0733 152.556C77.4046 152.266 77.8307 152.108 78.271 152.112H88.9294C89.3962 152.112 89.8447 152.293 90.1802 152.617C90.5156 152.942 90.7116 153.384 90.7268 153.85C90.7268 153.85 90.8392 157.645 90.8212 159.478C90.8106 159.949 90.6153 160.397 90.2774 160.726C89.9396 161.054 89.4861 161.237 89.0148 161.234ZM79.5786 157.641H87.2174C87.2174 156.972 87.1905 156.293 87.177 155.674H79.8437L79.5786 157.641Z" fill="#144A8F"/>
<path d="M85.1116 125.48C85.1116 125.48 93.0425 115.001 105.485 117.921C117.927 120.84 121.176 113.465 121.176 113.465C121.176 113.465 114.993 136.085 99.1581 129.846C99.1581 129.846 101.589 131.885 103.831 133.848C99.0817 137.258 94.7725 139.283 86.2484 134.154" fill="#2494D1"/>
<path d="M84.8005 126.19C84.8005 126.19 92.0754 115.504 102.262 117.885C112.449 120.265 118.587 117.75 118.587 117.75C118.587 117.75 111.496 132.267 100.164 125.557C98.191 124.146 95.5489 124.461 94.2593 126.257C92.9696 128.054 93.5223 130.659 95.495 132.07C92.5113 133.278 88.5391 131.737 86.4092 130.318" fill="white"/>
<path d="M49.3865 129.478C49.3865 129.478 50.6312 126.275 46.1018 127.96C41.5723 129.644 38.6471 155.175 38.6471 155.175H40.6781C41.7925 155.175 44.0303 154.964 43.9539 153.854C43.9539 153.854 44.0932 146.308 44.6189 142.099C45.6704 138.232 49.3865 129.478 49.3865 129.478Z" fill="#2494D1"/>
<path d="M103.869 69.1411C103.869 93.5265 84.4262 131.737 60.4446 131.737C36.463 131.737 17.0333 93.5265 17.0333 69.1411C17.0333 44.7556 36.4765 35.0042 60.4581 35.0042C84.4397 35.0042 103.883 44.7736 103.883 69.1411" fill="white"/>
<path d="M60.4469 133.53C35.4857 133.53 15.2382 94.5685 15.2382 69.141C15.2382 46.2963 31.7202 33.2075 60.4604 33.2075C89.2005 33.2075 105.678 46.3142 105.678 69.141C105.665 94.5685 85.408 133.53 60.4469 133.53ZM60.4469 36.7784C47.9281 36.7784 18.815 39.9225 18.815 69.141C18.815 92.5967 37.8672 129.945 60.4469 129.945C83.0265 129.945 102.079 92.5967 102.079 69.141C102.079 39.9315 72.9612 36.7784 60.4469 36.7784Z" fill="#144A8F"/>
<path d="M23.2455 65.076C23.2455 65.076 18.9767 65.7587 16.8782 64.8873C14.0564 63.715 18.6397 60.1935 18.6397 60.1935L23.2455 65.076Z" fill="#2494D1"/>
<path d="M70.8881 60.5259C70.8881 65.9609 67.2933 67.7755 60.5531 70.3358C52.9142 70.3358 37.5061 65.9609 37.5061 60.5259C37.5061 55.091 54.3296 50.6801 61.9685 50.6801C69.6074 50.6801 70.8746 55.0865 70.8746 60.5259" fill="#2494D1"/>
<path d="M67.002 109.467C67.002 109.467 64.6294 99.5857 72.0616 96.2664C70.6551 100.066 67.7569 108.313 69.5722 111.224C71.3876 114.134 67.002 109.467 67.002 109.467Z" fill="#2494D1"/>
<path d="M60.4469 133.53C35.4857 133.53 15.2382 94.5685 15.2382 69.141C15.2382 46.2963 31.7202 33.2075 60.4604 33.2075C89.2005 33.2075 105.678 46.3142 105.678 69.141C105.665 94.5685 85.408 133.53 60.4469 133.53ZM60.4469 36.7784C47.9281 36.7784 18.815 39.9225 18.815 69.141C18.815 92.5967 37.8672 129.945 60.4469 129.945C83.0265 129.945 102.079 92.5967 102.079 69.141C102.079 39.9315 72.9612 36.7784 60.4469 36.7784Z" fill="#144A8F"/>
<path d="M46.5482 77.6752C46.5482 77.6752 48.9747 88.006 65.1961 89.5557C66.2835 89.659 66.9261 88.325 66.3419 87.4042C65.578 86.1959 63.1426 84.2375 63.1066 82.634C66.7014 83.0517 72.5429 84.7945 75.6164 83.1326C75.8273 83.0169 76.0017 82.8449 76.1202 82.6357C76.2387 82.4265 76.2965 82.1884 76.2872 81.9482C76.2779 81.7079 76.2017 81.4751 76.0674 81.2757C75.933 81.0763 75.7457 80.9183 75.5265 80.8193C73.5359 79.921 73.6348 76.5702 72.7136 74.8544" fill="#2494D1"/>
<path d="M47.0278 74.3918C47.0278 74.3918 48.4253 85.7783 68.6279 84.3095C67.4282 82.7553 66.152 81.0889 66.0981 78.8251C70.1063 79.2743 75.1704 79.3956 77.7227 76.4086C75.3412 75.9908 72.672 74.1627 71.5666 72.092" fill="white"/>
<path d="M65.1153 86.2364C46.8854 86.2364 45.3037 75.1105 45.2407 74.6119C45.2133 74.1566 45.3602 73.7078 45.6515 73.3567C45.9429 73.0057 46.357 72.7785 46.8097 72.7213C47.2625 72.6642 47.72 72.7814 48.0896 73.049C48.4591 73.3167 48.7129 73.7149 48.7996 74.1627C48.858 74.5625 50.251 82.6521 65.1198 82.6521H65.3265C64.688 81.4909 64.3353 80.1945 64.2975 78.87C64.2944 78.617 64.3449 78.3661 64.4456 78.1339C64.5462 77.9017 64.6948 77.6933 64.8817 77.5225C65.072 77.3512 65.2967 77.2225 65.5408 77.145C65.7849 77.0675 66.0428 77.0431 66.2971 77.0734C69.5324 77.4507 72.0218 77.3653 73.8191 76.8128C72.2264 75.8883 70.9022 74.5646 69.9772 72.9724C69.8087 72.562 69.7981 72.1037 69.9474 71.6858C70.0967 71.268 70.3954 70.9201 70.786 70.7093C71.1766 70.4985 71.6314 70.4396 72.0628 70.5439C72.4942 70.6483 72.8717 70.9086 73.1227 71.2746C73.9495 72.8197 76.1423 74.3469 78.0071 74.6748C78.3174 74.731 78.6075 74.8679 78.8482 75.0717C79.0889 75.2755 79.2717 75.539 79.3783 75.8358C79.4848 76.1325 79.5114 76.4521 79.4553 76.7624C79.3991 77.0727 79.2623 77.3627 79.0585 77.6034C76.4928 80.6128 72.1701 81.0575 68.4045 80.8599C68.867 81.7043 69.4086 82.5029 70.0222 83.245C70.2189 83.5018 70.3426 83.807 70.3803 84.1283C70.4179 84.4496 70.368 84.7751 70.236 85.0705C70.1039 85.3658 69.8945 85.62 69.6299 85.8063C69.3652 85.9925 69.0552 86.1039 68.7326 86.1286C67.4714 86.2035 66.2656 86.2394 65.1153 86.2364Z" fill="#144A8F"/>
<path d="M73.8583 58.5272C73.8583 62.0757 67.855 68.6021 60.4453 68.6021C53.0356 68.6021 47.0278 62.0757 47.0278 58.5272C47.0278 54.9788 52.3975 9.79681 59.8117 9.79681C67.226 9.79681 73.8583 54.9833 73.8583 58.5272Z" fill="white"/>
<path d="M60.4471 70.3986C52.1971 70.3986 45.2367 63.1086 45.2367 58.5271C45.2367 58.0106 49.7706 8 59.8135 8C69.9777 8 75.6574 58.024 75.6574 58.5271C75.6574 63.1086 68.7105 70.3986 60.4471 70.3986ZM59.8135 11.5889C55.2077 11.5889 48.827 51.4661 48.827 58.5271C48.827 60.9302 53.8551 66.8098 60.4471 66.8098C67.039 66.8098 72.0671 60.9302 72.0671 58.5271C72.0671 56.9281 70.4135 44.8095 67.8613 33.2209C63.224 12.1952 59.8449 11.5889 59.8135 11.5889Z" fill="#144A8F"/>
<path d="M68.5067 122.089C68.6954 123.041 67.1317 122.04 65.514 122.359C63.8964 122.678 62.8179 124.2 62.6472 123.257C62.4764 122.314 63.429 120.324 65.0467 120C66.6643 119.677 68.3179 121.141 68.5067 122.098" fill="#144A8F"/>
<path d="M52.5325 122.089C52.3438 123.041 53.9075 122.04 55.5251 122.359C57.1428 122.678 58.2212 124.2 58.392 123.257C58.5627 122.314 57.6101 120.324 55.9924 120C54.3748 119.677 52.7212 121.141 52.5325 122.098" fill="#144A8F"/>
<path d="M35.4567 43.8707C35.4567 43.8707 24.8522 38.6244 15.0474 39.2532C11.565 49.3281 15.5552 59.4029 23.1357 63.3287" fill="white"/>
<path d="M23.1142 65.1255C22.8265 65.1242 22.5432 65.0549 22.2874 64.9233C13.5836 60.4002 9.7417 49.1126 13.3499 38.6649C13.4659 38.3309 13.6778 38.0386 13.9592 37.8245C14.2405 37.6104 14.5788 37.484 14.9316 37.4611C25.1228 36.7873 35.8038 42.0381 36.2531 42.2627C36.6526 42.489 36.9504 42.8595 37.0852 43.2983C37.2201 43.737 37.1818 44.2107 36.9783 44.6222C36.7748 45.0337 36.4214 45.3517 35.9908 45.5109C35.5602 45.6702 35.0849 45.6587 34.6624 45.4788C34.5681 45.4338 25.2262 40.8972 16.3785 40.9871C13.988 49.4315 17.12 58.1948 23.941 61.7387C24.2958 61.9253 24.578 62.225 24.7428 62.5903C24.9075 62.9556 24.9454 63.3655 24.8504 63.7548C24.7553 64.144 24.5329 64.4904 24.2183 64.7388C23.9037 64.9871 23.5151 65.1232 23.1142 65.1255Z" fill="#144A8F"/>
<path d="M18.495 45.9774C18.2568 47.4776 18.5624 53.757 24.1522 58.1544C24.1967 58.2018 24.2565 58.2318 24.3211 58.2391C24.3856 58.2464 24.4507 58.2306 24.5046 58.1945C24.5586 58.1583 24.5979 58.1042 24.6157 58.0418C24.6335 57.9793 24.6285 57.9126 24.6016 57.8535C24.2493 56.8809 24.0184 55.8686 23.9141 54.8395C23.9096 54.779 23.9223 54.7185 23.9507 54.6649C23.979 54.6112 24.0219 54.5666 24.0743 54.5362C24.1268 54.5057 24.1868 54.4907 24.2475 54.4927C24.3081 54.4947 24.367 54.5137 24.4173 54.5476C24.9296 54.8934 25.5587 55.136 26.7764 54.88C26.8673 54.8603 26.9523 54.8196 27.0245 54.7611C27.0968 54.7026 27.1542 54.6279 27.1923 54.5431C27.2303 54.4583 27.2479 54.3657 27.2435 54.2729C27.2392 54.18 27.2131 54.0895 27.1673 54.0086C26.8929 53.6009 26.702 53.1429 26.6057 52.6611C26.5937 52.5793 26.5999 52.4959 26.6239 52.4169C26.6478 52.3378 26.689 52.265 26.7444 52.2036C26.7997 52.1423 26.8679 52.0939 26.9442 52.0619C27.0204 52.03 27.1027 52.0152 27.1853 52.0188C29.3152 52.0951 30.9778 52.3601 32.3079 51.4079" fill="#2494D1"/>
<path d="M31.5403 50.0602C27.863 48.3402 23.9782 47.1037 19.9831 46.3815L31.5403 50.0602Z" fill="white"/>
<path d="M31.5407 51.8526C31.2652 51.851 30.9935 51.788 30.7454 51.6684C27.2237 50.027 23.5056 48.845 19.6825 48.1514C19.2288 48.0548 18.8301 47.7867 18.5697 47.403C18.3093 47.0194 18.2073 46.55 18.285 46.093C18.3628 45.6359 18.6143 45.2266 18.9869 44.9506C19.3596 44.6746 19.8245 44.5532 20.2846 44.6119C24.4525 45.3596 28.5043 46.6507 32.336 48.4523C32.6957 48.634 32.9838 48.9312 33.1542 49.2962C33.3246 49.6612 33.3674 50.0728 33.2756 50.465C33.1839 50.8572 32.963 51.2072 32.6484 51.4589C32.3337 51.7105 31.9436 51.8491 31.5407 51.8526Z" fill="#144A8F"/>
<path d="M85.4302 43.8707C85.4302 43.8707 96.0393 38.6244 105.844 39.2532C109.326 49.3281 105.336 59.4029 97.7558 63.3287" fill="white"/>
<path d="M97.7787 65.1254C97.3775 65.1242 96.9882 64.9888 96.6728 64.7408C96.3575 64.4927 96.1342 64.1464 96.0386 63.7569C95.943 63.3673 95.9806 62.957 96.1452 62.5913C96.3099 62.2255 96.5923 61.9254 96.9474 61.7387C103.76 58.1947 106.905 49.4314 104.514 40.996C95.6129 40.8523 86.3249 45.4338 86.235 45.4787C85.8126 45.6587 85.3373 45.6702 84.9066 45.5109C84.476 45.3516 84.1227 45.0336 83.9191 44.6222C83.7156 44.2107 83.6774 43.737 83.8122 43.2982C83.9471 42.8595 84.2448 42.4889 84.6443 42.2627C85.0937 42.0426 95.8016 36.8097 105.97 37.461C106.323 37.4839 106.661 37.6103 106.943 37.8244C107.224 38.0386 107.436 38.3309 107.552 38.6648C111.147 49.1125 107.318 60.4001 98.61 64.9233C98.3532 65.0566 98.068 65.1259 97.7787 65.1254Z" fill="#144A8F"/>
<path d="M102.41 45.9774C102.648 47.4776 102.343 53.757 96.753 58.1544C96.7086 58.2018 96.6487 58.2318 96.5842 58.2391C96.5197 58.2464 96.4546 58.2306 96.4007 58.1945C96.3467 58.1583 96.3073 58.1042 96.2896 58.0418C96.2718 57.9793 96.2768 57.9126 96.3037 57.8535C96.6539 56.8803 96.8848 55.8683 96.9912 54.8395C96.9956 54.779 96.983 54.7185 96.9546 54.6649C96.9263 54.6112 96.8834 54.5666 96.8309 54.5362C96.7784 54.5057 96.7185 54.4907 96.6578 54.4927C96.5971 54.4947 96.5383 54.5137 96.4879 54.5476C95.9757 54.8934 95.3466 55.136 94.1289 54.88C94.038 54.8603 93.953 54.8196 93.8808 54.7611C93.8085 54.7026 93.7511 54.6279 93.713 54.5431C93.675 54.4583 93.6574 54.3657 93.6617 54.2729C93.6661 54.18 93.6922 54.0895 93.7379 54.0086C94.0105 53.5999 94.2013 53.1423 94.2996 52.6611C94.3116 52.5793 94.3054 52.4959 94.2814 52.4169C94.2574 52.3378 94.2163 52.265 94.1609 52.2036C94.1056 52.1423 94.0373 52.0939 93.9611 52.0619C93.8849 52.03 93.8025 52.0152 93.72 52.0188C91.5901 52.0951 89.9275 52.3601 88.5974 51.4079" fill="#2494D1"/>
<path d="M89.348 50.0602C93.0267 48.3398 96.913 47.1032 100.91 46.3815L89.348 50.0602Z" fill="white"/>
<path d="M89.3523 51.8526C88.949 51.8501 88.5582 51.7122 88.2428 51.4609C87.9274 51.2096 87.7057 50.8596 87.6134 50.4672C87.5211 50.0747 87.5635 49.6626 87.7338 49.2972C87.9041 48.9317 88.1925 48.6342 88.5524 48.4523C92.387 46.6499 96.4418 45.3587 100.613 44.6119C101.073 44.5532 101.538 44.6746 101.911 44.9506C102.283 45.2266 102.535 45.6359 102.612 46.093C102.69 46.55 102.588 47.0194 102.328 47.403C102.067 47.7867 101.669 48.0548 101.215 48.1514C97.3905 48.8455 93.671 50.0275 90.1476 51.6684C89.8995 51.7882 89.6278 51.8511 89.3523 51.8526Z" fill="#144A8F"/>
<path d="M95.9717 106.189C91.4019 116.07 82.4059 121.631 75.8769 118.617C69.3479 115.603 67.7618 105.142 72.3271 95.2603C76.8925 85.3786 85.8929 79.8134 92.4219 82.8318C98.9509 85.8502 100.542 96.3069 95.9717 106.189Z" fill="white"/>
<path d="M79.7045 121.236C78.1241 121.243 76.5612 120.904 75.1257 120.243C71.4006 118.523 68.9292 114.808 68.1653 109.782C67.4419 105.03 68.3451 99.6038 70.6996 94.5102C75.6784 83.7301 85.7662 77.7831 93.1669 81.2058C100.568 84.6284 102.567 96.1766 97.593 106.939C95.2339 112.032 91.6841 116.232 87.5951 118.761C84.9484 120.405 82.2523 121.236 79.7045 121.236ZM88.6465 83.8199C83.4925 83.8199 77.3365 88.7069 73.9574 96.0149C71.8949 100.48 71.0951 105.178 71.7107 109.243C72.2858 113.038 74.0338 115.792 76.6265 116.987C79.2192 118.181 82.468 117.732 85.7123 115.711C89.2082 113.546 92.2727 109.899 94.3352 105.434C98.4108 96.6213 97.1886 87.018 91.6661 84.4622C90.7184 84.031 89.6878 83.8118 88.6465 83.8199Z" fill="#144A8F"/>
<path d="M86.7913 100.704C86.7922 102.235 86.339 103.731 85.489 105.005C84.639 106.278 83.4304 107.27 82.016 107.857C80.6017 108.444 79.045 108.598 77.543 108.3C76.041 108.002 74.6611 107.266 73.5777 106.184C72.4943 105.103 71.7561 103.724 71.4565 102.223C71.1569 100.722 71.3093 99.1657 71.8945 97.7512C72.4796 96.3367 73.4713 95.1274 74.744 94.2763C76.0167 93.4251 77.5133 92.9704 79.0446 92.9695C81.0968 92.9707 83.0647 93.7858 84.5162 95.236C85.9678 96.6861 86.7844 98.6528 86.7868 100.704" fill="#144A8F"/>
<path d="M24.9202 106.189C29.4856 116.07 38.4815 121.631 45.0105 118.617C51.5395 115.603 53.1302 105.142 48.5603 95.2603C43.9905 85.3785 35.008 79.8178 28.4655 82.8362C21.9231 85.8546 20.3504 96.3113 24.9202 106.193" fill="white"/>
<path d="M41.1827 121.236C38.6349 121.236 35.9389 120.405 33.2877 118.761C29.1987 116.232 25.6488 112.023 23.2898 106.939C18.3155 96.1585 20.2971 84.6328 27.7158 81.2056C35.1345 77.7784 45.2134 83.7479 50.1831 94.51C52.5377 99.6036 53.4364 105.03 52.7129 109.782C51.9491 114.808 49.4776 118.523 45.7571 120.243C44.3229 120.903 42.7617 121.242 41.1827 121.236ZM32.2452 83.8198C31.2024 83.8106 30.1701 84.0298 29.2211 84.4621C23.6987 87.0179 22.4809 96.6211 26.5475 105.434C28.61 109.899 31.6746 113.546 35.175 115.711C38.4417 117.75 41.668 118.199 44.2607 116.986C46.8535 115.774 48.5969 113.038 49.1766 109.243C49.7922 105.178 48.9969 100.479 46.9299 96.0147C43.5463 88.7067 37.3992 83.8198 32.2452 83.8198Z" fill="#144A8F"/>
<path d="M24.9202 106.189C29.4856 116.07 38.4815 121.631 45.0105 118.617C51.5395 115.603 53.1302 105.142 48.5603 95.2603C43.9905 85.3785 35.008 79.8178 28.4655 82.8362C21.9231 85.8546 20.3504 96.3113 24.9202 106.193" fill="white"/>
<path d="M41.1827 121.236C38.6349 121.236 35.9389 120.405 33.2877 118.761C29.1987 116.232 25.6488 112.023 23.2898 106.939C18.3155 96.1585 20.2971 84.6328 27.7158 81.2056C35.1345 77.7784 45.2134 83.7479 50.1831 94.51C52.5377 99.6036 53.4364 105.03 52.7129 109.782C51.9491 114.808 49.4776 118.523 45.7571 120.243C44.3229 120.903 42.7617 121.242 41.1827 121.236ZM32.2452 83.8198C31.2024 83.8106 30.1701 84.0298 29.2211 84.4621C23.6987 87.0179 22.4809 96.6211 26.5475 105.434C28.61 109.899 31.6746 113.546 35.175 115.711C38.4417 117.75 41.668 118.199 44.2607 116.986C46.8535 115.774 48.5969 113.038 49.1766 109.243C49.7922 105.178 48.9969 100.479 46.9299 96.0147C43.5463 88.7067 37.3992 83.8198 32.2452 83.8198Z" fill="#144A8F"/>
<path d="M34.1102 100.704C34.1093 102.235 34.5627 103.732 35.4128 105.005C36.263 106.278 37.4719 107.271 38.8865 107.857C40.3012 108.444 41.858 108.598 43.3601 108.3C44.8623 108.002 46.2422 107.265 47.3255 106.183C48.4087 105.101 49.1465 103.722 49.4456 102.22C49.7447 100.719 49.5916 99.1625 49.0058 97.748C48.4199 96.3336 47.4276 95.1247 46.1543 94.2741C44.881 93.4235 43.3839 92.9695 41.8525 92.9695C39.7999 92.9695 37.8313 93.7842 36.3795 95.2347C34.9276 96.6851 34.1114 98.6524 34.1102 100.704Z" fill="#144A8F"/>
<path d="M49.6171 100.704C49.618 102.235 49.1646 103.732 48.3142 105.006C47.4638 106.279 46.2547 107.272 44.8398 107.858C43.4249 108.444 41.8678 108.598 40.3655 108.299C38.8633 108.001 37.4833 107.264 36.4003 106.181C35.3172 105.098 34.5798 103.719 34.2812 102.217C33.9826 100.716 34.1363 99.1593 34.7228 97.7449C35.3094 96.3306 36.3024 95.122 37.5763 94.2719C38.8502 93.4218 40.3477 92.9686 41.8794 92.9695C43.9312 92.9707 45.8986 93.786 47.3495 95.2362C48.8003 96.6865 49.6159 98.6532 49.6171 100.704Z" fill="#144A8F"/>
<path d="M49.5727 96.6393C49.5727 97.5277 49.3092 98.3961 48.8155 99.1347C48.3217 99.8734 47.6199 100.449 46.7989 100.789C45.9778 101.129 45.0743 101.218 44.2027 101.045C43.331 100.871 42.5303 100.444 41.9019 99.8154C41.2735 99.1872 40.8455 98.3869 40.6722 97.5156C40.4988 96.6443 40.5878 95.7411 40.9279 94.9204C41.268 94.0996 41.8439 93.3981 42.5828 92.9046C43.3218 92.411 44.1906 92.1476 45.0793 92.1476C46.271 92.1476 47.414 92.6208 48.2566 93.4632C49.0993 94.3055 49.5727 95.448 49.5727 96.6393Z" fill="white"/>
<path d="M51.0674 117.934C49.9456 119.326 49.3862 121.087 49.4993 122.87C49.6124 124.654 50.3899 126.33 51.6785 127.569C53.5657 129.366 57.6952 130.43 59.8116 130.614C59.8116 130.614 44.3811 129.599 39.1866 121.99C41.4334 119.673 47.2749 116.519 49.0183 114.296C50.7618 112.073 54.4599 107.752 56.9223 109.917" fill="#2494D1"/>
<path d="M54.4693 109.342C54.4693 109.342 57.417 92.5607 44.6151 87.759C47.3741 93.9711 53.0853 107.482 50.3488 112.549C47.6123 117.615 54.4693 109.342 54.4693 109.342Z" fill="#2494D1"/>
<path d="M60.4368 133.529C51.8319 133.529 43.1774 128.925 35.4038 120.22C35.2688 120.065 35.1596 119.889 35.0802 119.699C30.4609 117.481 26.0933 112.962 23.2894 106.943C18.3151 96.163 20.3012 84.6328 27.7154 81.2056C31.436 79.4853 35.8711 80.0108 40.1938 82.6879C44.2873 85.2167 47.8327 89.4254 50.1917 94.51C52.5014 99.5093 53.3102 104.679 52.771 109.126C54.9061 107.141 57.7276 106.061 60.6426 106.112C63.5577 106.163 66.3395 107.342 68.4037 109.4L74.7934 115.751C75.0957 116.093 75.2563 116.538 75.2427 116.994C75.2292 117.45 75.0425 117.884 74.7205 118.208C74.3985 118.531 73.9654 118.72 73.5091 118.736C73.0528 118.752 72.6075 118.594 72.2636 118.294L65.8694 111.938C64.43 110.504 62.4805 109.698 60.4481 109.698C58.4157 109.698 56.4661 110.504 55.0267 111.938L48.7763 118.159C48.7196 118.213 48.6596 118.264 48.5966 118.312C47.7664 119.109 46.8098 119.763 45.7657 120.247C44.3901 120.875 42.8968 121.205 41.3846 121.213C46.233 125.705 52.8024 129.945 60.4368 129.945C60.9135 129.945 61.3707 130.134 61.7078 130.471C62.0449 130.808 62.2342 131.265 62.2342 131.742C62.2342 132.218 62.0449 132.675 61.7078 133.012C61.3707 133.349 60.9135 133.538 60.4368 133.538V133.529ZM26.5471 105.434C30.6946 114.417 38.6301 119.587 44.2604 116.986C49.7828 114.435 51.0006 104.832 46.9564 96.0147C44.8939 91.5545 41.8294 87.9027 38.329 85.7377C35.0623 83.7165 31.8359 83.2673 29.2432 84.4621C23.7208 87.0134 22.503 96.6211 26.5696 105.434H26.5471Z" fill="#144A8F"/>
<path d="M95.3959 138.601C92.6999 138.601 89.869 137.873 86.8584 136.427C86.449 136.209 86.1395 135.842 85.9945 135.402C85.8495 134.962 85.8803 134.483 86.0804 134.065C86.2805 133.646 86.6345 133.322 87.0683 133.159C87.5022 132.995 87.9824 133.006 88.4086 133.188C94.1018 135.91 97.9348 135.2 100.873 133.637C99.3232 132.29 98.0471 131.234 98.0426 131.234C97.7238 130.959 97.5118 130.581 97.4435 130.165C97.3752 129.75 97.455 129.324 97.669 128.961C97.883 128.599 98.2176 128.323 98.6144 128.182C99.0112 128.04 99.4449 128.043 99.84 128.189C103.206 129.536 106.207 129.482 109.011 128.081C112.556 126.311 115.127 122.664 116.834 119.399C114.138 120.454 110.323 120.908 105.075 119.682C93.9715 117.076 86.8404 126.195 86.5438 126.585C86.249 126.944 85.8265 127.176 85.365 127.23C84.9034 127.284 84.4387 127.158 84.0684 126.877C83.698 126.597 83.4508 126.183 83.3787 125.724C83.3066 125.266 83.4151 124.797 83.6815 124.416C84.0365 123.967 92.4707 113.043 105.897 116.187C116.596 118.693 119.427 112.975 119.544 112.733C119.734 112.325 120.07 112.003 120.486 111.831C120.902 111.658 121.368 111.649 121.791 111.803C122.21 111.958 122.557 112.264 122.763 112.661C122.969 113.058 123.02 113.518 122.905 113.95C122.761 114.48 119.265 126.976 110.62 131.284C108.943 132.135 107.106 132.626 105.228 132.725C105.382 132.915 105.497 133.135 105.563 133.37C105.63 133.606 105.648 133.852 105.616 134.095C105.584 134.338 105.503 134.571 105.377 134.781C105.252 134.992 105.085 135.174 104.886 135.317C101.831 137.514 98.7121 138.601 95.3959 138.601Z" fill="#144A8F"/>
<path d="M54.0027 156.401H39.3046V162.483H54.0027V156.401Z" fill="#EB2126"/>
<path d="M76.7705 159.128H62.0769V165.209H76.7705V159.128Z" fill="#EB2126"/>
<path d="M69.1817 166C68.705 166 68.2479 165.811 67.9108 165.474C67.5737 165.137 67.3843 164.68 67.3843 164.203V161.724C67.3843 161.247 67.5737 160.79 67.9108 160.453C68.2479 160.117 68.705 159.927 69.1817 159.927C69.6584 159.927 70.1156 160.117 70.4527 160.453C70.7898 160.79 70.9791 161.247 70.9791 161.724V164.203C70.9791 164.68 70.7898 165.137 70.4527 165.474C70.1156 165.811 69.6584 166 69.1817 166Z" fill="#144A8F"/>
<path d="M39.5602 155.741C39.5602 155.741 41.5912 155.741 43.155 155.651C43.6492 155.629 44.0042 156.293 43.8155 156.904C43.092 159.267 43.7166 161.176 43.1684 161.913C42.5124 162.779 38.8502 161.436 38.8502 161.436L39.5602 155.741Z" fill="#A62126"/>
<path d="M61.8656 158.719C61.8656 158.719 63.8787 158.454 65.4199 158.18C65.9052 158.094 66.3186 158.71 66.2287 159.339C65.8109 161.773 66.6781 163.588 66.2287 164.387C65.685 165.335 61.8836 164.459 61.8836 164.459L61.8656 158.719Z" fill="#A62126"/>
<path d="M53.7376 56.2587C53.7376 56.2587 61.2597 62.583 66.4047 61.1995C69.5142 60.3596 66.2295 67.0387 54.1735 65.3633C41.6277 63.6116 48.1298 50.8237 48.1298 50.8237L53.7376 56.2587Z" fill="#EB2126"/>
<path d="M55.3852 43.1564C56.2479 45.1956 62.8039 48.2769 67.3647 48.0164C67.6662 47.9951 67.966 48.0756 68.2162 48.245C68.4664 48.4144 68.6523 48.663 68.7442 48.9507C69.8361 52.4812 69.8721 56.5462 68.9554 58.1811C68.0567 59.7442 48.0428 56.0611 47.9575 47.6256C47.8721 39.1902 51.2512 39.024 51.2512 39.024L55.3852 43.1564Z" fill="#EB2126"/>
<path d="M55.5168 29.0571C56.1953 31.002 61.3224 34.0923 64.7734 34.4023C65.1792 34.4406 65.5652 34.596 65.8843 34.8496C66.2034 35.1032 66.4419 35.444 66.5707 35.8306C67.4694 38.4717 67.7346 41.324 68.1614 43.8753C68.431 45.4743 49.4866 41.9618 49.4147 33.5443C49.3428 25.1269 52.1108 24.9427 52.1108 24.9427L55.5168 29.0571Z" fill="#EB2126"/>
<path d="M66.7778 59.8746C61.0486 59.8746 55.9081 57.4715 54.0253 56.4788C50.5339 54.6282 46.692 51.6772 46.3011 48.9373C46.2597 48.4766 46.3978 48.0177 46.6864 47.6561C46.975 47.2946 47.3921 47.0582 47.8506 46.9963C48.3092 46.9344 48.774 47.0516 49.1483 47.3236C49.5225 47.5957 49.7774 48.0015 49.8599 48.4567C49.9812 49.1619 52.0212 51.4526 56.1822 53.5502C58.4559 54.6956 66.3778 58.1812 72.8799 54.9292C73.092 54.8074 73.3267 54.7303 73.5697 54.7023C73.8127 54.6744 74.0588 54.6964 74.293 54.7668C74.5272 54.8373 74.7446 54.9548 74.9317 55.1122C75.1189 55.2695 75.272 55.4634 75.3816 55.682C75.4913 55.9005 75.5551 56.1391 75.5693 56.3832C75.5835 56.6273 75.5476 56.8717 75.464 57.1014C75.3804 57.3312 75.2508 57.5415 75.083 57.7194C74.9153 57.8974 74.713 58.0392 74.4885 58.1363C72.0897 59.3106 69.4487 59.906 66.7778 59.8746ZM65.7308 46.3995C61.9275 46.3213 58.1997 45.3242 54.8656 43.4933C51.837 41.8898 48.4894 39.3161 48.1614 36.8995C48.1148 36.4367 48.2496 35.9739 48.5375 35.6084C48.8253 35.243 49.2437 35.0033 49.7047 34.9399C50.1656 34.8765 50.6333 34.9942 51.0092 35.2684C51.3851 35.5426 51.6399 35.9518 51.7202 36.4099C51.8864 37.0118 53.8456 39.1499 57.7774 40.942C60.0825 41.9931 65.9734 44.1716 70.8758 41.7101C71.2972 41.5279 71.7724 41.5138 72.2038 41.6707C72.6353 41.8276 72.9904 42.1436 73.1961 42.5538C73.4019 42.9641 73.4429 43.4375 73.3105 43.877C73.1782 44.3165 72.8826 44.6887 72.4845 44.9172C70.3793 45.93 68.0667 46.4376 65.7308 46.3995Z" fill="#144A8F"/>
<path d="M64.7859 26.5148C64.8748 26.8826 64.8184 27.2704 64.6284 27.5976C64.4384 27.9247 64.1294 28.166 63.7658 28.2711C62.37 28.7589 60.9076 29.0301 59.4296 29.0751C54.3296 29.1964 52.2491 23.0068 52.2491 23.0068C52.2491 23.0068 54.2397 11.1263 58.7152 11.2476C60.234 11.288 63.6355 21.7312 64.7859 26.5193" fill="#EB2126"/>
<path d="M60.4461 70.3986C52.1961 70.3986 45.2357 63.1086 45.2357 58.5271C45.2357 58.2217 46.9342 39.379 50.547 24.7989C50.5648 24.6353 50.6056 24.475 50.6683 24.3228C52.951 15.281 55.9796 8 59.8125 8C69.9767 8 75.6564 58.024 75.6564 58.5271C75.6564 63.1086 68.7095 70.3986 60.4461 70.3986ZM53.315 28.9448C50.7851 40.6232 48.8215 54.6193 48.8215 58.5271C48.8215 60.9302 53.8497 66.8098 60.4416 66.8098C67.0335 66.8098 72.0617 60.9302 72.0617 58.5271C72.0617 56.9281 70.4081 44.8095 67.8558 33.2209C67.8019 32.9649 67.7435 32.7133 67.6895 32.4663C64.1846 33.3646 59.9383 32.7358 55.8987 30.5977C54.9946 30.1168 54.1306 29.564 53.315 28.9448ZM54.2361 24.9023C54.7529 25.603 56.5323 27.1481 59.3856 28.2576C61.0572 28.9133 64.0678 29.7757 66.8762 28.9852C62.7557 12.1009 59.8395 11.5934 59.8125 11.5934C58.06 11.5889 56.0515 17.3607 54.2361 24.8978V24.9023Z" fill="#144A8F"/>
<path d="M86.7408 96.6392C86.7408 97.5275 86.4773 98.396 85.9835 99.1346C85.4898 99.8733 84.788 100.449 83.9669 100.789C83.1459 101.129 82.2424 101.218 81.3707 101.045C80.4991 100.871 79.6984 100.443 79.07 99.8153C78.4416 99.1871 78.0136 98.3868 77.8402 97.5154C77.6669 96.6441 77.7559 95.741 78.096 94.9203C78.4361 94.0995 79.012 93.398 79.7509 92.9044C80.4899 92.4109 81.3586 92.1475 82.2474 92.1475C83.4391 92.1475 84.582 92.6207 85.4247 93.463C86.2674 94.3054 86.7408 95.4479 86.7408 96.6392Z" fill="white"/>
<path d="M60.5165 137.963L60.6738 137.576C62.251 137.275 64.5606 138.322 65.1942 139.795L67.2118 145.67C67.4838 146.465 67.5197 147.322 67.3151 148.136L64.983 157.492L64.1068 146.829L60.5165 137.963Z" fill="#2494D1"/>
<path d="M46.3091 164.015C45.8324 164.015 45.3752 163.825 45.0381 163.488C44.7011 163.151 44.5117 162.694 44.5117 162.218V160.012C44.5117 159.536 44.7011 159.079 45.0381 158.742C45.3752 158.405 45.8324 158.216 46.3091 158.216C46.7858 158.216 47.2429 158.405 47.58 158.742C47.9171 159.079 48.1065 159.536 48.1065 160.012V162.218C48.1065 162.694 47.9171 163.151 47.58 163.488C47.2429 163.825 46.7858 164.015 46.3091 164.015ZM52.7797 156.913H39.2993C38.8226 156.913 38.3654 156.724 38.0283 156.387C37.6913 156.05 37.5019 155.593 37.5019 155.117C37.5019 154.64 37.6913 154.183 38.0283 153.846C38.3654 153.509 38.8226 153.32 39.2993 153.32H52.7797C53.2564 153.32 53.7135 153.509 54.0506 153.846C54.3877 154.183 54.577 154.64 54.577 155.117C54.577 155.593 54.3877 156.05 54.0506 156.387C53.7135 156.724 53.2564 156.913 52.7797 156.913Z" fill="#144A8F"/>
<path d="M75.8999 159.276H63.1204C62.6438 159.276 62.1866 159.087 61.8495 158.75C61.5124 158.413 61.3231 157.956 61.3231 157.479C61.3231 157.003 61.5124 156.546 61.8495 156.209C62.1866 155.872 62.6438 155.683 63.1204 155.683H75.8999C76.3766 155.683 76.8338 155.872 77.1708 156.209C77.5079 156.546 77.6973 157.003 77.6973 157.479C77.6973 157.956 77.5079 158.413 77.1708 158.75C76.8338 159.087 76.3766 159.276 75.8999 159.276Z" fill="#144A8F"/>
<path d="M61.6413 140.244C63.2904 141.893 66.1617 146.448 64.9755 147.629C63.7892 148.81 60.0327 147.746 58.397 146.097C56.7614 144.449 56.2177 142.225 57.404 141.044C59.8349 142.046 59.9922 138.596 61.6413 140.244Z" fill="#2494D1"/>
<path d="M52.6178 164.275H38.9038C38.658 164.275 38.4147 164.225 38.189 164.128C37.9634 164.031 37.7601 163.888 37.5917 163.709C37.4235 163.529 37.294 163.317 37.2113 163.085C37.1286 162.853 37.0944 162.607 37.1109 162.362L38.4949 141.516C38.5076 141.34 38.5454 141.168 38.6072 141.004L44.0578 126.482C44.241 126.059 44.5801 125.722 45.0049 125.542C45.4296 125.361 45.9075 125.351 46.3395 125.513C46.7714 125.676 47.1245 125.998 47.3254 126.413C47.5263 126.828 47.5598 127.305 47.4189 127.744L42.0627 142.005L40.8225 160.691H50.8609L51.117 149.102C51.1235 148.865 51.177 148.631 51.2743 148.415L54.4197 141.394C54.5079 141.168 54.6412 140.961 54.8115 140.788C54.9818 140.614 55.1857 140.477 55.4106 140.384C55.6356 140.291 55.8771 140.246 56.1203 140.249C56.3636 140.252 56.6037 140.305 56.8259 140.404C57.0482 140.503 57.2481 140.646 57.4134 140.824C57.5788 141.003 57.7062 141.213 57.7879 141.442C57.8696 141.671 57.9039 141.914 57.8888 142.157C57.8737 142.4 57.8094 142.637 57.6999 142.854L54.7208 149.542L54.4332 162.523C54.4214 162.995 54.2244 163.443 53.8847 163.771C53.545 164.099 53.0899 164.28 52.6178 164.275Z" fill="#144A8F"/>
<path d="M62.9965 153.886H53.7265V159.438H62.9965V153.886Z" fill="#EB2126"/>
<path d="M63.0027 161.234H53.7327C53.256 161.234 52.7988 161.045 52.4617 160.708C52.1247 160.371 51.9353 159.914 51.9353 159.438V153.886C51.9353 153.409 52.1247 152.952 52.4617 152.615C52.7988 152.278 53.256 152.089 53.7327 152.089H63.0027C63.4794 152.089 63.9366 152.278 64.2737 152.615C64.6107 152.952 64.8001 153.409 64.8001 153.886V159.442C64.7989 159.918 64.609 160.374 64.2721 160.71C63.9351 161.046 63.4786 161.234 63.0027 161.234ZM55.5256 157.641H61.2053V155.673H55.5256V157.641Z" fill="#144A8F"/>
<path d="M76.2092 165.996H62.4952C62.2449 165.997 61.9971 165.945 61.7678 165.845C61.5385 165.745 61.3326 165.598 61.1634 165.414C60.9942 165.229 60.8654 165.012 60.7852 164.775C60.705 164.538 60.6752 164.286 60.6978 164.037L62.266 147.113L59.1206 139.975C58.9517 139.543 58.957 139.061 59.1355 138.632C59.314 138.203 59.6517 137.86 60.0778 137.675C60.5039 137.49 60.9853 137.476 61.4209 137.638C61.8565 137.8 62.2126 138.124 62.4143 138.542L65.717 146.102C65.8423 146.384 65.8904 146.694 65.8563 147L64.4318 162.429H74.632L77.5932 143.115C77.6193 142.874 77.694 142.64 77.8128 142.429C77.9316 142.217 78.092 142.032 78.2844 141.884C78.4769 141.736 78.6973 141.628 78.9324 141.568C79.1675 141.508 79.4124 141.495 79.6523 141.532C79.8923 141.569 80.1223 141.654 80.3285 141.782C80.5347 141.91 80.7128 142.078 80.8521 142.277C80.9914 142.476 81.089 142.7 81.139 142.938C81.189 143.175 81.1904 143.421 81.143 143.658L79.0446 157.664C79.1314 157.659 79.2184 157.659 79.3052 157.664H81.5924C81.7062 157.297 81.9341 156.977 82.243 156.75C82.5518 156.522 82.9253 156.4 83.3089 156.4C83.6925 156.4 84.066 156.522 84.3748 156.75C84.6837 156.977 84.9116 157.297 85.0254 157.664H87.2272C86.8947 131.374 79.2962 124.286 79.2153 124.218C78.8603 123.905 78.6436 123.463 78.6124 122.99C78.5813 122.518 78.7382 122.052 79.0491 121.694C79.3573 121.341 79.7917 121.121 80.2593 121.084C80.727 121.046 81.1909 121.192 81.5519 121.492C81.9294 121.815 90.8265 129.68 90.8265 159.456C90.8265 159.932 90.6371 160.389 90.3 160.726C89.9629 161.063 89.5058 161.252 89.0291 161.252H79.2872C79.0169 161.253 78.7498 161.193 78.5054 161.077L77.9841 164.491C77.9149 164.911 77.6983 165.294 77.3732 165.569C77.0481 165.845 76.6355 165.996 76.2092 165.996ZM57.8983 160.363C57.4216 160.363 56.9645 160.174 56.6274 159.837C56.2903 159.5 56.101 159.043 56.101 158.566V158.176C56.101 157.699 56.2903 157.242 56.6274 156.905C56.9645 156.568 57.4216 156.379 57.8983 156.379C58.375 156.379 58.8322 156.568 59.1693 156.905C59.5064 157.242 59.6957 157.699 59.6957 158.176V158.575C59.6933 159.05 59.5029 159.505 59.1661 159.84C58.8293 160.175 58.3735 160.363 57.8983 160.363Z" fill="#144A8F"/>
<path d="M46.0987 127.96L40.2886 141.642L39.3046 155.117H52.785L55.4091 153.639L63.0076 153.904L63.1244 157.497H77.2474L78.2629 153.904H88.9304C88.9304 153.904 85.9422 127.632 80.8422 124.12C61.4798 137.271 46.0942 127.973 46.0942 127.973" fill="white"/>
<path d="M81.1018 143.299L81.8881 153.311H78.1451L81.1018 143.299Z" fill="#2494D1"/>
<path d="M44.0948 131.733C44.0948 131.733 55.8138 138.731 69.8648 131.733C81.0985 126.15 46.0989 127.96 46.0989 127.96L44.0948 131.733Z" fill="#2494D1"/>
<path d="M89.0157 159.442H77.5618L78.2583 153.886H88.9303C88.9303 153.886 89.0426 157.632 89.0247 159.442" fill="#EB2126"/>
<path d="M89.0148 161.234H77.561C77.3057 161.236 77.0529 161.184 76.8194 161.08C76.586 160.977 76.3773 160.825 76.2073 160.634C76.0372 160.444 75.9097 160.219 75.8332 159.976C75.7567 159.732 75.733 159.475 75.7636 159.222L76.4736 153.684C76.5286 153.247 76.742 152.846 77.0733 152.556C77.4046 152.266 77.8307 152.108 78.271 152.112H88.9294C89.3962 152.112 89.8447 152.293 90.1802 152.617C90.5156 152.942 90.7116 153.384 90.7268 153.85C90.7268 153.85 90.8392 157.645 90.8212 159.478C90.8106 159.949 90.6153 160.397 90.2774 160.726C89.9396 161.054 89.4861 161.237 89.0148 161.234ZM79.5786 157.641H87.2174C87.2174 156.972 87.1905 156.293 87.177 155.674H79.8437L79.5786 157.641Z" fill="#144A8F"/>
<path d="M85.1116 125.48C85.1116 125.48 93.0425 115.001 105.485 117.921C117.927 120.84 121.176 113.465 121.176 113.465C121.176 113.465 114.993 136.085 99.1581 129.846C99.1581 129.846 101.589 131.885 103.831 133.848C99.0817 137.258 94.7725 139.283 86.2484 134.154" fill="#2494D1"/>
<path d="M84.0374 127.268C84.0374 127.268 92.0761 115.504 102.263 117.885C112.449 120.266 118.588 117.75 118.588 117.75C118.588 117.75 111.497 132.267 100.164 125.557C98.1917 124.147 95.5496 124.461 94.26 126.258C92.9703 128.054 93.523 130.659 95.4957 132.07C92.512 133.278 88.5398 131.737 86.4099 130.318" fill="white"/>
<path d="M49.3865 129.478C49.3865 129.478 50.6312 126.275 46.1018 127.96C41.5723 129.644 38.6471 155.175 38.6471 155.175H40.6781C41.7925 155.175 44.0303 154.964 43.9539 153.854C43.9539 153.854 44.0932 146.308 44.6189 142.099C45.6704 138.232 49.3865 129.478 49.3865 129.478Z" fill="#2494D1"/>
<path d="M103.869 69.1411C103.869 93.5265 84.4262 131.737 60.4446 131.737C36.463 131.737 17.0333 93.5265 17.0333 69.1411C17.0333 44.7556 36.4765 35.0042 60.4581 35.0042C84.4397 35.0042 103.883 44.7736 103.883 69.1411" fill="white"/>
<path d="M60.4469 133.53C35.4857 133.53 15.2382 94.5685 15.2382 69.141C15.2382 46.2963 31.7202 33.2075 60.4604 33.2075C89.2005 33.2075 105.678 46.3142 105.678 69.141C105.665 94.5685 85.408 133.53 60.4469 133.53ZM60.4469 36.7784C47.9281 36.7784 18.815 39.9225 18.815 69.141C18.815 92.5967 37.8672 129.945 60.4469 129.945C83.0265 129.945 102.079 92.5967 102.079 69.141C102.079 39.9315 72.9612 36.7784 60.4469 36.7784Z" fill="#144A8F"/>
<path d="M23.2455 65.076C23.2455 65.076 18.9767 65.7587 16.8782 64.8873C14.0564 63.715 18.6397 60.1935 18.6397 60.1935L23.2455 65.076Z" fill="#2494D1"/>
<path d="M70.8881 60.5259C70.8881 65.9609 67.2933 67.7755 60.5531 70.3358C52.9142 70.3358 37.5061 65.9609 37.5061 60.5259C37.5061 55.091 54.3296 50.6801 61.9685 50.6801C69.6074 50.6801 70.8746 55.0865 70.8746 60.5259" fill="#2494D1"/>
<path d="M67.002 109.467C67.002 109.467 64.6294 99.5857 72.0616 96.2664C70.6551 100.066 67.7569 108.313 69.5722 111.224C71.3876 114.134 67.002 109.467 67.002 109.467Z" fill="#2494D1"/>
<path d="M60.4469 133.53C35.4857 133.53 15.2382 94.5685 15.2382 69.141C15.2382 46.2963 31.7202 33.2075 60.4604 33.2075C89.2005 33.2075 105.678 46.3142 105.678 69.141C105.665 94.5685 85.408 133.53 60.4469 133.53ZM60.4469 36.7784C47.9281 36.7784 18.815 39.9225 18.815 69.141C18.815 92.5967 37.8672 129.945 60.4469 129.945C83.0265 129.945 102.079 92.5967 102.079 69.141C102.079 39.9315 72.9612 36.7784 60.4469 36.7784Z" fill="#144A8F"/>
<path d="M46.5482 77.6752C46.5482 77.6752 48.9747 88.006 65.1961 89.5557C66.2835 89.659 66.9261 88.325 66.3419 87.4042C65.578 86.1959 63.1426 84.2375 63.1066 82.634C66.7014 83.0517 72.5429 84.7945 75.6164 83.1326C75.8273 83.0169 76.0017 82.8449 76.1202 82.6357C76.2387 82.4265 76.2965 82.1884 76.2872 81.9482C76.2779 81.7079 76.2017 81.4751 76.0674 81.2757C75.933 81.0763 75.7457 80.9183 75.5265 80.8193C73.5359 79.921 73.6348 76.5702 72.7136 74.8544" fill="#2494D1"/>
<path d="M47.0278 74.3918C47.0278 74.3918 48.4253 85.7783 68.6279 84.3095C67.4282 82.7553 66.152 81.0889 66.0981 78.8251C70.1063 79.2743 75.1704 79.3956 77.7227 76.4086C75.3412 75.9908 72.672 74.1627 71.5666 72.092" fill="white"/>
<path d="M65.1153 86.2364C46.8854 86.2364 45.3037 75.1105 45.2407 74.6119C45.2133 74.1566 45.3602 73.7078 45.6515 73.3567C45.9429 73.0057 46.357 72.7785 46.8097 72.7213C47.2625 72.6642 47.72 72.7814 48.0896 73.049C48.4591 73.3167 48.7129 73.7149 48.7996 74.1627C48.858 74.5625 50.251 82.6521 65.1198 82.6521H65.3265C64.688 81.4909 64.3353 80.1945 64.2975 78.87C64.2944 78.617 64.3449 78.3661 64.4456 78.1339C64.5462 77.9017 64.6948 77.6933 64.8817 77.5225C65.072 77.3512 65.2967 77.2225 65.5408 77.145C65.7849 77.0675 66.0428 77.0431 66.2971 77.0734C69.5324 77.4507 72.0218 77.3653 73.8191 76.8128C72.2264 75.8883 70.9022 74.5646 69.9772 72.9724C69.8087 72.562 69.7981 72.1037 69.9474 71.6858C70.0967 71.268 70.3954 70.9201 70.786 70.7093C71.1766 70.4985 71.6314 70.4396 72.0628 70.5439C72.4942 70.6483 72.8717 70.9086 73.1227 71.2746C73.9495 72.8197 76.1423 74.3469 78.0071 74.6748C78.3174 74.731 78.6075 74.8679 78.8482 75.0717C79.0889 75.2755 79.2717 75.539 79.3783 75.8358C79.4848 76.1325 79.5114 76.4521 79.4553 76.7624C79.3991 77.0727 79.2623 77.3627 79.0585 77.6034C76.4928 80.6128 72.1701 81.0575 68.4045 80.8599C68.867 81.7043 69.4086 82.5029 70.0222 83.245C70.2189 83.5018 70.3426 83.807 70.3803 84.1283C70.4179 84.4496 70.368 84.7751 70.236 85.0705C70.1039 85.3658 69.8945 85.62 69.6299 85.8063C69.3652 85.9925 69.0552 86.1039 68.7326 86.1286C67.4714 86.2035 66.2656 86.2394 65.1153 86.2364Z" fill="#144A8F"/>
<path d="M73.8583 58.5272C73.8583 62.0757 67.855 68.6021 60.4453 68.6021C53.0356 68.6021 47.0278 62.0757 47.0278 58.5272C47.0278 54.9788 52.3975 9.79681 59.8117 9.79681C67.226 9.79681 73.8583 54.9833 73.8583 58.5272Z" fill="white"/>
<path d="M60.4471 70.3986C52.1971 70.3986 45.2367 63.1086 45.2367 58.5271C45.2367 58.0106 49.7706 8 59.8135 8C69.9777 8 75.6574 58.024 75.6574 58.5271C75.6574 63.1086 68.7105 70.3986 60.4471 70.3986ZM59.8135 11.5889C55.2077 11.5889 48.827 51.4661 48.827 58.5271C48.827 60.9302 53.8551 66.8098 60.4471 66.8098C67.039 66.8098 72.0671 60.9302 72.0671 58.5271C72.0671 56.9281 70.4135 44.8095 67.8613 33.2209C63.224 12.1952 59.8449 11.5889 59.8135 11.5889Z" fill="#144A8F"/>
<path d="M68.5067 122.089C68.6954 123.041 67.1317 122.04 65.514 122.359C63.8964 122.678 62.8179 124.2 62.6472 123.257C62.4764 122.314 63.429 120.324 65.0467 120C66.6643 119.677 68.3179 121.141 68.5067 122.098" fill="#144A8F"/>
<path d="M52.5325 122.089C52.3438 123.041 53.9075 122.04 55.5251 122.359C57.1428 122.678 58.2212 124.2 58.392 123.257C58.5627 122.314 57.6101 120.324 55.9924 120C54.3748 119.677 52.7212 121.141 52.5325 122.098" fill="#144A8F"/>
<path d="M35.4567 43.8707C35.4567 43.8707 24.8522 38.6244 15.0474 39.2532C11.565 49.3281 15.5552 59.4029 23.1357 63.3287" fill="white"/>
<path d="M23.1142 65.1255C22.8265 65.1242 22.5432 65.0549 22.2874 64.9233C13.5836 60.4002 9.7417 49.1126 13.3499 38.6649C13.4659 38.3309 13.6778 38.0386 13.9592 37.8245C14.2405 37.6104 14.5788 37.484 14.9316 37.4611C25.1228 36.7873 35.8038 42.0381 36.2531 42.2627C36.6526 42.489 36.9504 42.8595 37.0852 43.2983C37.2201 43.737 37.1818 44.2107 36.9783 44.6222C36.7748 45.0337 36.4214 45.3517 35.9908 45.5109C35.5602 45.6702 35.0849 45.6587 34.6624 45.4788C34.5681 45.4338 25.2262 40.8972 16.3785 40.9871C13.988 49.4315 17.12 58.1948 23.941 61.7387C24.2958 61.9253 24.578 62.225 24.7428 62.5903C24.9075 62.9556 24.9454 63.3655 24.8504 63.7548C24.7553 64.144 24.5329 64.4904 24.2183 64.7388C23.9037 64.9871 23.5151 65.1232 23.1142 65.1255Z" fill="#144A8F"/>
<path d="M18.495 45.9774C18.2568 47.4776 18.5624 53.757 24.1522 58.1544C24.1967 58.2018 24.2565 58.2318 24.3211 58.2391C24.3856 58.2464 24.4507 58.2306 24.5046 58.1945C24.5586 58.1583 24.5979 58.1042 24.6157 58.0418C24.6335 57.9793 24.6285 57.9126 24.6016 57.8535C24.2493 56.8809 24.0184 55.8686 23.9141 54.8395C23.9096 54.779 23.9223 54.7185 23.9507 54.6649C23.979 54.6112 24.0219 54.5666 24.0743 54.5362C24.1268 54.5057 24.1868 54.4907 24.2475 54.4927C24.3081 54.4947 24.367 54.5137 24.4173 54.5476C24.9296 54.8934 25.5587 55.136 26.7764 54.88C26.8673 54.8603 26.9523 54.8196 27.0245 54.7611C27.0968 54.7026 27.1542 54.6279 27.1923 54.5431C27.2303 54.4583 27.2479 54.3657 27.2435 54.2729C27.2392 54.18 27.2131 54.0895 27.1673 54.0086C26.8929 53.6009 26.702 53.1429 26.6057 52.6611C26.5937 52.5793 26.5999 52.4959 26.6239 52.4169C26.6478 52.3378 26.689 52.265 26.7444 52.2036C26.7997 52.1423 26.8679 52.0939 26.9442 52.0619C27.0204 52.03 27.1027 52.0152 27.1853 52.0188C29.3152 52.0951 30.9778 52.3601 32.3079 51.4079" fill="#2494D1"/>
<path d="M31.5403 50.0602C27.863 48.3402 23.9782 47.1037 19.9831 46.3815L31.5403 50.0602Z" fill="white"/>
<path d="M31.5407 51.8526C31.2652 51.851 30.9935 51.788 30.7454 51.6684C27.2237 50.027 23.5056 48.845 19.6825 48.1514C19.2288 48.0548 18.8301 47.7867 18.5697 47.403C18.3093 47.0194 18.2073 46.55 18.285 46.093C18.3628 45.6359 18.6143 45.2266 18.9869 44.9506C19.3596 44.6746 19.8245 44.5532 20.2846 44.6119C24.4525 45.3596 28.5043 46.6507 32.336 48.4523C32.6957 48.634 32.9838 48.9312 33.1542 49.2962C33.3246 49.6612 33.3674 50.0728 33.2756 50.465C33.1839 50.8572 32.963 51.2072 32.6484 51.4589C32.3337 51.7105 31.9436 51.8491 31.5407 51.8526Z" fill="#144A8F"/>
<path d="M85.4302 43.8707C85.4302 43.8707 96.0393 38.6244 105.844 39.2532C109.326 49.3281 105.336 59.4029 97.7558 63.3287" fill="white"/>
<path d="M97.7787 65.1254C97.3775 65.1242 96.9882 64.9888 96.6728 64.7408C96.3575 64.4927 96.1342 64.1464 96.0386 63.7569C95.943 63.3673 95.9806 62.957 96.1452 62.5913C96.3099 62.2255 96.5923 61.9254 96.9474 61.7387C103.76 58.1947 106.905 49.4314 104.514 40.996C95.6129 40.8523 86.3249 45.4338 86.235 45.4787C85.8126 45.6587 85.3373 45.6702 84.9066 45.5109C84.476 45.3516 84.1227 45.0336 83.9191 44.6222C83.7156 44.2107 83.6774 43.737 83.8122 43.2982C83.9471 42.8595 84.2448 42.4889 84.6443 42.2627C85.0937 42.0426 95.8016 36.8097 105.97 37.461C106.323 37.4839 106.661 37.6103 106.943 37.8244C107.224 38.0386 107.436 38.3309 107.552 38.6648C111.147 49.1125 107.318 60.4001 98.61 64.9233C98.3532 65.0566 98.068 65.1259 97.7787 65.1254Z" fill="#144A8F"/>
<path d="M102.41 45.9774C102.648 47.4776 102.343 53.757 96.753 58.1544C96.7086 58.2018 96.6487 58.2318 96.5842 58.2391C96.5197 58.2464 96.4546 58.2306 96.4007 58.1945C96.3467 58.1583 96.3073 58.1042 96.2896 58.0418C96.2718 57.9793 96.2768 57.9126 96.3037 57.8535C96.6539 56.8803 96.8848 55.8683 96.9912 54.8395C96.9956 54.779 96.983 54.7185 96.9546 54.6649C96.9263 54.6112 96.8834 54.5666 96.8309 54.5362C96.7784 54.5057 96.7185 54.4907 96.6578 54.4927C96.5971 54.4947 96.5383 54.5137 96.4879 54.5476C95.9757 54.8934 95.3466 55.136 94.1289 54.88C94.038 54.8603 93.953 54.8196 93.8808 54.7611C93.8085 54.7026 93.7511 54.6279 93.713 54.5431C93.675 54.4583 93.6574 54.3657 93.6617 54.2729C93.6661 54.18 93.6922 54.0895 93.7379 54.0086C94.0105 53.5999 94.2013 53.1423 94.2996 52.6611C94.3116 52.5793 94.3054 52.4959 94.2814 52.4169C94.2574 52.3378 94.2163 52.265 94.1609 52.2036C94.1056 52.1423 94.0373 52.0939 93.9611 52.0619C93.8849 52.03 93.8025 52.0152 93.72 52.0188C91.5901 52.0951 89.9275 52.3601 88.5974 51.4079" fill="#2494D1"/>
<path d="M89.348 50.0602C93.0267 48.3398 96.913 47.1032 100.91 46.3815L89.348 50.0602Z" fill="white"/>
<path d="M89.3523 51.8526C88.949 51.8501 88.5582 51.7122 88.2428 51.4609C87.9274 51.2096 87.7057 50.8596 87.6134 50.4672C87.5211 50.0747 87.5635 49.6626 87.7338 49.2972C87.9041 48.9317 88.1925 48.6342 88.5524 48.4523C92.387 46.6499 96.4418 45.3587 100.613 44.6119C101.073 44.5532 101.538 44.6746 101.911 44.9506C102.283 45.2266 102.535 45.6359 102.612 46.093C102.69 46.55 102.588 47.0194 102.328 47.403C102.067 47.7867 101.669 48.0548 101.215 48.1514C97.3905 48.8455 93.671 50.0275 90.1476 51.6684C89.8995 51.7882 89.6278 51.8511 89.3523 51.8526Z" fill="#144A8F"/>
<path d="M95.9717 106.189C91.4019 116.07 82.4059 121.631 75.8769 118.617C69.3479 115.603 67.7618 105.142 72.3271 95.2603C76.8925 85.3786 85.8929 79.8134 92.4219 82.8318C98.9509 85.8502 100.542 96.3069 95.9717 106.189Z" fill="white"/>
<path d="M79.7045 121.236C78.1241 121.243 76.5612 120.904 75.1257 120.243C71.4006 118.523 68.9292 114.808 68.1653 109.782C67.4419 105.03 68.3451 99.6038 70.6996 94.5102C75.6784 83.7301 85.7662 77.7831 93.1669 81.2058C100.568 84.6284 102.567 96.1766 97.593 106.939C95.2339 112.032 91.6841 116.232 87.5951 118.761C84.9484 120.405 82.2523 121.236 79.7045 121.236ZM88.6465 83.8199C83.4925 83.8199 77.3365 88.7069 73.9574 96.0149C71.8949 100.48 71.0951 105.178 71.7107 109.243C72.2858 113.038 74.0338 115.792 76.6265 116.987C79.2192 118.181 82.468 117.732 85.7123 115.711C89.2082 113.546 92.2727 109.899 94.3352 105.434C98.4108 96.6213 97.1886 87.018 91.6661 84.4622C90.7184 84.031 89.6878 83.8118 88.6465 83.8199Z" fill="#144A8F"/>
<path d="M24.9202 106.189C29.4856 116.07 38.4815 121.631 45.0105 118.617C51.5395 115.603 53.1302 105.142 48.5603 95.2603C43.9905 85.3785 35.008 79.8178 28.4655 82.8362C21.9231 85.8546 20.3504 96.3113 24.9202 106.193" fill="white"/>
<path d="M41.1827 121.236C38.6349 121.236 35.9389 120.405 33.2877 118.761C29.1987 116.232 25.6488 112.023 23.2898 106.939C18.3155 96.1585 20.2971 84.6328 27.7158 81.2056C35.1345 77.7784 45.2134 83.7479 50.1831 94.51C52.5377 99.6036 53.4364 105.03 52.7129 109.782C51.9491 114.808 49.4776 118.523 45.7571 120.243C44.3229 120.903 42.7617 121.242 41.1827 121.236ZM32.2452 83.8198C31.2024 83.8106 30.1701 84.0298 29.2211 84.4621C23.6987 87.0179 22.4809 96.6211 26.5475 105.434C28.61 109.899 31.6746 113.546 35.175 115.711C38.4417 117.75 41.668 118.199 44.2607 116.986C46.8535 115.774 48.5969 113.038 49.1766 109.243C49.7922 105.178 48.9969 100.479 46.9299 96.0147C43.5463 88.7067 37.3992 83.8198 32.2452 83.8198Z" fill="#144A8F"/>
<path d="M24.9202 106.189C29.4856 116.07 38.4815 121.631 45.0105 118.617C51.5395 115.603 53.1302 105.142 48.5603 95.2603C43.9905 85.3785 35.008 79.8178 28.4655 82.8362C21.9231 85.8546 20.3504 96.3113 24.9202 106.193" fill="white"/>
<path d="M41.1827 121.236C38.6349 121.236 35.9389 120.405 33.2877 118.761C29.1987 116.232 25.6488 112.023 23.2898 106.939C18.3155 96.1585 20.2971 84.6328 27.7158 81.2056C35.1345 77.7784 45.2134 83.7479 50.1831 94.51C52.5377 99.6036 53.4364 105.03 52.7129 109.782C51.9491 114.808 49.4776 118.523 45.7571 120.243C44.3229 120.903 42.7617 121.242 41.1827 121.236ZM32.2452 83.8198C31.2024 83.8106 30.1701 84.0298 29.2211 84.4621C23.6987 87.0179 22.4809 96.6211 26.5475 105.434C28.61 109.899 31.6746 113.546 35.175 115.711C38.4417 117.75 41.668 118.199 44.2607 116.986C46.8535 115.774 48.5969 113.038 49.1766 109.243C49.7922 105.178 48.9969 100.479 46.9299 96.0147C43.5463 88.7067 37.3992 83.8198 32.2452 83.8198Z" fill="#144A8F"/>
<path d="M49.1984 98.4357C48.9225 99.0645 48.5061 99.6217 47.9811 100.064C47.4561 100.507 46.8366 100.824 46.1701 100.99C45.5036 101.156 44.8079 101.167 44.1364 101.022C43.465 100.878 42.8356 100.581 42.2968 100.155C41.7579 99.7294 41.3239 99.1858 41.028 98.5661C40.7322 97.9464 40.5824 97.2672 40.5902 96.5806C40.598 95.8941 40.7631 95.2184 41.0729 94.6056C41.3827 93.9928 41.829 93.4591 42.3773 93.0456C42.1976 93.0456 42.0269 92.9917 41.8426 92.9917C40.175 92.9634 38.5414 93.4652 37.1775 94.4249C35.8136 95.3845 34.7898 96.7524 34.2538 98.3312C33.7178 99.91 33.6973 101.618 34.1953 103.209C34.6932 104.801 35.6838 106.193 37.0243 107.185C38.3648 108.177 39.9859 108.718 41.6537 108.729C43.3216 108.741 44.95 108.223 46.3043 107.25C47.6585 106.276 48.6685 104.898 49.1887 103.314C49.7089 101.73 49.7123 100.022 49.1984 98.4357Z" fill="#144A8F"/>
<path d="M51.0674 117.934C49.9456 119.326 49.3862 121.087 49.4993 122.87C49.6124 124.654 50.3899 126.33 51.6785 127.569C53.5657 129.366 57.6952 130.43 59.8116 130.614C59.8116 130.614 44.3811 129.599 39.1866 121.99C41.4334 119.673 47.2749 116.519 49.0183 114.296C50.7618 112.073 54.4599 107.752 56.9223 109.917" fill="#2494D1"/>
<path d="M54.4693 109.342C54.4693 109.342 57.417 92.5607 44.6151 87.759C47.3741 93.9711 53.0853 107.482 50.3488 112.549C47.6123 117.615 54.4693 109.342 54.4693 109.342Z" fill="#2494D1"/>
<path d="M60.4368 133.529C51.8319 133.529 43.1774 128.925 35.4038 120.22C35.2688 120.065 35.1596 119.889 35.0802 119.699C30.4609 117.481 26.0933 112.962 23.2894 106.943C18.3151 96.163 20.3012 84.6328 27.7154 81.2056C31.436 79.4853 35.8711 80.0108 40.1938 82.6879C44.2873 85.2167 47.8327 89.4254 50.1917 94.51C52.5014 99.5093 53.3102 104.679 52.771 109.126C54.9061 107.141 57.7276 106.061 60.6426 106.112C63.5577 106.163 66.3395 107.342 68.4037 109.4L74.7934 115.751C75.0957 116.093 75.2563 116.538 75.2427 116.994C75.2292 117.45 75.0425 117.884 74.7205 118.208C74.3985 118.531 73.9654 118.72 73.5091 118.736C73.0528 118.752 72.6075 118.594 72.2636 118.294L65.8694 111.938C64.43 110.504 62.4805 109.698 60.4481 109.698C58.4157 109.698 56.4661 110.504 55.0267 111.938L48.7763 118.159C48.7196 118.213 48.6596 118.264 48.5966 118.312C47.7664 119.109 46.8098 119.763 45.7657 120.247C44.3901 120.875 42.8968 121.205 41.3846 121.213C46.233 125.705 52.8024 129.945 60.4368 129.945C60.9135 129.945 61.3707 130.134 61.7078 130.471C62.0449 130.808 62.2342 131.265 62.2342 131.742C62.2342 132.218 62.0449 132.675 61.7078 133.012C61.3707 133.349 60.9135 133.538 60.4368 133.538V133.529ZM26.5471 105.434C30.6946 114.417 38.6301 119.587 44.2604 116.986C49.7828 114.435 51.0006 104.832 46.9564 96.0147C44.8939 91.5545 41.8294 87.9027 38.329 85.7377C35.0623 83.7165 31.8359 83.2673 29.2432 84.4621C23.7208 87.0134 22.503 96.6211 26.5696 105.434H26.5471Z" fill="#144A8F"/>
<path d="M95.0422 138.484C91.8248 138.435 88.6589 137.668 85.7767 136.238C85.3726 136.018 85.0683 135.652 84.9264 135.214C84.7845 134.777 84.8158 134.301 85.0139 133.886C85.2121 133.471 85.5619 133.148 85.9913 132.983C86.4208 132.818 86.8972 132.824 87.3224 132.999C92.1484 135.304 96.8486 135.492 100.803 133.592C99.2706 132.281 98.0259 131.23 98.0214 131.23C97.7026 130.955 97.4905 130.576 97.4223 130.161C97.354 129.745 97.4338 129.319 97.6478 128.957C97.8618 128.594 98.1964 128.318 98.5932 128.177C98.9899 128.036 99.4237 128.038 99.8188 128.184C103.184 129.532 106.186 129.478 108.99 128.077C112.535 126.307 115.106 122.66 116.813 119.394C114.117 120.45 110.302 120.903 105.054 119.677C93.9054 117.058 85.5116 127.452 85.4307 127.555C85.1267 127.901 84.7019 128.116 84.2438 128.157C83.7857 128.199 83.3291 128.063 82.9681 127.778C82.607 127.493 82.369 127.081 82.303 126.626C82.237 126.171 82.3481 125.708 82.6133 125.332C83.0087 124.829 92.472 113.038 105.876 116.183C116.575 118.689 119.406 112.971 119.523 112.728C119.712 112.32 120.049 111.998 120.465 111.826C120.881 111.654 121.346 111.644 121.769 111.799C122.189 111.954 122.536 112.26 122.742 112.657C122.948 113.054 122.999 113.513 122.884 113.946C122.74 114.476 119.244 126.972 110.599 131.279C108.922 132.13 107.085 132.622 105.206 132.721C105.361 132.911 105.475 133.13 105.542 133.366C105.609 133.601 105.627 133.848 105.595 134.09C105.563 134.333 105.482 134.567 105.356 134.777C105.231 134.987 105.063 135.169 104.865 135.313C102.009 137.383 98.5698 138.493 95.0422 138.484Z" fill="#144A8F"/>
<path d="M54.0027 156.401H39.3046V162.483H54.0027V156.401Z" fill="#EB2126"/>
<path d="M76.7705 159.128H62.0769V165.209H76.7705V159.128Z" fill="#EB2126"/>
<path d="M69.1817 166C68.705 166 68.2479 165.811 67.9108 165.474C67.5737 165.137 67.3843 164.68 67.3843 164.203V161.724C67.3843 161.247 67.5737 160.79 67.9108 160.453C68.2479 160.117 68.705 159.927 69.1817 159.927C69.6584 159.927 70.1156 160.117 70.4527 160.453C70.7898 160.79 70.9791 161.247 70.9791 161.724V164.203C70.9791 164.68 70.7898 165.137 70.4527 165.474C70.1156 165.811 69.6584 166 69.1817 166Z" fill="#144A8F"/>
<path d="M39.5602 155.741C39.5602 155.741 41.5912 155.741 43.155 155.651C43.6492 155.629 44.0042 156.293 43.8155 156.904C43.092 159.267 43.7166 161.176 43.1684 161.913C42.5124 162.779 38.8502 161.436 38.8502 161.436L39.5602 155.741Z" fill="#A62126"/>
<path d="M61.8656 158.719C61.8656 158.719 63.8787 158.454 65.4199 158.18C65.9052 158.094 66.3186 158.71 66.2287 159.339C65.8109 161.773 66.6781 163.588 66.2287 164.387C65.685 165.335 61.8836 164.459 61.8836 164.459L61.8656 158.719Z" fill="#A62126"/>
<path d="M53.7376 56.2587C53.7376 56.2587 61.2597 62.583 66.4047 61.1995C69.5142 60.3596 66.2295 67.0387 54.1735 65.3633C41.6277 63.6116 48.1298 50.8237 48.1298 50.8237L53.7376 56.2587Z" fill="#EB2126"/>
<path d="M55.3852 43.1564C56.2479 45.1956 62.8039 48.2769 67.3647 48.0164C67.6662 47.9951 67.966 48.0756 68.2162 48.245C68.4664 48.4144 68.6523 48.663 68.7442 48.9507C69.8361 52.4812 69.8721 56.5462 68.9554 58.1811C68.0567 59.7442 48.0428 56.0611 47.9575 47.6256C47.8721 39.1902 51.2512 39.024 51.2512 39.024L55.3852 43.1564Z" fill="#EB2126"/>
<path d="M55.5168 29.0571C56.1953 31.002 61.3224 34.0923 64.7734 34.4023C65.1792 34.4406 65.5652 34.596 65.8843 34.8496C66.2034 35.1032 66.4419 35.444 66.5707 35.8306C67.4694 38.4717 67.7346 41.324 68.1614 43.8753C68.431 45.4743 49.4866 41.9618 49.4147 33.5443C49.3428 25.1269 52.1108 24.9427 52.1108 24.9427L55.5168 29.0571Z" fill="#EB2126"/>
<path d="M66.7778 59.8746C61.0486 59.8746 55.9081 57.4715 54.0253 56.4788C50.5339 54.6282 46.692 51.6772 46.3011 48.9373C46.2597 48.4766 46.3978 48.0177 46.6864 47.6561C46.975 47.2946 47.3921 47.0582 47.8506 46.9963C48.3092 46.9344 48.774 47.0516 49.1483 47.3236C49.5225 47.5957 49.7774 48.0015 49.8599 48.4567C49.9812 49.1619 52.0212 51.4526 56.1822 53.5502C58.4559 54.6956 66.3778 58.1812 72.8799 54.9292C73.092 54.8074 73.3267 54.7303 73.5697 54.7023C73.8127 54.6744 74.0588 54.6964 74.293 54.7668C74.5272 54.8373 74.7446 54.9548 74.9317 55.1122C75.1189 55.2695 75.272 55.4634 75.3816 55.682C75.4913 55.9005 75.5551 56.1391 75.5693 56.3832C75.5835 56.6273 75.5476 56.8717 75.464 57.1014C75.3804 57.3312 75.2508 57.5415 75.083 57.7194C74.9153 57.8974 74.713 58.0392 74.4885 58.1363C72.0897 59.3106 69.4487 59.906 66.7778 59.8746ZM65.7308 46.3995C61.9275 46.3213 58.1997 45.3242 54.8656 43.4933C51.837 41.8898 48.4894 39.3161 48.1614 36.8995C48.1148 36.4367 48.2496 35.9739 48.5375 35.6084C48.8253 35.243 49.2437 35.0033 49.7047 34.9399C50.1656 34.8765 50.6333 34.9942 51.0092 35.2684C51.3851 35.5426 51.6399 35.9518 51.7202 36.4099C51.8864 37.0118 53.8456 39.1499 57.7774 40.942C60.0825 41.9931 65.9734 44.1716 70.8758 41.7101C71.2972 41.5279 71.7724 41.5138 72.2038 41.6707C72.6353 41.8276 72.9904 42.1436 73.1961 42.5538C73.4019 42.9641 73.4429 43.4375 73.3105 43.877C73.1782 44.3165 72.8826 44.6887 72.4845 44.9172C70.3793 45.93 68.0667 46.4376 65.7308 46.3995Z" fill="#144A8F"/>
<path d="M64.7859 26.5148C64.8748 26.8826 64.8184 27.2704 64.6284 27.5976C64.4384 27.9247 64.1294 28.166 63.7658 28.2711C62.37 28.7589 60.9076 29.0301 59.4296 29.0751C54.3296 29.1964 52.2491 23.0068 52.2491 23.0068C52.2491 23.0068 54.2397 11.1263 58.7152 11.2476C60.234 11.288 63.6355 21.7312 64.7859 26.5193" fill="#EB2126"/>
<path d="M60.4461 70.3986C52.1961 70.3986 45.2357 63.1086 45.2357 58.5271C45.2357 58.2217 46.9342 39.379 50.547 24.7989C50.5648 24.6353 50.6056 24.475 50.6683 24.3228C52.951 15.281 55.9796 8 59.8125 8C69.9767 8 75.6564 58.024 75.6564 58.5271C75.6564 63.1086 68.7095 70.3986 60.4461 70.3986ZM53.315 28.9448C50.7851 40.6232 48.8215 54.6193 48.8215 58.5271C48.8215 60.9302 53.8497 66.8098 60.4416 66.8098C67.0335 66.8098 72.0617 60.9302 72.0617 58.5271C72.0617 56.9281 70.4081 44.8095 67.8558 33.2209C67.8019 32.9649 67.7435 32.7133 67.6895 32.4663C64.1846 33.3646 59.9383 32.7358 55.8987 30.5977C54.9946 30.1168 54.1306 29.564 53.315 28.9448ZM54.2361 24.9023C54.7529 25.603 56.5323 27.1481 59.3856 28.2576C61.0572 28.9133 64.0678 29.7757 66.8762 28.9852C62.7557 12.1009 59.8395 11.5934 59.8125 11.5934C58.06 11.5889 56.0515 17.3607 54.2361 24.8978V24.9023Z" fill="#144A8F"/>
<path d="M86.3912 98.373C86.1204 99.0061 85.7076 99.5685 85.1848 100.017C84.6619 100.465 84.0429 100.787 83.3757 100.958C82.7085 101.129 82.0109 101.144 81.3367 101.003C80.6626 100.862 80.03 100.567 79.4879 100.142C78.9457 99.7178 78.5085 99.1741 78.21 98.5536C77.9115 97.9331 77.7597 97.2522 77.7664 96.5637C77.773 95.8752 77.9379 95.1975 78.2484 94.5828C78.5588 93.9681 79.0064 93.4331 79.5567 93.0189C79.3859 93.0189 79.2242 92.9695 79.0489 92.9695C77.5175 92.9695 76.0204 93.4235 74.7471 94.2741C73.4738 95.1247 72.4815 96.3336 71.8956 97.748C71.3098 99.1625 71.1567 100.719 71.4558 102.22C71.7549 103.722 72.4927 105.101 73.5759 106.183C74.6592 107.265 76.0391 108.002 77.5413 108.3C79.0434 108.598 80.6002 108.444 82.0149 107.857C83.4295 107.271 84.6384 106.278 85.4885 105.005C86.3387 103.732 86.792 102.235 86.7912 100.704C86.7807 99.911 86.6458 99.1243 86.3912 98.373Z" fill="#144A8F"/>
<path d="M60.5165 137.963L60.6738 137.576C62.251 137.275 64.5606 138.322 65.1942 139.795L67.2118 145.67C67.4838 146.465 67.5197 147.322 67.3151 148.136L64.983 157.492L64.1068 146.829L60.5165 137.963Z" fill="#2494D1"/>
<path d="M46.3091 164.015C45.8324 164.015 45.3752 163.825 45.0381 163.488C44.7011 163.151 44.5117 162.694 44.5117 162.218V160.012C44.5117 159.536 44.7011 159.079 45.0381 158.742C45.3752 158.405 45.8324 158.216 46.3091 158.216C46.7858 158.216 47.2429 158.405 47.58 158.742C47.9171 159.079 48.1065 159.536 48.1065 160.012V162.218C48.1065 162.694 47.9171 163.151 47.58 163.488C47.2429 163.825 46.7858 164.015 46.3091 164.015ZM52.7797 156.913H39.2993C38.8226 156.913 38.3654 156.724 38.0283 156.387C37.6913 156.05 37.5019 155.593 37.5019 155.117C37.5019 154.64 37.6913 154.183 38.0283 153.846C38.3654 153.509 38.8226 153.32 39.2993 153.32H52.7797C53.2564 153.32 53.7135 153.509 54.0506 153.846C54.3877 154.183 54.577 154.64 54.577 155.117C54.577 155.593 54.3877 156.05 54.0506 156.387C53.7135 156.724 53.2564 156.913 52.7797 156.913Z" fill="#144A8F"/>
<path d="M75.8999 159.276H63.1204C62.6438 159.276 62.1866 159.087 61.8495 158.75C61.5124 158.413 61.3231 157.956 61.3231 157.479C61.3231 157.003 61.5124 156.546 61.8495 156.209C62.1866 155.872 62.6438 155.683 63.1204 155.683H75.8999C76.3766 155.683 76.8338 155.872 77.1708 156.209C77.5079 156.546 77.6973 157.003 77.6973 157.479C77.6973 157.956 77.5079 158.413 77.1708 158.75C76.8338 159.087 76.3766 159.276 75.8999 159.276Z" fill="#144A8F"/>
<path d="M61.6413 140.244C63.2904 141.893 66.1617 146.448 64.9755 147.629C63.7892 148.81 60.0327 147.746 58.397 146.097C56.7614 144.449 56.2177 142.225 57.404 141.044C59.8349 142.046 59.9922 138.596 61.6413 140.244Z" fill="#2494D1"/>
<path d="M52.6178 164.275H38.9038C38.658 164.275 38.4147 164.225 38.189 164.128C37.9634 164.031 37.7601 163.888 37.5917 163.709C37.4235 163.529 37.294 163.317 37.2113 163.085C37.1286 162.853 37.0944 162.607 37.1109 162.362L38.4949 141.516C38.5076 141.34 38.5454 141.168 38.6072 141.004L44.0578 126.482C44.241 126.059 44.5801 125.722 45.0049 125.542C45.4296 125.361 45.9075 125.351 46.3395 125.513C46.7714 125.676 47.1245 125.998 47.3254 126.413C47.5263 126.828 47.5598 127.305 47.4189 127.744L42.0627 142.005L40.8225 160.691H50.8609L51.117 149.102C51.1235 148.865 51.177 148.631 51.2743 148.415L54.4197 141.394C54.5079 141.168 54.6412 140.961 54.8115 140.788C54.9818 140.614 55.1857 140.477 55.4106 140.384C55.6356 140.291 55.8771 140.246 56.1203 140.249C56.3636 140.252 56.6037 140.305 56.8259 140.404C57.0482 140.503 57.2481 140.646 57.4134 140.824C57.5788 141.003 57.7062 141.213 57.7879 141.442C57.8696 141.671 57.9039 141.914 57.8888 142.157C57.8737 142.4 57.8094 142.637 57.6999 142.854L54.7208 149.542L54.4332 162.523C54.4214 162.995 54.2244 163.443 53.8847 163.771C53.545 164.099 53.0899 164.28 52.6178 164.275Z" fill="#144A8F"/>
<path d="M62.9965 153.886H53.7265V159.438H62.9965V153.886Z" fill="#EB2126"/>
<path d="M63.0027 161.235H53.7326C53.2559 161.235 52.7988 161.045 52.4617 160.708C52.1246 160.371 51.9352 159.914 51.9352 159.438V153.886C51.9352 153.41 52.1246 152.953 52.4617 152.616C52.7988 152.279 53.2559 152.089 53.7326 152.089H63.0027C63.4794 152.089 63.9365 152.279 64.2736 152.616C64.6107 152.953 64.8 153.41 64.8 153.886V159.442C64.7989 159.918 64.609 160.374 64.272 160.71C63.9351 161.046 63.4786 161.235 63.0027 161.235ZM55.5255 157.641H61.2053V155.674H55.5255V157.641Z" fill="#144A8F"/>
<path d="M76.2084 165.996H62.4943C62.244 165.997 61.9963 165.945 61.7669 165.845C61.5376 165.745 61.3318 165.598 61.1626 165.414C60.9934 165.229 60.8645 165.012 60.7843 164.775C60.7042 164.538 60.6744 164.286 60.6969 164.037L62.2651 147.113L59.1197 139.975C58.9508 139.543 58.9562 139.061 59.1347 138.632C59.3131 138.203 59.6509 137.86 60.077 137.675C60.5031 137.49 60.9844 137.476 61.42 137.638C61.8557 137.8 62.2117 138.124 62.4134 138.542L65.7161 146.102C65.8414 146.384 65.8895 146.694 65.8554 147L64.431 162.429H74.6311L77.5923 143.115C77.6184 142.874 77.6931 142.64 77.8119 142.429C77.9307 142.217 78.0912 142.032 78.2836 141.884C78.476 141.736 78.6964 141.628 78.9315 141.568C79.1666 141.508 79.4115 141.495 79.6515 141.532C79.8914 141.569 80.1214 141.654 80.3276 141.782C80.5338 141.91 80.712 142.078 80.8513 142.277C80.9906 142.476 81.0882 142.7 81.1382 142.938C81.1882 143.175 81.1895 143.421 81.1422 143.658L79.0437 157.664C79.1305 157.659 79.2175 157.659 79.3044 157.664H81.5915C81.7053 157.297 81.9333 156.977 82.2421 156.75C82.551 156.522 82.9245 156.4 83.308 156.4C83.6916 156.4 84.0651 156.522 84.374 156.75C84.6828 156.977 84.9108 157.297 85.0245 157.664H87.2263C86.8938 131.374 79.2954 124.286 79.2145 124.218C78.8594 123.905 78.6427 123.463 78.6116 122.99C78.5804 122.518 78.7374 122.052 79.0482 121.694C79.3565 121.341 79.7908 121.121 80.2585 121.084C80.7261 121.046 81.19 121.192 81.5511 121.492C81.9285 121.815 90.8256 129.68 90.8256 159.456C90.8256 159.932 90.6362 160.389 90.2992 160.726C89.9621 161.063 89.5049 161.252 89.0282 161.252H79.2864C79.016 161.253 78.749 161.193 78.5045 161.077L77.9833 164.491C77.914 164.911 77.6975 165.294 77.3723 165.569C77.0472 165.845 76.6347 165.996 76.2084 165.996ZM57.8975 160.363C57.4208 160.363 56.9636 160.174 56.6265 159.837C56.2895 159.5 56.1001 159.043 56.1001 158.566V158.176C56.1001 157.699 56.2895 157.242 56.6265 156.905C56.9636 156.568 57.4208 156.379 57.8975 156.379C58.3742 156.379 58.8314 156.568 59.1684 156.905C59.5055 157.242 59.6949 157.699 59.6949 158.176V158.575C59.6925 159.05 59.5021 159.505 59.1653 159.84C58.8284 160.175 58.3726 160.363 57.8975 160.363Z" fill="#144A8F"/>
</svg>
