<svg width="387" height="197" viewBox="0 0 387 197" fill="none" xmlns="http://www.w3.org/2000/svg">
<path d="M162.6 37.0942H191.2V142.094C191.2 156.894 182.733 164.294 165.8 164.294H139C122.2 164.294 113.8 156.894 113.8 142.094V37.0942H142.4V138.294C142.4 141.628 144.133 143.294 147.6 143.294H157.2C160.8 143.294 162.6 141.628 162.6 138.294V37.0942Z" fill="url(#paint0_linear_3739_37586)"/>
<path d="M211.322 37.0942H264.322C281.255 37.0942 289.722 44.4276 289.722 59.0942V142.094C289.722 156.894 281.255 164.294 264.322 164.294H211.322V37.0942ZM261.122 139.694V61.6942C261.122 58.3609 259.322 56.6942 255.722 56.6942H239.922V144.694H255.722C259.322 144.694 261.122 143.028 261.122 139.694Z" fill="url(#paint1_linear_3739_37586)"/>
<path d="M352.192 138.294V115.294C352.192 113.561 351.792 112.361 350.992 111.694C350.192 110.894 348.792 110.494 346.792 110.494H329.192C313.459 110.494 305.592 103.028 305.592 88.0942V59.0942C305.592 44.4276 313.992 37.0942 330.792 37.0942H355.192C371.992 37.0942 380.392 44.4276 380.392 59.0942V75.6942H351.792V63.0942C351.792 59.7609 349.992 58.0942 346.392 58.0942H339.592C335.992 58.0942 334.192 59.7609 334.192 63.0942V85.4942C334.192 87.2276 334.592 88.4942 335.392 89.2942C336.192 89.9609 337.592 90.2942 339.592 90.2942H356.792C365.325 90.2942 371.459 92.1609 375.192 95.8942C378.925 99.4942 380.792 104.894 380.792 112.094V142.094C380.792 156.894 372.392 164.294 355.592 164.294H331.392C314.459 164.294 305.992 156.894 305.992 142.094V125.694H334.592V138.294C334.592 141.628 336.392 143.294 339.992 143.294H346.792C350.392 143.294 352.192 141.628 352.192 138.294Z" fill="url(#paint2_linear_3739_37586)"/>
<path d="M41.7918 147.672L34.6709 164.44L33.4648 180.955H49.9866L53.2029 179.144L62.5156 179.469L62.6588 183.873H79.9681L81.2128 179.469H94.287C94.287 179.469 90.6247 147.27 84.3739 142.965C60.6432 159.084 41.7863 147.688 41.7863 147.688" fill="white"/>
<path d="M84.6921 166.472L85.6559 178.743H81.0684L84.6921 166.472Z" fill="#2494D1"/>
<path d="M39.3359 152.296C39.3359 152.296 53.6988 160.873 70.92 152.296C84.6881 145.453 41.7922 147.672 41.7922 147.672L39.3359 152.296Z" fill="#2494D1"/>
<path d="M94.3915 186.257H80.3535L81.2071 179.447H94.2869C94.2869 179.447 94.4246 184.038 94.4025 186.257" fill="#EB2126"/>
<path d="M94.3906 188.453H80.3526C80.0397 188.456 79.7298 188.391 79.4438 188.264C79.1577 188.138 78.9019 187.951 78.6935 187.718C78.485 187.485 78.3287 187.21 78.235 186.911C78.1412 186.613 78.1122 186.298 78.1497 185.987L79.0199 179.199C79.0873 178.664 79.3488 178.172 79.7549 177.817C80.1609 177.462 80.6832 177.268 81.2228 177.273H94.2859C94.858 177.272 95.4077 177.494 95.8188 177.892C96.23 178.29 96.4702 178.831 96.4888 179.403C96.4888 179.403 96.6265 184.055 96.6045 186.301C96.5915 186.878 96.3522 187.427 95.9381 187.83C95.524 188.232 94.9682 188.456 94.3906 188.453V188.453ZM82.8254 184.049H92.1877C92.1877 183.229 92.1546 182.398 92.1381 181.638H83.1503L82.8254 184.049Z" fill="#144A8F"/>
<path d="M89.6064 144.633C89.6064 144.633 99.3267 131.789 114.576 135.368C129.826 138.946 133.808 129.907 133.808 129.907C133.808 129.907 126.23 157.63 106.822 149.984C106.822 149.984 109.802 152.483 112.55 154.889C106.728 159.067 101.447 161.55 90.9998 155.263" fill="#2494D1"/>
<path d="M89.2256 145.503C89.2256 145.503 98.1418 132.406 110.627 135.324C123.112 138.242 130.635 135.159 130.635 135.159C130.635 135.159 121.944 152.951 108.055 144.727C105.637 142.998 102.399 143.383 100.818 145.585C99.2378 147.787 99.9152 150.98 102.333 152.709C98.676 154.19 93.8076 152.302 91.1972 150.562" fill="white"/>
<path d="M45.8215 149.532C45.8215 149.532 47.347 145.607 41.7957 147.672C36.2444 149.736 32.6592 181.027 32.6592 181.027H35.1485C36.5143 181.027 39.2569 180.768 39.1633 179.408C39.1633 179.408 39.334 170.16 39.9783 165.002C41.267 160.262 45.8215 149.532 45.8215 149.532Z" fill="#2494D1"/>
<path d="M112.597 75.5826C112.597 105.47 88.7667 152.302 59.3745 152.302C29.9823 152.302 6.16895 105.47 6.16895 75.5826C6.16895 45.6954 29.9988 33.7439 59.391 33.7439C88.7832 33.7439 112.613 45.7175 112.613 75.5826" fill="white"/>
<path d="M59.3772 154.498C28.7844 154.498 3.96875 106.747 3.96875 75.5827C3.96875 47.5838 24.1693 31.542 59.3937 31.542C94.6181 31.542 114.813 47.6058 114.813 75.5827C114.797 106.747 89.97 154.498 59.3772 154.498ZM59.3772 35.9185C44.034 35.9185 8.35252 39.7721 8.35252 75.5827C8.35252 104.33 31.7033 150.105 59.3772 150.105C87.0511 150.105 110.402 104.33 110.402 75.5827C110.402 39.7831 74.7149 35.9185 59.3772 35.9185V35.9185Z" fill="#144A8F"/>
<path d="M13.7826 70.6005C13.7826 70.6005 8.55072 71.4373 5.97883 70.3693C2.52027 68.9325 8.13767 64.6165 8.13767 64.6165L13.7826 70.6005Z" fill="#2494D1"/>
<path d="M72.1742 65.0237C72.1742 71.6848 67.7683 73.9089 59.5075 77.0468C50.1451 77.0468 31.2607 71.6848 31.2607 65.0237C31.2607 58.3625 51.8799 52.9565 61.2422 52.9565C70.6046 52.9565 72.1576 58.357 72.1576 65.0237" fill="#2494D1"/>
<path d="M67.4113 125.007C67.4113 125.007 64.5034 112.896 73.6124 108.828C71.8886 113.485 68.3365 123.592 70.5614 127.16C72.7863 130.727 67.4113 125.007 67.4113 125.007" fill="#2494D1"/>
<path d="M59.3772 154.498C28.7844 154.498 3.96875 106.747 3.96875 75.5827C3.96875 47.5838 24.1693 31.542 59.3937 31.542C94.6181 31.542 114.813 47.6058 114.813 75.5827C114.797 106.747 89.97 154.498 59.3772 154.498ZM59.3772 35.9185C44.034 35.9185 8.35252 39.7721 8.35252 75.5827C8.35252 104.33 31.7033 150.105 59.3772 150.105C87.0511 150.105 110.402 104.33 110.402 75.5827C110.402 39.7831 74.7149 35.9185 59.3772 35.9185V35.9185Z" fill="#144A8F"/>
<path d="M42.3428 86.0422C42.3428 86.0422 45.3167 98.7038 65.1979 100.603C66.5306 100.73 67.3182 99.0947 66.6022 97.9662C65.666 96.4853 62.681 94.0851 62.637 92.1198C67.0428 92.6317 74.2022 94.7677 77.9692 92.7308C78.2276 92.5891 78.4414 92.3782 78.5867 92.1218C78.7319 91.8654 78.8027 91.5736 78.7913 91.2792C78.7799 90.9848 78.6866 90.6994 78.5219 90.455C78.3572 90.2106 78.1277 90.0169 77.859 89.8957C75.4193 88.7947 75.5405 84.6879 74.4115 82.585" fill="#2494D1"/>
<path d="M42.9307 82.0181C42.9307 82.0181 44.6434 95.9735 69.404 94.1733C67.9336 92.2686 66.3695 90.2262 66.3035 87.4516C71.2159 88.0021 77.4226 88.1508 80.5507 84.4899C77.6319 83.9779 74.3606 81.7373 73.0058 79.1995" fill="white"/>
<path d="M65.0989 96.535C42.756 96.535 40.8174 82.8989 40.7403 82.2878C40.7067 81.7297 40.8867 81.1797 41.2438 80.7494C41.6009 80.3191 42.1084 80.0407 42.6633 79.9707C43.2182 79.9006 43.779 80.0442 44.2319 80.3723C44.6848 80.7004 44.9959 81.1884 45.1021 81.7373C45.1737 82.2272 46.8809 92.1419 65.1044 92.1419H65.3577C64.5752 90.7188 64.1429 89.1299 64.0966 87.5066C64.0928 87.1965 64.1546 86.889 64.278 86.6044C64.4014 86.3198 64.5835 86.0644 64.8125 85.8551C65.0457 85.6451 65.3212 85.4873 65.6204 85.3924C65.9196 85.2974 66.2356 85.2675 66.5473 85.3046C70.5125 85.767 73.5635 85.6624 75.7664 84.9853C73.8143 83.8521 72.1914 82.2298 71.0577 80.2784C70.8512 79.7753 70.8381 79.2136 71.0211 78.7015C71.2041 78.1894 71.5702 77.7631 72.0489 77.5047C72.5276 77.2463 73.085 77.1741 73.6138 77.302C74.1426 77.4299 74.6053 77.7489 74.9128 78.1975C75.9261 80.0913 78.6137 81.963 80.8992 82.3649C81.2796 82.4338 81.6351 82.6015 81.9301 82.8513C82.2251 83.1011 82.4492 83.424 82.5798 83.7878C82.7104 84.1515 82.7429 84.5432 82.6741 84.9234C82.6053 85.3037 82.4376 85.6592 82.1879 85.9542C79.0432 89.6426 73.7453 90.1876 69.1302 89.9454C69.697 90.9803 70.3608 91.9591 71.1128 92.8686C71.3539 93.1834 71.5056 93.5574 71.5517 93.9512C71.5978 94.345 71.5367 94.744 71.3748 95.1059C71.2129 95.4679 70.9563 95.7795 70.632 96.0077C70.3077 96.236 69.9277 96.3725 69.5322 96.4028C67.9865 96.4946 66.5087 96.5386 65.0989 96.535Z" fill="#144A8F"/>
<path d="M75.8145 62.5741C75.8145 66.9231 68.4568 74.922 59.3753 74.922C50.2939 74.922 42.9307 66.9231 42.9307 62.5741C42.9307 58.2251 49.5118 2.84937 58.5988 2.84937C67.6858 2.84937 75.8145 58.2306 75.8145 62.5741" fill="white"/>
<path d="M59.3774 77.1239C49.2661 77.1239 40.7354 68.1891 40.7354 62.574C40.7354 61.9409 46.2922 0.647217 58.6009 0.647217C71.0583 0.647217 78.0194 61.9574 78.0194 62.574C78.0194 68.1891 69.5052 77.1239 59.3774 77.1239ZM58.6009 5.04578C52.9559 5.04578 45.1356 53.92 45.1356 62.574C45.1356 65.5192 51.2983 72.7253 59.3774 72.7253C67.4565 72.7253 73.6191 65.5192 73.6191 62.574C73.6191 60.6141 71.5925 45.7614 68.4643 31.5583C62.7809 5.78897 58.6394 5.04578 58.6009 5.04578Z" fill="#144A8F"/>
<path d="M69.2554 140.476C69.4867 141.643 67.5702 140.416 65.5876 140.807C63.6049 141.197 62.2832 143.064 62.0739 141.908C61.8646 140.752 63.0322 138.313 65.0148 137.916C66.9974 137.52 69.0241 139.315 69.2554 140.487" fill="#144A8F"/>
<path d="M49.6772 140.476C49.4459 141.643 51.3624 140.416 53.3451 140.807C55.3277 141.197 56.6494 143.064 56.8587 141.908C57.068 140.752 55.9004 138.313 53.9178 137.916C51.9352 137.52 49.9085 139.315 49.6772 140.487" fill="#144A8F"/>
<path d="M28.7489 44.6108C28.7489 44.6108 15.7518 38.1809 3.73498 38.9516C-0.533136 51.2995 4.3573 63.6474 13.648 68.4588" fill="white"/>
<path d="M13.6218 70.6611C13.2692 70.6595 12.9219 70.5747 12.6084 70.4134C1.94089 64.8697 -2.76781 51.0355 1.65451 38.2306C1.79662 37.8213 2.05634 37.4631 2.40117 37.2006C2.74599 36.9382 3.16059 36.7833 3.59307 36.7552C16.0835 35.9295 29.1742 42.3649 29.725 42.6402C30.2146 42.9175 30.5795 43.3716 30.7448 43.9094C30.9101 44.4471 30.8632 45.0277 30.6138 45.532C30.3643 46.0363 29.9313 46.4261 29.4035 46.6213C28.8757 46.8165 28.2931 46.8024 27.7754 46.5818C27.6598 46.5268 16.2102 40.9666 5.3664 41.0767C2.43654 51.4263 6.2751 62.1667 14.6351 66.5103C15.0699 66.7389 15.4158 67.1063 15.6177 67.554C15.8197 68.0017 15.8661 68.504 15.7496 68.9811C15.6331 69.4583 15.3605 69.8828 14.9749 70.1871C14.5893 70.4915 14.1131 70.6584 13.6218 70.6611V70.6611Z" fill="#144A8F"/>
<path d="M7.96008 47.1929C7.6682 49.0316 8.04269 56.7277 14.8937 62.1172C14.9482 62.1752 15.0215 62.212 15.1006 62.221C15.1797 62.23 15.2595 62.2106 15.3256 62.1663C15.3917 62.122 15.44 62.0557 15.4618 61.9791C15.4835 61.9026 15.4774 61.8208 15.4444 61.7483C15.0127 60.5564 14.7297 59.3157 14.6018 58.0544C14.5964 57.9803 14.6119 57.9061 14.6467 57.8403C14.6814 57.7746 14.7339 57.72 14.7983 57.6826C14.8626 57.6453 14.9361 57.6268 15.0105 57.6293C15.0848 57.6318 15.1569 57.6551 15.2186 57.6966C15.8465 58.1205 16.6175 58.4178 18.1099 58.104C18.2213 58.0799 18.3255 58.03 18.414 57.9582C18.5026 57.8865 18.573 57.795 18.6196 57.6911C18.6663 57.5871 18.6878 57.4737 18.6825 57.3599C18.6772 57.2461 18.6452 57.1351 18.5891 57.036C18.2527 56.5363 18.0187 55.975 17.9007 55.3844C17.886 55.2843 17.8936 55.1821 17.923 55.0851C17.9524 54.9882 18.0028 54.899 18.0707 54.8238C18.1385 54.7486 18.2221 54.6893 18.3156 54.6502C18.409 54.611 18.5099 54.5929 18.6111 54.5972C21.2215 54.6908 23.2592 55.0156 24.8894 53.8485" fill="#2494D1"/>
<path d="M23.9488 52.1966C19.4419 50.0887 14.6807 48.5732 9.78418 47.688Z" fill="white"/>
<path d="M23.9494 54.3937C23.6117 54.3917 23.2788 54.3146 22.9746 54.1679C18.6585 52.1563 14.1015 50.7076 9.41576 49.8575C8.85981 49.7391 8.37116 49.4104 8.05197 48.9402C7.73278 48.4701 7.60776 47.8948 7.70306 47.3346C7.79835 46.7744 8.10658 46.2728 8.5633 45.9345C9.02002 45.5962 9.58988 45.4475 10.1537 45.5194C15.262 46.4357 20.2279 48.0182 24.9242 50.2263C25.365 50.4489 25.7181 50.8131 25.927 51.2605C26.1358 51.7078 26.1882 52.2124 26.0758 52.693C25.9633 53.1737 25.6926 53.6027 25.307 53.9111C24.9213 54.2195 24.4432 54.3895 23.9494 54.3937V54.3937Z" fill="#144A8F"/>
<path d="M89.9971 44.6108C89.9971 44.6108 103 38.1809 115.017 38.9516C119.285 51.2995 114.394 63.6474 105.103 68.4588" fill="white"/>
<path d="M105.132 70.6611C104.64 70.6596 104.163 70.4936 103.776 70.1897C103.39 69.8857 103.116 69.4612 102.999 68.9838C102.882 68.5064 102.928 68.0035 103.13 67.5552C103.331 67.107 103.678 66.7391 104.113 66.5103C112.462 62.1667 116.317 51.4263 113.387 41.0878C102.477 40.9116 91.0937 46.5268 90.9835 46.5818C90.4658 46.8024 89.8833 46.8165 89.3554 46.6213C88.8276 46.4261 88.3946 46.0363 88.1452 45.532C87.8957 45.0277 87.8489 44.4471 88.0141 43.9094C88.1794 43.3716 88.5443 42.9175 89.034 42.6402C89.5847 42.3704 102.708 35.957 115.171 36.7552C115.604 36.7833 116.018 36.9382 116.363 37.2006C116.708 37.4631 116.968 37.8213 117.11 38.2306C121.516 51.0355 116.824 64.8697 106.15 70.4134C105.836 70.5767 105.486 70.6617 105.132 70.6611Z" fill="#144A8F"/>
<path d="M110.808 47.1929C111.1 49.0316 110.726 56.7277 103.875 62.1172C103.82 62.1752 103.747 62.212 103.668 62.221C103.589 62.23 103.509 62.2106 103.443 62.1663C103.377 62.122 103.328 62.0557 103.307 61.9791C103.285 61.9026 103.291 61.8208 103.324 61.7483C103.753 60.5556 104.036 59.3152 104.166 58.0544C104.172 57.9803 104.156 57.9061 104.122 57.8403C104.087 57.7746 104.034 57.72 103.97 57.6826C103.906 57.6453 103.832 57.6268 103.758 57.6293C103.683 57.6318 103.611 57.6551 103.55 57.6966C102.922 58.1205 102.151 58.4178 100.658 58.104C100.547 58.0799 100.443 58.03 100.354 57.9582C100.266 57.8865 100.195 57.795 100.149 57.6911C100.102 57.5871 100.081 57.4737 100.086 57.3599C100.091 57.2461 100.123 57.1351 100.179 57.036C100.513 56.5351 100.747 55.9743 100.868 55.3844C100.882 55.2843 100.875 55.1821 100.845 55.0851C100.816 54.9882 100.765 54.899 100.698 54.8238C100.63 54.7486 100.546 54.6893 100.453 54.6502C100.359 54.611 100.258 54.5929 100.157 54.5972C97.5467 54.6908 95.5091 55.0156 93.8789 53.8485" fill="#2494D1"/>
<path d="M94.7988 52.1966C99.3075 50.0881 104.071 48.5726 108.969 47.688Z" fill="white"/>
<path d="M94.8039 54.3937C94.3096 54.3907 93.8307 54.2216 93.4441 53.9136C93.0576 53.6057 92.7859 53.1767 92.6727 52.6957C92.5596 52.2147 92.6116 51.7096 92.8203 51.2617C93.0291 50.8138 93.3825 50.4491 93.8236 50.2263C98.5234 48.0172 103.493 46.4347 108.605 45.5194C109.169 45.4475 109.739 45.5962 110.196 45.9345C110.652 46.2728 110.96 46.7744 111.056 47.3346C111.151 47.8948 111.026 48.4701 110.707 48.9402C110.388 49.4104 109.899 49.7391 109.343 49.8575C104.656 50.7081 100.097 52.1568 95.7787 54.1679C95.4746 54.3147 95.1416 54.3919 94.8039 54.3937V54.3937Z" fill="#144A8F"/>
<path d="M102.917 120.989C97.3161 133.1 86.2905 139.915 78.2885 136.221C70.2865 132.527 68.3424 119.706 73.9378 107.595C79.5331 95.4835 90.5642 88.6627 98.5662 92.3621C106.568 96.0615 108.518 108.877 102.917 120.989Z" fill="white"/>
<path d="M82.9798 139.431C81.0428 139.439 79.1273 139.024 77.368 138.214C72.8024 136.106 69.7735 131.553 68.8372 125.393C67.9506 119.568 69.0575 112.918 71.9433 106.675C78.0453 93.4631 90.4091 86.1743 99.4796 90.3692C108.55 94.5641 111.001 108.718 104.904 121.908C102.013 128.151 97.6622 133.298 92.6506 136.397C89.4068 138.412 86.1025 139.431 82.9798 139.431ZM93.9393 93.5732C87.6224 93.5732 80.0775 99.5627 75.9361 108.519C73.4082 113.992 72.4279 119.75 73.1824 124.732C73.8874 129.384 76.0297 132.758 79.2074 134.223C82.3851 135.687 86.3668 135.137 90.343 132.659C94.6277 130.006 98.3836 125.536 100.911 120.064C105.907 109.263 104.409 97.4928 97.6401 94.3604C96.4785 93.8319 95.2155 93.5632 93.9393 93.5732Z" fill="#144A8F"/>
<path d="M91.6655 114.267C91.6666 116.143 91.1111 117.977 90.0694 119.538C89.0276 121.098 87.5463 122.315 85.8128 123.034C84.0794 123.752 82.1716 123.941 80.3307 123.576C78.4898 123.212 76.7985 122.309 75.4707 120.983C74.1428 119.658 73.2381 117.968 72.8709 116.128C72.5037 114.289 72.6905 112.381 73.4077 110.648C74.1249 108.914 75.3403 107.432 76.9001 106.389C78.46 105.346 80.2942 104.788 82.171 104.787C84.6862 104.789 87.0981 105.788 88.8771 107.565C90.6562 109.342 91.657 111.753 91.66 114.267" fill="#144A8F"/>
<path d="M15.8352 120.988C21.4306 133.1 32.4561 139.915 40.4581 136.221C48.4602 132.527 50.4097 119.706 44.8089 107.595C39.208 95.4834 28.199 88.6681 20.1804 92.3675C12.1619 96.0669 10.2343 108.883 15.8352 120.994" fill="white"/>
<path d="M35.7667 139.43C32.6441 139.43 29.3398 138.412 26.0905 136.397C21.0789 133.298 16.7282 128.139 13.8369 121.908C7.74033 108.696 10.169 94.5695 19.2615 90.3691C28.354 86.1687 40.7067 93.485 46.7978 106.675C49.6836 112.918 50.785 119.568 49.8983 125.392C48.9621 131.553 45.9331 136.105 41.3731 138.214C39.6154 139.023 37.7019 139.438 35.7667 139.43V139.43ZM24.8128 93.573C23.5347 93.5617 22.2696 93.8304 21.1064 94.3603C14.338 97.4927 12.8456 109.263 17.8296 120.064C20.3574 125.536 24.1134 130.006 28.4035 132.659C32.4073 135.158 36.3615 135.709 39.5392 134.223C42.7169 132.736 44.8537 129.384 45.5641 124.732C46.3186 119.75 45.3438 113.991 42.8105 108.519C38.6635 99.5626 31.1296 93.573 24.8128 93.573V93.573Z" fill="#144A8F"/>
<path d="M15.8352 120.988C21.4306 133.1 32.4561 139.915 40.4581 136.221C48.4602 132.527 50.4097 119.706 44.8089 107.595C39.208 95.4834 28.199 88.6681 20.1804 92.3675C12.1619 96.0669 10.2343 108.883 15.8352 120.994" fill="white"/>
<path d="M35.7667 139.43C32.6441 139.43 29.3398 138.412 26.0905 136.397C21.0789 133.298 16.7282 128.139 13.8369 121.908C7.74033 108.696 10.169 94.5695 19.2615 90.3691C28.354 86.1687 40.7067 93.485 46.7978 106.675C49.6836 112.918 50.785 119.568 49.8983 125.392C48.9621 131.553 45.9331 136.105 41.3731 138.214C39.6154 139.023 37.7019 139.438 35.7667 139.43V139.43ZM24.8128 93.573C23.5347 93.5617 22.2696 93.8304 21.1064 94.3603C14.338 97.4927 12.8456 109.263 17.8296 120.064C20.3574 125.536 24.1134 130.006 28.4035 132.659C32.4073 135.158 36.3615 135.709 39.5392 134.223C42.7169 132.736 44.8537 129.384 45.5641 124.732C46.3186 119.75 45.3438 113.991 42.8105 108.519C38.6635 99.5626 31.1296 93.573 24.8128 93.573V93.573Z" fill="#144A8F"/>
<path d="M27.0986 114.267C27.0975 116.143 27.6531 117.978 28.6951 119.538C29.7371 121.099 31.2187 122.315 32.9525 123.034C34.6863 123.753 36.5944 123.941 38.4355 123.576C40.2765 123.211 41.9678 122.308 43.2954 120.981C44.623 119.655 45.5273 117.965 45.8939 116.125C46.2605 114.285 46.0729 112.377 45.3548 110.644C44.6368 108.91 43.4206 107.429 41.86 106.386C40.2994 105.344 38.4646 104.787 36.5876 104.787C34.0719 104.787 31.6592 105.786 29.8798 107.563C28.1005 109.341 27.1001 111.752 27.0986 114.267Z" fill="#144A8F"/>
<path d="M46.104 114.267C46.1051 116.143 45.5493 117.978 44.5071 119.539C43.4648 121.099 41.9829 122.316 40.2488 123.035C38.5147 123.753 36.6063 123.941 34.7651 123.576C32.9239 123.21 31.2326 122.306 29.9052 120.979C28.5779 119.653 27.674 117.962 27.308 116.122C26.9421 114.281 27.1305 112.373 27.8493 110.64C28.5682 108.907 29.7853 107.425 31.3466 106.383C32.9079 105.342 34.7433 104.786 36.6205 104.787C39.1352 104.789 41.5465 105.788 43.3247 107.565C45.1029 109.343 46.1025 111.753 46.104 114.267" fill="#144A8F"/>
<path d="M46.0497 109.285C46.0497 110.373 45.7267 111.438 45.1215 112.343C44.5164 113.248 43.6563 113.954 42.6499 114.371C41.6436 114.787 40.5363 114.896 39.468 114.684C38.3997 114.472 37.4184 113.947 36.6482 113.177C35.878 112.407 35.3535 111.427 35.141 110.359C34.9285 109.291 35.0375 108.184 35.4544 107.178C35.8712 106.172 36.5771 105.312 37.4827 104.707C38.3884 104.102 39.4532 103.78 40.5424 103.78C42.003 103.78 43.4038 104.36 44.4366 105.392C45.4694 106.424 46.0497 107.825 46.0497 109.285Z" fill="white"/>
<path d="M47.8815 135.384C46.5067 137.09 45.821 139.248 45.9597 141.434C46.0983 143.62 47.0512 145.674 48.6305 147.193C50.9435 149.395 56.0047 150.699 58.5986 150.925C58.5986 150.925 39.6867 149.681 33.3203 140.355C36.0739 137.515 43.2334 133.65 45.3702 130.925C47.507 128.2 52.0395 122.904 55.0574 125.558" fill="#2494D1"/>
<path d="M52.051 124.853C52.051 124.853 55.6638 104.286 39.9736 98.4011C43.3551 106.015 50.3548 122.574 47.0009 128.784C43.647 134.993 52.051 124.853 52.051 124.853" fill="#2494D1"/>
<path d="M59.3649 154.498C48.8185 154.498 38.2115 148.855 28.684 138.186C28.5186 137.996 28.3847 137.78 28.2874 137.548C22.626 134.828 17.2729 129.29 13.8364 121.913C7.73987 108.701 10.1741 94.5694 19.261 90.369C23.821 88.2606 29.2567 88.9046 34.5547 92.1857C39.5718 95.285 43.917 100.443 46.8083 106.675C49.639 112.802 50.6304 119.139 49.9695 124.589C52.5863 122.156 56.0443 120.832 59.6171 120.895C63.1898 120.958 66.5993 122.402 69.1292 124.924L76.9605 132.709C77.3309 133.128 77.5278 133.672 77.5112 134.232C77.4946 134.791 77.2657 135.323 76.8711 135.719C76.4764 136.116 75.9456 136.347 75.3864 136.367C74.8271 136.386 74.2814 136.193 73.8599 135.825L66.0231 128.035C64.2589 126.277 61.8696 125.29 59.3786 125.29C56.8877 125.29 54.4983 126.277 52.7341 128.035L45.0735 135.659C45.0041 135.726 44.9305 135.789 44.8532 135.847C43.8358 136.824 42.6634 137.625 41.3837 138.219C39.6977 138.989 37.8676 139.392 36.0141 139.403C41.9564 144.908 50.008 150.105 59.3649 150.105C59.9491 150.105 60.5094 150.337 60.9225 150.75C61.3357 151.163 61.5678 151.723 61.5678 152.307C61.5678 152.891 61.3357 153.451 60.9225 153.864C60.5094 154.277 59.9491 154.509 59.3649 154.509V154.498ZM17.8292 120.063C22.9123 131.074 32.6382 137.41 39.5387 134.223C46.3072 131.096 47.7996 119.326 42.8431 108.519C40.3153 103.053 36.5593 98.5771 32.2692 95.9236C28.2654 93.4463 24.3112 92.8958 21.1335 94.3602C14.3651 97.4871 12.8726 109.262 17.8567 120.063H17.8292Z" fill="#144A8F"/>
<path d="M102.211 160.713C98.9069 160.713 95.4373 159.821 91.7475 158.049C91.2457 157.782 90.8664 157.332 90.6887 156.793C90.511 156.253 90.5487 155.666 90.794 155.154C91.0392 154.641 91.473 154.244 92.0048 154.043C92.5365 153.843 93.1251 153.856 93.6475 154.08C100.625 157.416 105.323 156.546 108.925 154.63C107.025 152.979 105.461 151.685 105.455 151.685C105.064 151.348 104.804 150.884 104.721 150.375C104.637 149.866 104.735 149.343 104.997 148.899C105.259 148.455 105.67 148.117 106.156 147.943C106.642 147.77 107.174 147.774 107.658 147.952C111.783 149.604 115.462 149.538 118.898 147.82C123.243 145.651 126.394 141.181 128.486 137.179C125.182 138.473 120.506 139.029 114.074 137.526C100.465 134.333 91.7254 145.508 91.362 145.987C91.0006 146.427 90.4828 146.71 89.9171 146.777C89.3514 146.844 88.7819 146.689 88.328 146.345C87.8741 146.001 87.5712 145.495 87.4828 144.932C87.3944 144.37 87.5274 143.795 87.8538 143.328C88.2889 142.778 98.626 129.389 115.082 133.243C128.194 136.315 131.664 129.307 131.807 129.009C132.04 128.509 132.452 128.115 132.962 127.904C133.472 127.693 134.042 127.681 134.561 127.87C135.075 128.06 135.5 128.435 135.753 128.921C136.006 129.408 136.068 129.971 135.927 130.501C135.75 131.151 131.466 146.466 120.87 151.745C118.814 152.789 116.563 153.391 114.261 153.513C114.451 153.745 114.591 154.014 114.673 154.303C114.755 154.591 114.777 154.894 114.737 155.191C114.698 155.489 114.599 155.775 114.445 156.032C114.291 156.29 114.086 156.513 113.843 156.689C110.098 159.381 106.276 160.713 102.211 160.713Z" fill="#144A8F"/>
<path d="M51.4791 182.53H33.4648V189.983H51.4791V182.53Z" fill="#EB2126"/>
<path d="M79.3837 185.872H61.375V193.325H79.3837V185.872Z" fill="#EB2126"/>
<path d="M70.0828 194.294C69.4985 194.294 68.9382 194.062 68.5251 193.649C68.112 193.236 67.8799 192.676 67.8799 192.092V189.053C67.8799 188.469 68.112 187.909 68.5251 187.496C68.9382 187.083 69.4985 186.851 70.0828 186.851C70.667 186.851 71.2274 187.083 71.6405 187.496C72.0536 187.909 72.2857 188.469 72.2857 189.053V192.092C72.2857 192.676 72.0536 193.236 71.6405 193.649C71.2274 194.062 70.667 194.294 70.0828 194.294V194.294Z" fill="#144A8F"/>
<path d="M33.7783 181.721C33.7783 181.721 36.2676 181.721 38.1841 181.611C38.7899 181.583 39.225 182.398 38.9937 183.146C38.107 186.042 38.8726 188.382 38.2007 189.285C37.3966 190.347 32.9082 188.701 32.9082 188.701L33.7783 181.721Z" fill="#A62126"/>
<path d="M61.1162 185.37C61.1162 185.37 63.5835 185.046 65.4724 184.71C66.0672 184.605 66.5739 185.359 66.4637 186.13C65.9516 189.114 67.0145 191.338 66.4637 192.318C65.7974 193.479 61.1382 192.406 61.1382 192.406L61.1162 185.37Z" fill="#A62126"/>
<path d="M51.1542 59.7937C51.1542 59.7937 60.3734 67.5449 66.6792 65.8493C70.4902 64.8199 66.4644 73.0059 51.6884 70.9525C36.3122 68.8055 44.2812 53.1326 44.2812 53.1326L51.1542 59.7937Z" fill="#EB2126"/>
<path d="M53.1738 43.7353C54.2312 46.2346 62.2663 50.0111 67.8562 49.6918C68.2256 49.6657 68.5931 49.7643 68.8997 49.972C69.2063 50.1796 69.4342 50.4842 69.5469 50.8369C70.8851 55.1639 70.9292 60.146 69.8057 62.1499C68.7043 64.0656 44.1749 59.5515 44.0703 49.2129C43.9657 38.8743 48.1071 38.6707 48.1071 38.6707L53.1738 43.7353Z" fill="#EB2126"/>
<path d="M53.335 26.455C54.1666 28.8387 60.4504 32.6262 64.68 33.0061C65.1774 33.053 65.6504 33.2435 66.0415 33.5543C66.4326 33.8651 66.7249 34.2829 66.8829 34.7567C67.9843 37.9937 68.3093 41.4894 68.8324 44.6163C69.1629 46.5761 45.9443 42.2711 45.8562 31.9546C45.7681 21.6381 49.1605 21.4124 49.1605 21.4124L53.335 26.455Z" fill="#EB2126"/>
<path d="M67.1366 64.2254C60.1148 64.2254 53.8146 61.2802 51.507 60.0635C47.2279 57.7955 42.5192 54.1786 42.0401 50.8205C41.9894 50.2559 42.1586 49.6934 42.5123 49.2503C42.8661 48.8072 43.3772 48.5175 43.9392 48.4416C44.5013 48.3657 45.0709 48.5094 45.5296 48.8428C45.9883 49.1762 46.3007 49.6736 46.4018 50.2315C46.5505 51.0958 49.0508 53.9034 54.1505 56.4742C56.9372 57.878 66.6464 62.15 74.6154 58.1643C74.8754 58.0151 75.1631 57.9205 75.4609 57.8863C75.7587 57.852 76.0603 57.8789 76.3474 57.9653C76.6344 58.0517 76.9008 58.1957 77.1302 58.3886C77.3596 58.5814 77.5473 58.819 77.6816 59.0869C77.816 59.3548 77.8943 59.6472 77.9116 59.9464C77.929 60.2455 77.8851 60.545 77.7826 60.8266C77.6801 61.1082 77.5212 61.366 77.3157 61.584C77.1101 61.8021 76.8622 61.976 76.587 62.0949C73.6469 63.5342 70.4101 64.2639 67.1366 64.2254V64.2254ZM65.8534 47.7101C61.1921 47.6143 56.6232 46.3923 52.5369 44.1483C48.825 42.183 44.7221 39.0286 44.3201 36.0669C44.263 35.4996 44.4282 34.9324 44.781 34.4845C45.1338 34.0365 45.6466 33.7428 46.2116 33.6651C46.7765 33.5874 47.3497 33.7317 47.8104 34.0677C48.2711 34.4037 48.5834 34.9053 48.6818 35.4668C48.8856 36.2045 51.2867 38.8249 56.1056 41.0214C58.9308 42.3096 66.1508 44.9796 72.1592 41.9628C72.6757 41.7395 73.258 41.7222 73.7869 41.9145C74.3157 42.1068 74.7508 42.494 75.003 42.9969C75.2553 43.4997 75.3054 44.0799 75.1432 44.6186C74.981 45.1572 74.6188 45.6133 74.1308 45.8935C71.5507 47.1348 68.7164 47.7568 65.8534 47.7101V47.7101Z" fill="#144A8F"/>
<path d="M64.6953 23.3391C64.8044 23.7898 64.7352 24.2652 64.5024 24.6662C64.2695 25.0671 63.8908 25.3628 63.4452 25.4916C61.7344 26.0896 59.9421 26.4219 58.1307 26.4771C51.8799 26.6257 49.3301 19.0397 49.3301 19.0397C49.3301 19.0397 51.7698 4.47871 57.255 4.62735C59.1165 4.6769 63.2855 17.4762 64.6953 23.3447" fill="#EB2126"/>
<path d="M59.3764 77.1239C49.2651 77.1239 40.7344 68.1891 40.7344 62.574C40.7344 62.1996 42.8161 39.1058 47.2439 21.2362C47.2658 21.0357 47.3158 20.8393 47.3926 20.6527C50.1903 9.57097 53.9022 0.647217 58.5999 0.647217C71.0573 0.647217 78.0185 61.9574 78.0185 62.574C78.0185 68.1891 69.5042 77.1239 59.3764 77.1239ZM50.6364 26.3174C47.5358 40.6307 45.1292 57.7845 45.1292 62.574C45.1292 65.5192 51.2918 72.7253 59.3709 72.7253C67.45 72.7253 73.6127 65.5192 73.6127 62.574C73.6127 60.6141 71.586 45.7614 68.4579 31.5583C68.3918 31.2445 68.3202 30.9362 68.2541 30.6334C63.9584 31.7345 58.7541 30.9637 53.8031 28.3433C52.695 27.7538 51.636 27.0764 50.6364 26.3174V26.3174ZM51.7654 21.3629C52.3987 22.2217 54.5796 24.1154 58.0767 25.4752C60.1254 26.2789 63.8153 27.3359 67.2573 26.367C62.2071 5.67336 58.6329 5.05129 58.5999 5.05129C56.4521 5.04578 53.9903 12.1198 51.7654 21.3574V21.3629Z" fill="#144A8F"/>
<path d="M91.6034 109.285C91.6034 110.373 91.2804 111.438 90.6752 112.343C90.0701 113.248 89.21 113.954 88.2037 114.371C87.1973 114.787 86.09 114.896 85.0217 114.684C83.9534 114.472 82.9721 113.947 82.2019 113.177C81.4317 112.407 80.9072 111.427 80.6947 110.359C80.4822 109.291 80.5913 108.184 81.0081 107.178C81.4249 106.172 82.1308 105.312 83.0365 104.707C83.9421 104.102 85.0069 103.78 86.0961 103.78C87.5567 103.78 88.9575 104.36 89.9903 105.392C91.0231 106.424 91.6034 107.825 91.6034 109.285Z" fill="white"/>
<path d="M59.4629 159.931L59.6556 159.458C61.5887 159.089 64.4194 160.372 65.196 162.177L67.6687 169.378C68.0021 170.352 68.0461 171.402 67.7954 172.4L64.9371 183.868L63.8632 170.798L59.4629 159.931Z" fill="#2494D1"/>
<path d="M42.0501 191.861C41.4658 191.861 40.9055 191.629 40.4924 191.216C40.0793 190.803 39.8472 190.243 39.8472 189.659V186.956C39.8472 186.372 40.0793 185.812 40.4924 185.399C40.9055 184.986 41.4658 184.754 42.0501 184.754C42.6343 184.754 43.1946 184.986 43.6078 185.399C44.0209 185.812 44.253 186.372 44.253 186.956V189.659C44.253 190.243 44.0209 190.803 43.6078 191.216C43.1946 191.629 42.6343 191.861 42.0501 191.861ZM49.9805 183.157H33.4588C32.8745 183.157 32.3142 182.925 31.9011 182.513C31.488 182.1 31.2559 181.539 31.2559 180.955C31.2559 180.371 31.488 179.811 31.9011 179.398C32.3142 178.985 32.8745 178.753 33.4588 178.753H49.9805C50.5648 178.753 51.1251 178.985 51.5382 179.398C51.9513 179.811 52.1834 180.371 52.1834 180.955C52.1834 181.539 51.9513 182.1 51.5382 182.513C51.1251 182.925 50.5648 183.157 49.9805 183.157Z" fill="#144A8F"/>
<path d="M78.3167 186.053H62.6541C62.0698 186.053 61.5095 185.821 61.0964 185.408C60.6833 184.995 60.4512 184.435 60.4512 183.851C60.4512 183.267 60.6833 182.707 61.0964 182.294C61.5095 181.881 62.0698 181.649 62.6541 181.649H78.3167C78.901 181.649 79.4613 181.881 79.8744 182.294C80.2876 182.707 80.5197 183.267 80.5197 183.851C80.5197 184.435 80.2876 184.995 79.8744 185.408C79.4613 185.821 78.901 186.053 78.3167 186.053Z" fill="#144A8F"/>
<path d="M60.8413 162.728C62.8624 164.748 66.3816 170.33 64.9276 171.778C63.4737 173.226 58.8697 171.921 56.865 169.901C54.8604 167.881 54.194 165.156 55.6479 163.708C58.6273 164.935 58.8201 160.708 60.8413 162.728" fill="#2494D1"/>
<path d="M49.7819 192.18H32.9738C32.6726 192.181 32.3744 192.119 32.0978 192C31.8212 191.881 31.572 191.706 31.3657 191.487C31.1595 191.266 31.0009 191.006 30.8995 190.722C30.7981 190.438 30.7562 190.136 30.7764 189.835L32.4726 164.286C32.4882 164.071 32.5346 163.86 32.6103 163.658L39.2906 145.86C39.5152 145.341 39.9308 144.929 40.4514 144.708C40.972 144.487 41.5576 144.475 42.0871 144.673C42.6165 144.872 43.0492 145.267 43.2955 145.776C43.5417 146.285 43.5828 146.869 43.41 147.407L36.8454 164.886L35.3254 187.787H47.6286L47.9425 173.584C47.9505 173.293 48.016 173.007 48.1353 172.742L51.9903 164.137C52.0984 163.859 52.2618 163.606 52.4705 163.394C52.6793 163.181 52.9291 163.012 53.2049 162.899C53.4806 162.786 53.7765 162.729 54.0747 162.733C54.3728 162.738 54.667 162.802 54.9395 162.924C55.2119 163.045 55.4568 163.22 55.6595 163.439C55.8621 163.657 56.0183 163.915 56.1184 164.196C56.2186 164.476 56.2607 164.775 56.2421 165.072C56.2236 165.37 56.1448 165.66 56.0106 165.926L52.3593 174.123L52.0069 190.033C51.9924 190.611 51.7509 191.161 51.3346 191.563C50.9183 191.964 50.3606 192.186 49.7819 192.18Z" fill="#144A8F"/>
<path d="M62.5021 179.447H51.1406V186.251H62.5021V179.447Z" fill="#EB2126"/>
<path d="M62.5097 188.453H51.1482C50.564 188.453 50.0037 188.221 49.5905 187.808C49.1774 187.395 48.9453 186.835 48.9453 186.251V179.447C48.9453 178.863 49.1774 178.303 49.5905 177.89C50.0037 177.477 50.564 177.245 51.1482 177.245H62.5097C63.0939 177.245 63.6543 177.477 64.0674 177.89C64.4805 178.303 64.7126 178.863 64.7126 179.447V186.257C64.7111 186.84 64.4784 187.398 64.0654 187.81C63.6525 188.222 63.093 188.453 62.5097 188.453ZM53.3456 184.049H60.3068V181.638H53.3456V184.049Z" fill="#144A8F"/>
<path d="M78.6958 194.289H61.8876C61.5808 194.29 61.2772 194.227 60.9962 194.105C60.7151 193.982 60.4628 193.802 60.2554 193.576C60.048 193.35 59.8901 193.083 59.7919 192.792C59.6936 192.502 59.6571 192.194 59.6847 191.889L61.6067 171.146L57.7517 162.398C57.5447 161.868 57.5512 161.278 57.77 160.752C57.9887 160.226 58.4026 159.806 58.9249 159.579C59.4471 159.351 60.0371 159.335 60.571 159.534C61.1049 159.732 61.5412 160.129 61.7885 160.642L65.8363 169.907C65.9899 170.252 66.0488 170.632 66.007 171.008L64.2612 189.918H76.7627L80.392 166.246C80.4239 165.95 80.5155 165.664 80.6611 165.405C80.8067 165.146 81.0033 164.918 81.2392 164.737C81.475 164.556 81.7452 164.424 82.0333 164.35C82.3214 164.276 82.6216 164.261 82.9157 164.306C83.2098 164.351 83.4917 164.455 83.7444 164.612C83.9971 164.769 84.2155 164.975 84.3862 165.219C84.5569 165.462 84.6765 165.738 84.7378 166.029C84.7991 166.32 84.8008 166.621 84.7427 166.912L82.1708 184.077C82.2772 184.071 82.3839 184.071 82.4903 184.077H85.2934C85.4329 183.628 85.7123 183.236 86.0908 182.957C86.4693 182.678 86.9271 182.528 87.3972 182.528C87.8673 182.528 88.3251 182.678 88.7036 182.957C89.0822 183.236 89.3616 183.628 89.501 184.077H92.1995C91.792 151.856 82.4792 143.169 82.3801 143.086C81.9449 142.702 81.6793 142.161 81.6412 141.581C81.603 141.002 81.7953 140.431 82.1763 139.992C82.5541 139.559 83.0865 139.291 83.6597 139.244C84.2328 139.198 84.8014 139.378 85.2439 139.745C85.7065 140.141 96.6109 149.78 96.6109 186.274C96.6109 186.858 96.3788 187.418 95.9656 187.831C95.5525 188.244 94.9922 188.476 94.408 188.476H82.4682C82.1368 188.476 81.8096 188.402 81.51 188.261L80.8711 192.445C80.7862 192.96 80.5208 193.429 80.1223 193.766C79.7239 194.104 79.2182 194.289 78.6958 194.289V194.289ZM56.2537 187.386C55.6694 187.386 55.1091 187.154 54.696 186.741C54.2829 186.328 54.0508 185.768 54.0508 185.184V184.705C54.0508 184.121 54.2829 183.561 54.696 183.148C55.1091 182.735 55.6694 182.503 56.2537 182.503C56.8379 182.503 57.3982 182.735 57.8114 183.148C58.2245 183.561 58.4566 184.121 58.4566 184.705V185.195C58.4537 185.777 58.2203 186.334 57.8075 186.745C57.3947 187.155 56.836 187.386 56.2537 187.386V187.386Z" fill="#144A8F"/>
<path d="M41.7918 147.672L34.6709 164.44L33.4648 180.955H49.9866L53.2029 179.144L62.5156 179.469L62.6588 183.873H79.9681L81.2128 179.469H94.287C94.287 179.469 90.6247 147.27 84.3739 142.965C60.6432 159.084 41.7863 147.688 41.7863 147.688" fill="white"/>
<path d="M84.6921 166.472L85.6559 178.743H81.0684L84.6921 166.472Z" fill="#2494D1"/>
<path d="M39.3359 152.296C39.3359 152.296 53.6988 160.873 70.92 152.296C84.6881 145.453 41.7922 147.672 41.7922 147.672L39.3359 152.296Z" fill="#2494D1"/>
<path d="M94.3915 186.257H80.3535L81.2071 179.447H94.2869C94.2869 179.447 94.4246 184.038 94.4025 186.257" fill="#EB2126"/>
<path d="M94.3906 188.453H80.3526C80.0397 188.456 79.7298 188.391 79.4438 188.264C79.1577 188.138 78.9019 187.951 78.6935 187.718C78.485 187.485 78.3287 187.21 78.235 186.911C78.1412 186.613 78.1122 186.298 78.1497 185.987L79.0199 179.199C79.0873 178.664 79.3488 178.172 79.7549 177.817C80.1609 177.462 80.6832 177.268 81.2228 177.273H94.2859C94.858 177.272 95.4077 177.494 95.8188 177.892C96.23 178.29 96.4702 178.831 96.4888 179.403C96.4888 179.403 96.6265 184.055 96.6045 186.301C96.5915 186.878 96.3522 187.427 95.9381 187.83C95.524 188.232 94.9682 188.456 94.3906 188.453V188.453ZM82.8254 184.049H92.1877C92.1877 183.229 92.1546 182.398 92.1381 181.638H83.1503L82.8254 184.049Z" fill="#144A8F"/>
<path d="M89.6064 144.633C89.6064 144.633 99.3267 131.789 114.576 135.368C129.826 138.946 133.808 129.907 133.808 129.907C133.808 129.907 126.23 157.63 106.822 149.984C106.822 149.984 109.802 152.483 112.55 154.889C106.728 159.067 101.447 161.55 90.9998 155.263" fill="#2494D1"/>
<path d="M88.29 146.824C88.29 146.824 98.1425 132.406 110.627 135.324C123.112 138.242 130.635 135.159 130.635 135.159C130.635 135.159 121.945 152.951 108.056 144.727C105.638 142.998 102.4 143.383 100.819 145.585C99.2384 147.787 99.9158 150.98 102.334 152.709C98.6767 154.19 93.8083 152.302 91.1979 150.562" fill="white"/>
<path d="M45.8215 149.532C45.8215 149.532 47.347 145.607 41.7957 147.672C36.2444 149.736 32.6592 181.027 32.6592 181.027H35.1485C36.5143 181.027 39.2569 180.768 39.1633 179.408C39.1633 179.408 39.334 170.16 39.9783 165.002C41.267 160.262 45.8215 149.532 45.8215 149.532Z" fill="#2494D1"/>
<path d="M112.597 75.5826C112.597 105.47 88.7667 152.302 59.3745 152.302C29.9823 152.302 6.16895 105.47 6.16895 75.5826C6.16895 45.6954 29.9988 33.7439 59.391 33.7439C88.7832 33.7439 112.613 45.7175 112.613 75.5826" fill="white"/>
<path d="M59.3772 154.498C28.7844 154.498 3.96875 106.747 3.96875 75.5827C3.96875 47.5838 24.1693 31.542 59.3937 31.542C94.6181 31.542 114.813 47.6058 114.813 75.5827C114.797 106.747 89.97 154.498 59.3772 154.498ZM59.3772 35.9185C44.034 35.9185 8.35252 39.7721 8.35252 75.5827C8.35252 104.33 31.7033 150.105 59.3772 150.105C87.0511 150.105 110.402 104.33 110.402 75.5827C110.402 39.7831 74.7149 35.9185 59.3772 35.9185V35.9185Z" fill="#144A8F"/>
<path d="M13.7826 70.6005C13.7826 70.6005 8.55072 71.4373 5.97883 70.3693C2.52027 68.9325 8.13767 64.6165 8.13767 64.6165L13.7826 70.6005Z" fill="#2494D1"/>
<path d="M72.1742 65.0237C72.1742 71.6848 67.7683 73.9089 59.5075 77.0468C50.1451 77.0468 31.2607 71.6848 31.2607 65.0237C31.2607 58.3625 51.8799 52.9565 61.2422 52.9565C70.6046 52.9565 72.1576 58.357 72.1576 65.0237" fill="#2494D1"/>
<path d="M67.4113 125.007C67.4113 125.007 64.5034 112.896 73.6124 108.828C71.8886 113.485 68.3365 123.592 70.5614 127.16C72.7863 130.727 67.4113 125.007 67.4113 125.007" fill="#2494D1"/>
<path d="M59.3772 154.498C28.7844 154.498 3.96875 106.747 3.96875 75.5827C3.96875 47.5838 24.1693 31.542 59.3937 31.542C94.6181 31.542 114.813 47.6058 114.813 75.5827C114.797 106.747 89.97 154.498 59.3772 154.498ZM59.3772 35.9185C44.034 35.9185 8.35252 39.7721 8.35252 75.5827C8.35252 104.33 31.7033 150.105 59.3772 150.105C87.0511 150.105 110.402 104.33 110.402 75.5827C110.402 39.7831 74.7149 35.9185 59.3772 35.9185V35.9185Z" fill="#144A8F"/>
<path d="M42.3428 86.0422C42.3428 86.0422 45.3167 98.7038 65.1979 100.603C66.5306 100.73 67.3182 99.0947 66.6022 97.9662C65.666 96.4853 62.681 94.0851 62.637 92.1198C67.0428 92.6317 74.2022 94.7677 77.9692 92.7308C78.2276 92.5891 78.4414 92.3782 78.5867 92.1218C78.7319 91.8654 78.8027 91.5736 78.7913 91.2792C78.7799 90.9848 78.6866 90.6994 78.5219 90.455C78.3572 90.2106 78.1277 90.0169 77.859 89.8957C75.4193 88.7947 75.5405 84.6879 74.4115 82.585" fill="#2494D1"/>
<path d="M42.9307 82.0181C42.9307 82.0181 44.6434 95.9735 69.404 94.1733C67.9336 92.2686 66.3695 90.2262 66.3035 87.4516C71.2159 88.0021 77.4226 88.1508 80.5507 84.4899C77.6319 83.9779 74.3606 81.7373 73.0058 79.1995" fill="white"/>
<path d="M65.0989 96.535C42.756 96.535 40.8174 82.8989 40.7403 82.2878C40.7067 81.7297 40.8867 81.1797 41.2438 80.7494C41.6009 80.3191 42.1084 80.0407 42.6633 79.9707C43.2182 79.9006 43.779 80.0442 44.2319 80.3723C44.6848 80.7004 44.9959 81.1884 45.1021 81.7373C45.1737 82.2272 46.8809 92.1419 65.1044 92.1419H65.3577C64.5752 90.7188 64.1429 89.1299 64.0966 87.5066C64.0928 87.1965 64.1546 86.889 64.278 86.6044C64.4014 86.3198 64.5835 86.0644 64.8125 85.8551C65.0457 85.6451 65.3212 85.4873 65.6204 85.3924C65.9196 85.2974 66.2356 85.2675 66.5473 85.3046C70.5125 85.767 73.5635 85.6624 75.7664 84.9853C73.8143 83.8521 72.1914 82.2298 71.0577 80.2784C70.8512 79.7753 70.8381 79.2136 71.0211 78.7015C71.2041 78.1894 71.5702 77.7631 72.0489 77.5047C72.5276 77.2463 73.085 77.1741 73.6138 77.302C74.1426 77.4299 74.6053 77.7489 74.9128 78.1975C75.9261 80.0913 78.6137 81.963 80.8992 82.3649C81.2796 82.4338 81.6351 82.6015 81.9301 82.8513C82.2251 83.1011 82.4492 83.424 82.5798 83.7878C82.7104 84.1515 82.7429 84.5432 82.6741 84.9234C82.6053 85.3037 82.4376 85.6592 82.1879 85.9542C79.0432 89.6426 73.7453 90.1876 69.1302 89.9454C69.697 90.9803 70.3608 91.9591 71.1128 92.8686C71.3539 93.1834 71.5056 93.5574 71.5517 93.9512C71.5978 94.345 71.5367 94.744 71.3748 95.1059C71.2129 95.4679 70.9563 95.7795 70.632 96.0077C70.3077 96.236 69.9277 96.3725 69.5322 96.4028C67.9865 96.4946 66.5087 96.5386 65.0989 96.535Z" fill="#144A8F"/>
<path d="M75.8145 62.5741C75.8145 66.9231 68.4568 74.922 59.3753 74.922C50.2939 74.922 42.9307 66.9231 42.9307 62.5741C42.9307 58.2251 49.5118 2.84937 58.5988 2.84937C67.6858 2.84937 75.8145 58.2306 75.8145 62.5741" fill="white"/>
<path d="M59.3774 77.1239C49.2661 77.1239 40.7354 68.1891 40.7354 62.574C40.7354 61.9409 46.2922 0.647217 58.6009 0.647217C71.0583 0.647217 78.0194 61.9574 78.0194 62.574C78.0194 68.1891 69.5052 77.1239 59.3774 77.1239ZM58.6009 5.04578C52.9559 5.04578 45.1356 53.92 45.1356 62.574C45.1356 65.5192 51.2983 72.7253 59.3774 72.7253C67.4565 72.7253 73.6191 65.5192 73.6191 62.574C73.6191 60.6141 71.5925 45.7614 68.4643 31.5583C62.7809 5.78897 58.6394 5.04578 58.6009 5.04578Z" fill="#144A8F"/>
<path d="M69.2554 140.476C69.4867 141.643 67.5702 140.416 65.5876 140.807C63.6049 141.197 62.2832 143.064 62.0739 141.908C61.8646 140.752 63.0322 138.313 65.0148 137.916C66.9974 137.52 69.0241 139.315 69.2554 140.487" fill="#144A8F"/>
<path d="M49.6772 140.476C49.4459 141.643 51.3624 140.416 53.3451 140.807C55.3277 141.197 56.6494 143.064 56.8587 141.908C57.068 140.752 55.9004 138.313 53.9178 137.916C51.9352 137.52 49.9085 139.315 49.6772 140.487" fill="#144A8F"/>
<path d="M28.7489 44.6108C28.7489 44.6108 15.7518 38.1809 3.73498 38.9516C-0.533136 51.2995 4.3573 63.6474 13.648 68.4588" fill="white"/>
<path d="M13.6218 70.6611C13.2692 70.6595 12.9219 70.5747 12.6084 70.4134C1.94089 64.8697 -2.76781 51.0355 1.65451 38.2306C1.79662 37.8213 2.05634 37.4631 2.40117 37.2006C2.74599 36.9382 3.16059 36.7833 3.59307 36.7552C16.0835 35.9295 29.1742 42.3649 29.725 42.6402C30.2146 42.9175 30.5795 43.3716 30.7448 43.9094C30.9101 44.4471 30.8632 45.0277 30.6138 45.532C30.3643 46.0363 29.9313 46.4261 29.4035 46.6213C28.8757 46.8165 28.2931 46.8024 27.7754 46.5818C27.6598 46.5268 16.2102 40.9666 5.3664 41.0767C2.43654 51.4263 6.2751 62.1667 14.6351 66.5103C15.0699 66.7389 15.4158 67.1063 15.6177 67.554C15.8197 68.0017 15.8661 68.504 15.7496 68.9811C15.6331 69.4583 15.3605 69.8828 14.9749 70.1871C14.5893 70.4915 14.1131 70.6584 13.6218 70.6611V70.6611Z" fill="#144A8F"/>
<path d="M7.96008 47.1929C7.6682 49.0316 8.04269 56.7277 14.8937 62.1172C14.9482 62.1752 15.0215 62.212 15.1006 62.221C15.1797 62.23 15.2595 62.2106 15.3256 62.1663C15.3917 62.122 15.44 62.0557 15.4618 61.9791C15.4835 61.9026 15.4774 61.8208 15.4444 61.7483C15.0127 60.5564 14.7297 59.3157 14.6018 58.0544C14.5964 57.9803 14.6119 57.9061 14.6467 57.8403C14.6814 57.7746 14.7339 57.72 14.7983 57.6826C14.8626 57.6453 14.9361 57.6268 15.0105 57.6293C15.0848 57.6318 15.1569 57.6551 15.2186 57.6966C15.8465 58.1205 16.6175 58.4178 18.1099 58.104C18.2213 58.0799 18.3255 58.03 18.414 57.9582C18.5026 57.8865 18.573 57.795 18.6196 57.6911C18.6663 57.5871 18.6878 57.4737 18.6825 57.3599C18.6772 57.2461 18.6452 57.1351 18.5891 57.036C18.2527 56.5363 18.0187 55.975 17.9007 55.3844C17.886 55.2843 17.8936 55.1821 17.923 55.0851C17.9524 54.9882 18.0028 54.899 18.0707 54.8238C18.1385 54.7486 18.2221 54.6893 18.3156 54.6502C18.409 54.611 18.5099 54.5929 18.6111 54.5972C21.2215 54.6908 23.2592 55.0156 24.8894 53.8485" fill="#2494D1"/>
<path d="M23.9488 52.1966C19.4419 50.0887 14.6807 48.5732 9.78418 47.688Z" fill="white"/>
<path d="M23.9494 54.3937C23.6117 54.3917 23.2788 54.3146 22.9746 54.1679C18.6585 52.1563 14.1015 50.7076 9.41576 49.8575C8.85981 49.7391 8.37116 49.4104 8.05197 48.9402C7.73278 48.4701 7.60776 47.8948 7.70306 47.3346C7.79835 46.7744 8.10658 46.2728 8.5633 45.9345C9.02002 45.5962 9.58988 45.4475 10.1537 45.5194C15.262 46.4357 20.2279 48.0182 24.9242 50.2263C25.365 50.4489 25.7181 50.8131 25.927 51.2605C26.1358 51.7078 26.1882 52.2124 26.0758 52.693C25.9633 53.1737 25.6926 53.6027 25.307 53.9111C24.9213 54.2195 24.4432 54.3895 23.9494 54.3937V54.3937Z" fill="#144A8F"/>
<path d="M89.9971 44.6108C89.9971 44.6108 103 38.1809 115.017 38.9516C119.285 51.2995 114.394 63.6474 105.103 68.4588" fill="white"/>
<path d="M105.132 70.6611C104.64 70.6596 104.163 70.4936 103.776 70.1897C103.39 69.8857 103.116 69.4612 102.999 68.9838C102.882 68.5064 102.928 68.0035 103.13 67.5552C103.331 67.107 103.678 66.7391 104.113 66.5103C112.462 62.1667 116.317 51.4263 113.387 41.0878C102.477 40.9116 91.0937 46.5268 90.9835 46.5818C90.4658 46.8024 89.8833 46.8165 89.3554 46.6213C88.8276 46.4261 88.3946 46.0363 88.1452 45.532C87.8957 45.0277 87.8489 44.4471 88.0141 43.9094C88.1794 43.3716 88.5443 42.9175 89.034 42.6402C89.5847 42.3704 102.708 35.957 115.171 36.7552C115.604 36.7833 116.018 36.9382 116.363 37.2006C116.708 37.4631 116.968 37.8213 117.11 38.2306C121.516 51.0355 116.824 64.8697 106.15 70.4134C105.836 70.5767 105.486 70.6617 105.132 70.6611Z" fill="#144A8F"/>
<path d="M110.808 47.1929C111.1 49.0316 110.726 56.7277 103.875 62.1172C103.82 62.1752 103.747 62.212 103.668 62.221C103.589 62.23 103.509 62.2106 103.443 62.1663C103.377 62.122 103.328 62.0557 103.307 61.9791C103.285 61.9026 103.291 61.8208 103.324 61.7483C103.753 60.5556 104.036 59.3152 104.166 58.0544C104.172 57.9803 104.156 57.9061 104.122 57.8403C104.087 57.7746 104.034 57.72 103.97 57.6826C103.906 57.6453 103.832 57.6268 103.758 57.6293C103.683 57.6318 103.611 57.6551 103.55 57.6966C102.922 58.1205 102.151 58.4178 100.658 58.104C100.547 58.0799 100.443 58.03 100.354 57.9582C100.266 57.8865 100.195 57.795 100.149 57.6911C100.102 57.5871 100.081 57.4737 100.086 57.3599C100.091 57.2461 100.123 57.1351 100.179 57.036C100.513 56.5351 100.747 55.9743 100.868 55.3844C100.882 55.2843 100.875 55.1821 100.845 55.0851C100.816 54.9882 100.765 54.899 100.698 54.8238C100.63 54.7486 100.546 54.6893 100.453 54.6502C100.359 54.611 100.258 54.5929 100.157 54.5972C97.5467 54.6908 95.5091 55.0156 93.8789 53.8485" fill="#2494D1"/>
<path d="M94.7988 52.1966C99.3075 50.0881 104.071 48.5726 108.969 47.688Z" fill="white"/>
<path d="M94.8039 54.3937C94.3096 54.3907 93.8307 54.2216 93.4441 53.9136C93.0576 53.6057 92.7859 53.1767 92.6727 52.6957C92.5596 52.2147 92.6116 51.7096 92.8203 51.2617C93.0291 50.8138 93.3825 50.4491 93.8236 50.2263C98.5234 48.0172 103.493 46.4347 108.605 45.5194C109.169 45.4475 109.739 45.5962 110.196 45.9345C110.652 46.2728 110.96 46.7744 111.056 47.3346C111.151 47.8948 111.026 48.4701 110.707 48.9402C110.388 49.4104 109.899 49.7391 109.343 49.8575C104.656 50.7081 100.097 52.1568 95.7787 54.1679C95.4746 54.3147 95.1416 54.3919 94.8039 54.3937V54.3937Z" fill="#144A8F"/>
<path d="M102.917 120.989C97.3161 133.1 86.2905 139.915 78.2885 136.221C70.2865 132.527 68.3424 119.706 73.9378 107.595C79.5331 95.4835 90.5642 88.6627 98.5662 92.3621C106.568 96.0615 108.518 108.877 102.917 120.989Z" fill="white"/>
<path d="M82.9798 139.431C81.0428 139.439 79.1273 139.024 77.368 138.214C72.8024 136.106 69.7735 131.553 68.8372 125.393C67.9506 119.568 69.0575 112.918 71.9433 106.675C78.0453 93.4631 90.4091 86.1743 99.4796 90.3692C108.55 94.5641 111.001 108.718 104.904 121.908C102.013 128.151 97.6622 133.298 92.6506 136.397C89.4068 138.412 86.1025 139.431 82.9798 139.431ZM93.9393 93.5732C87.6224 93.5732 80.0775 99.5627 75.9361 108.519C73.4082 113.992 72.4279 119.75 73.1824 124.732C73.8874 129.384 76.0297 132.758 79.2074 134.223C82.3851 135.687 86.3668 135.137 90.343 132.659C94.6277 130.006 98.3836 125.536 100.911 120.064C105.907 109.263 104.409 97.4928 97.6401 94.3604C96.4785 93.8319 95.2155 93.5632 93.9393 93.5732Z" fill="#144A8F"/>
<path d="M15.8352 120.988C21.4306 133.1 32.4561 139.915 40.4581 136.221C48.4602 132.527 50.4097 119.706 44.8089 107.595C39.208 95.4834 28.199 88.6681 20.1804 92.3675C12.1619 96.0669 10.2343 108.883 15.8352 120.994" fill="white"/>
<path d="M35.7667 139.43C32.6441 139.43 29.3398 138.412 26.0905 136.397C21.0789 133.298 16.7282 128.139 13.8369 121.908C7.74033 108.696 10.169 94.5695 19.2615 90.3691C28.354 86.1687 40.7067 93.485 46.7978 106.675C49.6836 112.918 50.785 119.568 49.8983 125.392C48.9621 131.553 45.9331 136.105 41.3731 138.214C39.6154 139.023 37.7019 139.438 35.7667 139.43V139.43ZM24.8128 93.573C23.5347 93.5617 22.2696 93.8304 21.1064 94.3603C14.338 97.4927 12.8456 109.263 17.8296 120.064C20.3574 125.536 24.1134 130.006 28.4035 132.659C32.4073 135.158 36.3615 135.709 39.5392 134.223C42.7169 132.736 44.8537 129.384 45.5641 124.732C46.3186 119.75 45.3438 113.991 42.8105 108.519C38.6635 99.5626 31.1296 93.573 24.8128 93.573V93.573Z" fill="#144A8F"/>
<path d="M15.8352 120.988C21.4306 133.1 32.4561 139.915 40.4581 136.221C48.4602 132.527 50.4097 119.706 44.8089 107.595C39.208 95.4834 28.199 88.6681 20.1804 92.3675C12.1619 96.0669 10.2343 108.883 15.8352 120.994" fill="white"/>
<path d="M35.7667 139.43C32.6441 139.43 29.3398 138.412 26.0905 136.397C21.0789 133.298 16.7282 128.139 13.8369 121.908C7.74033 108.696 10.169 94.5695 19.2615 90.3691C28.354 86.1687 40.7067 93.485 46.7978 106.675C49.6836 112.918 50.785 119.568 49.8983 125.392C48.9621 131.553 45.9331 136.105 41.3731 138.214C39.6154 139.023 37.7019 139.438 35.7667 139.43V139.43ZM24.8128 93.573C23.5347 93.5617 22.2696 93.8304 21.1064 94.3603C14.338 97.4927 12.8456 109.263 17.8296 120.064C20.3574 125.536 24.1134 130.006 28.4035 132.659C32.4073 135.158 36.3615 135.709 39.5392 134.223C42.7169 132.736 44.8537 129.384 45.5641 124.732C46.3186 119.75 45.3438 113.991 42.8105 108.519C38.6635 99.5626 31.1296 93.573 24.8128 93.573V93.573Z" fill="#144A8F"/>
<path d="M45.5908 111.487C45.2527 112.257 44.7423 112.94 44.0988 113.483C43.4554 114.025 42.6961 114.414 41.8792 114.617C41.0624 114.821 40.2097 114.834 39.3867 114.657C38.5638 114.479 37.7925 114.116 37.132 113.594C36.4716 113.072 35.9397 112.406 35.5771 111.646C35.2145 110.887 35.0309 110.054 35.0404 109.213C35.05 108.372 35.2524 107.543 35.6321 106.792C36.0118 106.041 36.5587 105.387 37.2308 104.88C37.0105 104.88 36.8012 104.814 36.5754 104.814C34.5315 104.78 32.5294 105.395 30.8578 106.571C29.1861 107.747 27.9314 109.423 27.2745 111.358C26.6176 113.293 26.5924 115.387 27.2027 117.337C27.813 119.288 29.0271 120.994 30.67 122.209C32.313 123.425 34.2997 124.088 36.3439 124.103C38.3881 124.117 40.3839 123.482 42.0437 122.289C43.7035 121.096 44.9414 119.407 45.5789 117.466C46.2164 115.524 46.2206 113.431 45.5908 111.487V111.487Z" fill="#144A8F"/>
<path d="M47.8815 135.384C46.5067 137.09 45.821 139.248 45.9597 141.434C46.0983 143.62 47.0512 145.674 48.6305 147.193C50.9435 149.395 56.0047 150.699 58.5986 150.925C58.5986 150.925 39.6867 149.681 33.3203 140.355C36.0739 137.515 43.2334 133.65 45.3702 130.925C47.507 128.2 52.0395 122.904 55.0574 125.558" fill="#2494D1"/>
<path d="M52.051 124.853C52.051 124.853 55.6638 104.286 39.9736 98.4011C43.3551 106.015 50.3548 122.574 47.0009 128.784C43.647 134.993 52.051 124.853 52.051 124.853" fill="#2494D1"/>
<path d="M59.3649 154.498C48.8185 154.498 38.2115 148.855 28.684 138.186C28.5186 137.996 28.3847 137.78 28.2874 137.548C22.626 134.828 17.2729 129.29 13.8364 121.913C7.73987 108.701 10.1741 94.5694 19.261 90.369C23.821 88.2606 29.2567 88.9046 34.5547 92.1857C39.5718 95.285 43.917 100.443 46.8083 106.675C49.639 112.802 50.6304 119.139 49.9695 124.589C52.5863 122.156 56.0443 120.832 59.6171 120.895C63.1898 120.958 66.5993 122.402 69.1292 124.924L76.9605 132.709C77.3309 133.128 77.5278 133.672 77.5112 134.232C77.4946 134.791 77.2657 135.323 76.8711 135.719C76.4764 136.116 75.9456 136.347 75.3864 136.367C74.8271 136.386 74.2814 136.193 73.8599 135.825L66.0231 128.035C64.2589 126.277 61.8696 125.29 59.3786 125.29C56.8877 125.29 54.4983 126.277 52.7341 128.035L45.0735 135.659C45.0041 135.726 44.9305 135.789 44.8532 135.847C43.8358 136.824 42.6634 137.625 41.3837 138.219C39.6977 138.989 37.8676 139.392 36.0141 139.403C41.9564 144.908 50.008 150.105 59.3649 150.105C59.9491 150.105 60.5094 150.337 60.9225 150.75C61.3357 151.163 61.5678 151.723 61.5678 152.307C61.5678 152.891 61.3357 153.451 60.9225 153.864C60.5094 154.277 59.9491 154.509 59.3649 154.509V154.498ZM17.8292 120.063C22.9123 131.074 32.6382 137.41 39.5387 134.223C46.3072 131.096 47.7996 119.326 42.8431 108.519C40.3153 103.053 36.5593 98.5771 32.2692 95.9236C28.2654 93.4463 24.3112 92.8958 21.1335 94.3602C14.3651 97.4871 12.8726 109.262 17.8567 120.063H17.8292Z" fill="#144A8F"/>
<path d="M101.778 160.57C97.8344 160.511 93.9543 159.57 90.4218 157.818C89.9265 157.548 89.5535 157.099 89.3796 156.563C89.2057 156.027 89.2441 155.444 89.4869 154.935C89.7298 154.427 90.1585 154.03 90.6849 153.828C91.2112 153.626 91.7951 153.633 92.3163 153.849C98.2311 156.673 103.992 156.904 108.838 154.575C106.96 152.968 105.435 151.68 105.429 151.68C105.038 151.342 104.778 150.879 104.695 150.37C104.611 149.86 104.709 149.338 104.971 148.894C105.233 148.449 105.644 148.111 106.13 147.938C106.616 147.765 107.148 147.768 107.632 147.947C111.757 149.599 115.436 149.533 118.872 147.815C123.217 145.646 126.368 141.176 128.46 137.174C125.156 138.467 120.48 139.023 114.048 137.52C100.384 134.311 90.0969 147.05 89.9977 147.176C89.6251 147.599 89.1045 147.863 88.543 147.914C87.9816 147.965 87.422 147.799 86.9795 147.449C86.537 147.1 86.2453 146.595 86.1644 146.037C86.0835 145.479 86.2196 144.912 86.5447 144.451C87.0293 143.835 98.6276 129.384 115.056 133.237C128.168 136.309 131.638 129.301 131.781 129.004C132.014 128.504 132.426 128.109 132.936 127.898C133.446 127.687 134.017 127.675 134.535 127.865C135.049 128.054 135.475 128.429 135.727 128.916C135.98 129.403 136.042 129.966 135.901 130.496C135.724 131.146 131.44 146.461 120.844 151.74C118.788 152.784 116.537 153.385 114.235 153.507C114.425 153.74 114.565 154.009 114.647 154.297C114.729 154.586 114.751 154.888 114.711 155.186C114.672 155.483 114.573 155.769 114.419 156.027C114.265 156.285 114.06 156.508 113.817 156.684C110.317 159.221 106.101 160.582 101.778 160.57V160.57Z" fill="#144A8F"/>
<path d="M51.4791 182.53H33.4648V189.983H51.4791V182.53Z" fill="#EB2126"/>
<path d="M79.3837 185.872H61.375V193.325H79.3837V185.872Z" fill="#EB2126"/>
<path d="M70.0828 194.294C69.4985 194.294 68.9382 194.062 68.5251 193.649C68.112 193.236 67.8799 192.676 67.8799 192.092V189.053C67.8799 188.469 68.112 187.909 68.5251 187.496C68.9382 187.083 69.4985 186.851 70.0828 186.851C70.667 186.851 71.2274 187.083 71.6405 187.496C72.0536 187.909 72.2857 188.469 72.2857 189.053V192.092C72.2857 192.676 72.0536 193.236 71.6405 193.649C71.2274 194.062 70.667 194.294 70.0828 194.294V194.294Z" fill="#144A8F"/>
<path d="M33.7783 181.721C33.7783 181.721 36.2676 181.721 38.1841 181.611C38.7899 181.583 39.225 182.398 38.9937 183.146C38.107 186.042 38.8726 188.382 38.2007 189.285C37.3966 190.347 32.9082 188.701 32.9082 188.701L33.7783 181.721Z" fill="#A62126"/>
<path d="M61.1162 185.37C61.1162 185.37 63.5835 185.046 65.4724 184.71C66.0672 184.605 66.5739 185.359 66.4637 186.13C65.9516 189.114 67.0145 191.338 66.4637 192.318C65.7974 193.479 61.1382 192.406 61.1382 192.406L61.1162 185.37Z" fill="#A62126"/>
<path d="M51.1542 59.7937C51.1542 59.7937 60.3734 67.5449 66.6792 65.8493C70.4902 64.8199 66.4644 73.0059 51.6884 70.9525C36.3122 68.8055 44.2812 53.1326 44.2812 53.1326L51.1542 59.7937Z" fill="#EB2126"/>
<path d="M53.1738 43.7353C54.2312 46.2346 62.2663 50.0111 67.8562 49.6918C68.2256 49.6657 68.5931 49.7643 68.8997 49.972C69.2063 50.1796 69.4342 50.4842 69.5469 50.8369C70.8851 55.1639 70.9292 60.146 69.8057 62.1499C68.7043 64.0656 44.1749 59.5515 44.0703 49.2129C43.9657 38.8743 48.1071 38.6707 48.1071 38.6707L53.1738 43.7353Z" fill="#EB2126"/>
<path d="M53.335 26.455C54.1666 28.8387 60.4504 32.6262 64.68 33.0061C65.1774 33.053 65.6504 33.2435 66.0415 33.5543C66.4326 33.8651 66.7249 34.2829 66.8829 34.7567C67.9843 37.9937 68.3093 41.4894 68.8324 44.6163C69.1629 46.5761 45.9443 42.2711 45.8562 31.9546C45.7681 21.6381 49.1605 21.4124 49.1605 21.4124L53.335 26.455Z" fill="#EB2126"/>
<path d="M67.1366 64.2254C60.1148 64.2254 53.8146 61.2802 51.507 60.0635C47.2279 57.7955 42.5192 54.1786 42.0401 50.8205C41.9894 50.2559 42.1586 49.6934 42.5123 49.2503C42.8661 48.8072 43.3772 48.5175 43.9392 48.4416C44.5013 48.3657 45.0709 48.5094 45.5296 48.8428C45.9883 49.1762 46.3007 49.6736 46.4018 50.2315C46.5505 51.0958 49.0508 53.9034 54.1505 56.4742C56.9372 57.878 66.6464 62.15 74.6154 58.1643C74.8754 58.0151 75.1631 57.9205 75.4609 57.8863C75.7587 57.852 76.0603 57.8789 76.3474 57.9653C76.6344 58.0517 76.9008 58.1957 77.1302 58.3886C77.3596 58.5814 77.5473 58.819 77.6816 59.0869C77.816 59.3548 77.8943 59.6472 77.9116 59.9464C77.929 60.2455 77.8851 60.545 77.7826 60.8266C77.6801 61.1082 77.5212 61.366 77.3157 61.584C77.1101 61.8021 76.8622 61.976 76.587 62.0949C73.6469 63.5342 70.4101 64.2639 67.1366 64.2254V64.2254ZM65.8534 47.7101C61.1921 47.6143 56.6232 46.3923 52.5369 44.1483C48.825 42.183 44.7221 39.0286 44.3201 36.0669C44.263 35.4996 44.4282 34.9324 44.781 34.4845C45.1338 34.0365 45.6466 33.7428 46.2116 33.6651C46.7765 33.5874 47.3497 33.7317 47.8104 34.0677C48.2711 34.4037 48.5834 34.9053 48.6818 35.4668C48.8856 36.2045 51.2867 38.8249 56.1056 41.0214C58.9308 42.3096 66.1508 44.9796 72.1592 41.9628C72.6757 41.7395 73.258 41.7222 73.7869 41.9145C74.3157 42.1068 74.7508 42.494 75.003 42.9969C75.2553 43.4997 75.3054 44.0799 75.1432 44.6186C74.981 45.1572 74.6188 45.6133 74.1308 45.8935C71.5507 47.1348 68.7164 47.7568 65.8534 47.7101V47.7101Z" fill="#144A8F"/>
<path d="M64.6953 23.3391C64.8044 23.7898 64.7352 24.2652 64.5024 24.6662C64.2695 25.0671 63.8908 25.3628 63.4452 25.4916C61.7344 26.0896 59.9421 26.4219 58.1307 26.4771C51.8799 26.6257 49.3301 19.0397 49.3301 19.0397C49.3301 19.0397 51.7698 4.47871 57.255 4.62735C59.1165 4.6769 63.2855 17.4762 64.6953 23.3447" fill="#EB2126"/>
<path d="M59.3764 77.1239C49.2651 77.1239 40.7344 68.1891 40.7344 62.574C40.7344 62.1996 42.8161 39.1058 47.2439 21.2362C47.2658 21.0357 47.3158 20.8393 47.3926 20.6527C50.1903 9.57097 53.9022 0.647217 58.5999 0.647217C71.0573 0.647217 78.0185 61.9574 78.0185 62.574C78.0185 68.1891 69.5042 77.1239 59.3764 77.1239ZM50.6364 26.3174C47.5358 40.6307 45.1292 57.7845 45.1292 62.574C45.1292 65.5192 51.2918 72.7253 59.3709 72.7253C67.45 72.7253 73.6127 65.5192 73.6127 62.574C73.6127 60.6141 71.586 45.7614 68.4579 31.5583C68.3918 31.2445 68.3202 30.9362 68.2541 30.6334C63.9584 31.7345 58.7541 30.9637 53.8031 28.3433C52.695 27.7538 51.636 27.0764 50.6364 26.3174V26.3174ZM51.7654 21.3629C52.3987 22.2217 54.5796 24.1154 58.0767 25.4752C60.1254 26.2789 63.8153 27.3359 67.2573 26.367C62.2071 5.67336 58.6329 5.05129 58.5999 5.05129C56.4521 5.04578 53.9903 12.1198 51.7654 21.3574V21.3629Z" fill="#144A8F"/>
<path d="M91.1753 111.41C90.8434 112.186 90.3375 112.875 89.6967 113.424C89.0558 113.974 88.2972 114.368 87.4795 114.578C86.6617 114.788 85.8067 114.806 84.9805 114.633C84.1542 114.46 83.3789 114.099 82.7145 113.578C82.05 113.058 81.5141 112.392 81.1483 111.631C80.7824 110.871 80.5964 110.036 80.6046 109.192C80.6127 108.348 80.8148 107.518 81.1953 106.764C81.5758 106.011 82.1244 105.355 82.7988 104.848C82.5895 104.848 82.3913 104.787 82.1765 104.787C80.2995 104.787 78.4647 105.344 76.9041 106.386C75.3435 107.429 74.1273 108.91 73.4093 110.644C72.6913 112.377 72.5037 114.285 72.8702 116.125C73.2368 117.965 74.1411 119.655 75.4687 120.981C76.7963 122.308 78.4876 123.211 80.3287 123.576C82.1697 123.941 84.0778 123.753 85.8116 123.034C87.5454 122.315 89.027 121.099 90.069 119.538C91.111 117.978 91.6666 116.143 91.6655 114.267C91.6527 113.295 91.4873 112.331 91.1753 111.41V111.41Z" fill="#144A8F"/>
<path d="M59.4629 159.931L59.6556 159.458C61.5887 159.089 64.4194 160.372 65.196 162.177L67.6687 169.378C68.0021 170.352 68.0461 171.402 67.7954 172.4L64.9371 183.868L63.8632 170.798L59.4629 159.931Z" fill="#2494D1"/>
<path d="M42.0501 191.861C41.4658 191.861 40.9055 191.629 40.4924 191.216C40.0793 190.803 39.8472 190.243 39.8472 189.659V186.956C39.8472 186.372 40.0793 185.812 40.4924 185.399C40.9055 184.986 41.4658 184.754 42.0501 184.754C42.6343 184.754 43.1946 184.986 43.6078 185.399C44.0209 185.812 44.253 186.372 44.253 186.956V189.659C44.253 190.243 44.0209 190.803 43.6078 191.216C43.1946 191.629 42.6343 191.861 42.0501 191.861ZM49.9805 183.157H33.4588C32.8745 183.157 32.3142 182.925 31.9011 182.513C31.488 182.1 31.2559 181.539 31.2559 180.955C31.2559 180.371 31.488 179.811 31.9011 179.398C32.3142 178.985 32.8745 178.753 33.4588 178.753H49.9805C50.5648 178.753 51.1251 178.985 51.5382 179.398C51.9513 179.811 52.1834 180.371 52.1834 180.955C52.1834 181.539 51.9513 182.1 51.5382 182.513C51.1251 182.925 50.5648 183.157 49.9805 183.157Z" fill="#144A8F"/>
<path d="M78.3167 186.053H62.6541C62.0698 186.053 61.5095 185.821 61.0964 185.408C60.6833 184.995 60.4512 184.435 60.4512 183.851C60.4512 183.267 60.6833 182.707 61.0964 182.294C61.5095 181.881 62.0698 181.649 62.6541 181.649H78.3167C78.901 181.649 79.4613 181.881 79.8744 182.294C80.2876 182.707 80.5197 183.267 80.5197 183.851C80.5197 184.435 80.2876 184.995 79.8744 185.408C79.4613 185.821 78.901 186.053 78.3167 186.053Z" fill="#144A8F"/>
<path d="M60.8413 162.728C62.8624 164.748 66.3816 170.33 64.9276 171.778C63.4737 173.226 58.8697 171.921 56.865 169.901C54.8604 167.881 54.194 165.156 55.6479 163.708C58.6273 164.935 58.8201 160.708 60.8413 162.728" fill="#2494D1"/>
<path d="M49.7819 192.18H32.9738C32.6726 192.181 32.3744 192.119 32.0978 192C31.8212 191.881 31.572 191.706 31.3657 191.487C31.1595 191.266 31.0009 191.006 30.8995 190.722C30.7981 190.438 30.7562 190.136 30.7764 189.835L32.4726 164.286C32.4882 164.071 32.5346 163.86 32.6103 163.658L39.2906 145.86C39.5152 145.341 39.9308 144.929 40.4514 144.708C40.972 144.487 41.5576 144.475 42.0871 144.673C42.6165 144.872 43.0492 145.267 43.2955 145.776C43.5417 146.285 43.5828 146.869 43.41 147.407L36.8454 164.886L35.3254 187.787H47.6286L47.9425 173.584C47.9505 173.293 48.016 173.007 48.1353 172.742L51.9903 164.137C52.0984 163.859 52.2618 163.606 52.4705 163.394C52.6793 163.181 52.9291 163.012 53.2049 162.899C53.4806 162.786 53.7765 162.729 54.0747 162.733C54.3728 162.738 54.667 162.802 54.9395 162.924C55.2119 163.045 55.4568 163.22 55.6595 163.439C55.8621 163.657 56.0183 163.915 56.1184 164.196C56.2186 164.476 56.2607 164.775 56.2421 165.072C56.2236 165.37 56.1448 165.66 56.0106 165.926L52.3593 174.123L52.0069 190.033C51.9924 190.611 51.7509 191.161 51.3346 191.563C50.9183 191.964 50.3606 192.186 49.7819 192.18Z" fill="#144A8F"/>
<path d="M62.5021 179.447H51.1406V186.251H62.5021V179.447Z" fill="#EB2126"/>
<path d="M62.5097 188.454H51.1482C50.564 188.454 50.0037 188.222 49.5905 187.809C49.1774 187.396 48.9453 186.836 48.9453 186.252V179.447C48.9453 178.863 49.1774 178.303 49.5905 177.89C50.0037 177.477 50.564 177.245 51.1482 177.245H62.5097C63.0939 177.245 63.6543 177.477 64.0674 177.89C64.4805 178.303 64.7126 178.863 64.7126 179.447V186.257C64.7111 186.84 64.4784 187.399 64.0654 187.811C63.6525 188.222 63.093 188.454 62.5097 188.454ZM53.3456 184.05H60.3068V181.638H53.3456V184.05Z" fill="#144A8F"/>
<path d="M78.6948 194.289H61.8866C61.5799 194.29 61.2762 194.227 60.9952 194.105C60.7141 193.982 60.4618 193.802 60.2544 193.576C60.047 193.35 59.8892 193.083 59.7909 192.792C59.6926 192.502 59.6561 192.194 59.6837 191.889L61.6058 171.146L57.7507 162.398C57.5437 161.868 57.5503 161.278 57.769 160.752C57.9877 160.226 58.4017 159.806 58.9239 159.579C59.4461 159.351 60.0361 159.335 60.57 159.534C61.1039 159.732 61.5403 160.129 61.7875 160.642L65.8353 169.907C65.9889 170.252 66.0479 170.632 66.0061 171.008L64.2603 189.918H76.7617L80.391 166.246C80.423 165.95 80.5145 165.664 80.6601 165.405C80.8057 165.146 81.0024 164.918 81.2382 164.737C81.474 164.556 81.7442 164.424 82.0323 164.35C82.3204 164.276 82.6206 164.261 82.9147 164.306C83.2088 164.351 83.4907 164.455 83.7434 164.612C83.9962 164.769 84.2145 164.975 84.3852 165.219C84.556 165.462 84.6756 165.738 84.7368 166.029C84.7981 166.32 84.7998 166.621 84.7417 166.912L82.1699 184.077C82.2763 184.071 82.3829 184.071 82.4893 184.077H85.2925C85.4319 183.628 85.7113 183.236 86.0898 182.957C86.4684 182.678 86.9261 182.528 87.3962 182.528C87.8664 182.528 88.3241 182.678 88.7027 182.957C89.0812 183.236 89.3606 183.628 89.5 184.077H92.1986C91.791 151.856 82.4783 143.169 82.3791 143.086C81.9439 142.702 81.6783 142.161 81.6402 141.581C81.602 141.002 81.7944 140.431 82.1754 139.992C82.5532 139.559 83.0855 139.291 83.6587 139.244C84.2318 139.198 84.8004 139.378 85.2429 139.745C85.7055 140.141 96.6099 149.78 96.6099 186.274C96.6099 186.858 96.3778 187.418 95.9647 187.831C95.5515 188.244 94.9912 188.476 94.407 188.476H82.4672C82.1359 188.476 81.8086 188.402 81.509 188.261L80.8701 192.445C80.7852 192.96 80.5199 193.429 80.1214 193.766C79.7229 194.104 79.2173 194.289 78.6948 194.289V194.289ZM56.2527 187.386C55.6685 187.386 55.1081 187.154 54.695 186.741C54.2819 186.328 54.0498 185.768 54.0498 185.184V184.705C54.0498 184.121 54.2819 183.561 54.695 183.148C55.1081 182.735 55.6685 182.503 56.2527 182.503C56.837 182.503 57.3973 182.735 57.8104 183.148C58.2235 183.561 58.4556 184.121 58.4556 184.705V185.195C58.4527 185.777 58.2193 186.334 57.8065 186.745C57.3937 187.155 56.835 187.386 56.2527 187.386V187.386Z" fill="#144A8F"/>
<g clip-path="url(#clip0_3739_37586)">
<path d="M127.747 172.822C127.747 174.764 126.995 176.566 126.266 178.275C125.937 179.726 125.679 181.387 125.679 183.213C125.679 191.357 127.418 192.223 128.287 192.223C128.593 192.223 128.804 192.152 129.086 192.035C129.11 192.035 129.157 192.106 129.157 192.129C129.157 192.363 128.804 192.831 128.264 192.831C125.585 192.831 123.282 190.491 123 184.898C120.979 188.502 118.911 191.474 118.136 191.474C117.008 191.474 114 189.157 114 186.536C114 183.33 115.762 172.939 116.397 172.307C116.655 172.05 116.914 171.956 117.219 171.956C118.277 171.956 119.499 173.267 119.499 173.969C119.499 174.109 119.475 174.179 119.405 174.25C118.441 175.186 116.608 183.072 116.608 186.934C116.608 188.197 116.82 189.016 117.313 189.016C118.629 189.016 121.073 184.804 123.094 180.592C123.399 176.145 124.339 170.716 125.279 170.716C126.102 170.716 127.535 171.231 127.747 172.822Z" fill="white"/>
<path d="M135.37 184.757C135.37 182.44 136.075 179.913 136.075 179.117C136.075 178.953 136.052 178.86 135.981 178.86C135.511 178.86 133.749 182.136 132.973 185.693C132.95 187.565 132.809 189.016 132.809 189.016C132.879 189.086 132.926 189.297 132.926 189.508C132.926 189.835 132.809 190.21 132.315 190.21C131.328 190.21 129.637 189.18 129.637 187.916C129.637 186.653 130.341 185.904 130.341 180.147C130.341 178.766 129.331 177.994 129.331 177.666C129.331 177.338 129.684 177.011 129.989 177.011C130.247 177.011 130.764 177.034 131.352 177.619C132.315 178.579 132.715 180.662 132.903 182.791C133.984 180.217 135.417 177.596 136.263 177.596C138.566 177.596 139.247 178.789 139.247 179.328C139.247 180.1 138.707 183.517 138.707 186.184C138.707 188.01 138.965 189.484 139.835 189.484C141.174 189.484 141.832 184.312 141.903 183.563C141.926 183.329 142.02 183.236 142.161 183.236C142.443 183.236 142.866 183.751 142.866 184.242V184.312C142.655 186.278 142.208 191.263 139.318 191.263C136.945 191.263 135.394 188.642 135.394 184.78L135.37 184.757Z" fill="white"/>
<path d="M147.261 190.233C146.838 190.233 145.851 189.718 145.122 188.993C144.535 188.408 144.3 186.255 144.3 184.078C144.3 181.551 144.605 178.953 145.005 178.602C145.193 178.438 145.451 178.368 145.71 178.368C146.203 178.368 146.791 178.602 147.167 178.953C147.402 179.187 147.519 179.491 147.519 180.006C147.519 180.357 147.331 180.474 147.331 180.474C147.331 180.474 146.885 184.078 146.885 186.419C146.885 187.542 146.979 188.408 147.308 188.408C148.788 188.408 149.164 185.763 149.305 184.78C149.305 184.71 149.399 184.663 149.54 184.663C149.822 184.663 150.292 184.874 150.292 185.178C150.292 185.506 150.245 186.395 149.963 187.331C149.493 188.899 148.412 190.233 147.308 190.233H147.261ZM145.968 172.096C146.274 171.792 147.049 171.511 147.449 171.511C148.342 171.511 148.882 172.213 148.882 173.032C148.882 173.196 148.812 173.313 148.718 173.383C148.318 173.781 148.201 175.49 147.073 175.49C146.579 175.49 145.545 174.788 145.545 173.547C145.545 172.705 145.686 172.377 145.992 172.073L145.968 172.096Z" fill="white"/>
<path d="M151.537 184.336C151.537 179.562 153.84 177.666 156.26 177.666C157.741 177.666 158.775 178.415 158.775 179.562C158.775 181.176 157.764 183.212 156.989 183.212C156.801 183.212 156.73 183.095 156.73 182.955C156.73 182.908 156.73 182.815 156.777 182.791C157.036 182.51 157.506 181.457 157.506 179.889C157.506 179.164 157.2 178.579 156.801 178.579C155.978 178.579 154.005 180.076 154.005 184.687C154.005 187.167 155.297 188.876 156.942 188.876C159.339 188.876 159.926 185.038 160.02 184.172C160.044 183.938 160.114 183.844 160.255 183.844C160.537 183.844 160.984 184.359 160.984 184.874V184.921C160.796 186.816 159.926 190.842 156.707 190.842C153.488 190.842 151.514 187.986 151.514 184.336H151.537Z" fill="white"/>
<path d="M175.446 188.15C175.446 189.414 175.939 189.578 176.245 189.578C177.302 189.578 178.195 185.436 178.266 184.64C178.289 184.406 178.383 184.312 178.524 184.312C178.806 184.312 179.229 184.757 179.229 185.249V185.366C179.018 187.261 178.289 191.076 175.869 191.076C173.261 191.076 172.697 188.852 172.697 186.84C172.697 184.827 173.543 181.434 173.543 180.755C173.543 180.287 173.12 179.96 172.603 179.679C172.086 183.096 170.347 184.898 168.89 185.132C168.373 188.244 167.057 190.725 165.389 190.725C163.908 190.725 161.676 188.852 161.676 185.342C161.676 181.832 162.968 177.736 166.046 177.736C167.644 177.736 168.655 178.579 168.655 179.515C168.655 180.123 168.561 180.451 168.396 180.615C168.937 180.872 169.125 181.574 169.125 182.253C169.125 182.838 169.101 183.423 169.054 183.985C170.112 183.774 171.475 182.136 171.686 179.164C170.981 178.813 170.347 178.392 170.347 177.807C170.347 177.222 171.24 176.8 171.945 176.8C172.415 176.8 172.767 176.988 172.767 177.432C172.767 177.76 172.767 178.087 172.744 178.368C174.106 178.883 176.386 179.843 176.386 181.457C176.386 182.323 175.446 186.77 175.446 188.15ZM167.762 180.521C167.738 180.03 167.597 179.164 166.963 179.164C165.483 179.164 164.543 182.791 164.543 185.529C164.543 187.168 164.872 188.501 165.671 188.501C166.399 188.501 167.174 186.629 167.55 184.874C166.986 184.453 166.563 183.681 166.563 182.51C166.563 181.551 167.104 180.662 167.762 180.545V180.521ZM167.809 181.972C167.809 181.972 167.785 182.276 167.785 182.534C167.785 182.651 167.785 182.744 167.809 182.838V181.972Z" fill="white"/>
<path d="M185.997 184.757C185.997 182.44 186.702 179.913 186.702 179.117C186.702 178.953 186.679 178.86 186.608 178.86C186.138 178.86 184.376 182.136 183.6 185.693C183.577 187.565 183.436 189.016 183.436 189.016C183.506 189.086 183.553 189.297 183.553 189.508C183.553 189.835 183.436 190.21 182.942 190.21C181.955 190.21 180.263 189.18 180.263 187.916C180.263 186.653 180.968 185.904 180.968 180.147C180.968 178.766 179.958 177.994 179.958 177.666C179.958 177.338 180.31 177.011 180.616 177.011C180.874 177.011 181.391 177.034 181.979 177.619C182.942 178.579 183.342 180.662 183.53 182.791C184.611 180.217 186.044 177.596 186.89 177.596C189.193 177.596 189.874 178.789 189.874 179.328C189.874 180.1 189.334 183.517 189.334 186.184C189.334 188.01 189.592 189.484 190.462 189.484C191.801 189.484 192.459 184.312 192.53 183.563C192.553 183.329 192.671 183.236 192.788 183.236C193.07 183.236 193.493 183.751 193.493 184.242V184.312C193.282 186.278 192.835 191.263 189.945 191.263C187.572 191.263 186.021 188.642 186.021 184.78L185.997 184.757Z" fill="white"/>
<path d="M214.879 187.612C214.879 188.314 214.973 188.806 215.113 189.157H215.442C216.382 189.157 220.777 186.372 220.777 180.334C220.777 174.624 216.617 171.628 213.868 171.628C210.672 171.628 207.852 174.366 207.852 179.234C207.852 182.347 209.262 183.751 209.967 183.751C210.672 183.751 210.578 183.447 210.79 183.447C211.33 183.447 210.837 184.312 210.085 184.312C207.829 184.312 204.116 183.213 204.116 178.462C204.116 174.53 207.124 170.294 212.435 170.294C218.662 170.294 223.573 175.092 223.573 181.036C223.573 186.98 219.79 192.035 217.087 192.035C216.124 192.035 215.09 191.52 214.362 190.842C213.751 190.818 213.022 190.608 212.599 190.186C211.918 189.484 211.847 187.706 211.847 186.629C211.847 183.049 212.388 177.081 213.986 177.081C215.795 177.081 216.5 177.9 216.5 178.181C216.5 178.906 214.855 179.562 214.855 187.612H214.879Z" fill="white"/>
<path d="M233.675 183.985C233.698 183.751 233.792 183.657 233.933 183.657C234.215 183.657 234.638 184.149 234.638 184.687C234.638 187.097 232.852 190.397 230.267 190.397C226.931 190.397 225.474 187.401 225.474 184.266C225.474 179.679 227.119 177.807 229.327 177.807C229.327 177.198 229.797 177.081 230.056 177.081C231.513 177.081 232.03 178.087 232.03 180.1C232.03 183.259 229.868 185.693 228.246 185.693H228.011C228.364 186.933 229.186 188.15 230.761 188.15C232.594 188.15 233.487 186.068 233.675 184.008V183.985ZM229.774 178.813C228.763 179.023 227.8 180.896 227.8 184.078C227.8 184.266 227.823 184.476 227.823 184.64C228.434 184.57 230.032 183.049 230.032 180.264C230.032 179.538 229.891 179.094 229.774 178.789V178.813Z" fill="white"/>
<path d="M237.153 189.461C236.401 188.712 236.189 185.67 236.189 182.791C236.189 178.368 236.941 172.19 237.552 171.582C237.787 171.348 238.046 171.254 238.328 171.254C239.197 171.254 240.161 172.213 240.161 172.611C240.161 173.149 238.539 176.707 238.539 185.202C238.539 188.361 239.291 188.806 239.62 188.806C240.231 188.806 241.171 186.84 241.453 184.757C241.453 184.687 241.547 184.64 241.688 184.64C241.97 184.64 242.44 184.851 242.44 185.155C242.44 186.091 241.876 190.771 239.714 190.771C238.845 190.771 237.881 190.233 237.129 189.461H237.153Z" fill="white"/>
<path d="M246.999 190.233C246.576 190.233 245.589 189.718 244.861 188.993C244.273 188.408 244.038 186.255 244.038 184.078C244.038 181.551 244.344 178.953 244.743 178.602C244.931 178.438 245.19 178.368 245.448 178.368C245.941 178.368 246.529 178.602 246.905 178.953C247.14 179.187 247.257 179.491 247.257 180.006C247.257 180.357 247.069 180.474 247.069 180.474C247.069 180.474 246.623 184.078 246.623 186.419C246.623 187.542 246.717 188.408 247.046 188.408C248.526 188.408 248.902 185.763 249.043 184.78C249.043 184.71 249.137 184.663 249.278 184.663C249.56 184.663 250.03 184.874 250.03 185.178C250.03 185.506 249.983 186.395 249.701 187.331C249.231 188.899 248.15 190.233 247.046 190.233H246.999ZM245.706 172.096C246.012 171.792 246.787 171.511 247.187 171.511C248.08 171.511 248.62 172.213 248.62 173.032C248.62 173.196 248.55 173.313 248.456 173.383C248.056 173.781 247.939 175.49 246.811 175.49C246.317 175.49 245.284 174.788 245.284 173.547C245.284 172.705 245.424 172.377 245.73 172.073L245.706 172.096Z" fill="white"/>
<path d="M257.08 182.066C256.375 181.2 255.905 180.03 255.905 179.281C255.905 177.924 256.351 176.847 257.385 176.847C258.419 176.847 258.819 178.134 258.819 179.164C258.819 179.726 258.631 180.802 258.372 182.089C258.701 182.37 259.054 182.534 259.359 182.534C259.617 182.534 259.923 182.394 260.111 182.394C260.181 182.394 260.252 182.417 260.252 182.534C260.252 182.885 259.829 183.33 259.171 183.33C258.842 183.33 258.537 183.236 258.208 183.049C257.409 186.512 255.975 190.818 254.706 190.818C254.26 190.818 253.437 190.561 253.085 190.21C251.581 188.736 251.276 182.955 251.276 179.889C251.276 178.626 250.853 178.673 250.853 178.415C250.853 178.205 250.947 178.134 251.276 178.134C251.769 178.134 254.048 178.673 254.048 180.006V181.036C254.048 186.372 254.072 188.712 254.847 188.712C255.623 188.712 256.61 184.827 257.103 182.066H257.08Z" fill="white"/>
<path d="M268.544 183.985C268.567 183.751 268.661 183.657 268.802 183.657C269.084 183.657 269.507 184.149 269.507 184.687C269.507 187.097 267.721 190.397 265.136 190.397C261.8 190.397 260.343 187.401 260.343 184.266C260.343 179.679 261.988 177.807 264.197 177.807C264.197 177.198 264.666 177.081 264.925 177.081C266.382 177.081 266.899 178.087 266.899 180.1C266.899 183.259 264.737 185.693 263.116 185.693H262.881C263.233 186.933 264.056 188.15 265.63 188.15C267.463 188.15 268.356 186.068 268.544 184.008V183.985ZM264.643 178.813C263.633 179.023 262.669 180.896 262.669 184.078C262.669 184.266 262.693 184.476 262.693 184.64C263.304 184.57 264.901 183.049 264.901 180.264C264.901 179.538 264.76 179.094 264.643 178.789V178.813Z" fill="white"/>
<path d="M273.784 186.489C273.784 184.429 274.301 181.083 274.301 180.404C274.301 179.843 273.431 179.445 272.492 179.094C272.398 182.744 272.045 185.319 272.045 185.319C272.045 185.319 272.045 185.412 271.928 185.412C271.622 185.366 271.082 185.108 271.082 184.804V184.757C271.082 184.757 271.411 182.464 271.481 178.672C270.706 178.368 270.118 177.994 270.118 177.479C270.118 176.964 270.894 176.613 271.575 176.613C272.092 176.613 272.562 176.824 272.562 177.339V178.111C274.183 178.696 277.144 179.609 277.144 180.825C277.144 181.691 276.604 186.442 276.604 187.823C276.604 189.11 276.862 189.578 277.191 189.578C278.742 189.578 279.259 184.546 279.306 183.985C279.33 183.751 279.4 183.681 279.541 183.681C279.823 183.681 280.269 184.195 280.269 184.71V184.757C280.152 186.629 279.447 190.725 276.933 190.725C274.418 190.725 273.831 188.501 273.831 186.465L273.784 186.489Z" fill="white"/>
<path d="M287.155 179.258C287.155 178.766 287.272 178.322 287.86 178.322C288.33 178.322 289.434 179.492 289.434 180.358C289.434 181.177 289.246 182.908 289.246 184.781C289.246 185.412 289.246 186.021 289.293 186.583C290.703 184.757 291.713 182.885 291.713 182.206C291.713 181.972 291.878 181.808 292.019 181.808C292.277 181.808 292.606 182.206 292.606 183.283C292.606 184.359 291.102 186.021 289.34 187.799C289.387 188.595 289.434 189.438 289.434 190.444C289.434 193.837 288.118 196.295 285.11 196.295C283.794 196.295 282.572 195.241 282.572 194.399C282.572 193.556 283.512 192.55 286.896 189.18C286.99 187.94 287.061 186.466 287.061 184.804V184.5C286.403 187.121 285.416 190.421 284.476 190.421C282.408 190.421 281.397 188.782 281.397 186.606C281.397 183.704 282.173 179.211 282.901 179.211C283.63 179.211 284.781 179.702 284.781 180.709C284.781 181.223 283.818 183.049 283.818 187.308C283.818 188.736 284.123 189.087 284.523 189.087C285.345 189.087 287.108 180.779 287.108 180.077V179.281L287.155 179.258ZM286.802 190.467C285.369 192.082 284.382 193.65 284.382 194.376C284.382 194.563 284.546 194.68 284.805 194.68C285.745 194.68 286.45 193.299 286.826 190.467H286.802Z" fill="white"/>
<path d="M310.544 172.073C311.883 170.739 314.233 170.318 316.442 170.318C319.849 170.318 321.588 171.371 321.588 174.858C321.588 179.889 318.251 183.587 316.231 183.587C315.267 183.587 314.703 183.119 314.703 182.885C314.703 182.815 314.774 182.768 314.915 182.768C316.63 182.768 318.369 178.602 318.369 175.022C318.369 172.822 317.593 171.909 316.489 171.909C313.998 171.909 309.98 176.566 309.98 181.762C309.98 186.957 319.567 184.172 319.567 187.565C319.567 190.14 316.701 191.778 315.408 191.778C313.505 191.778 310.708 190.444 310.708 189.531C310.708 189.016 311.061 188.619 311.413 188.619C311.766 188.619 311.672 190.069 313.998 190.069C315.831 190.069 316.771 188.899 316.771 187.682C316.771 186.021 307.16 187.238 307.16 181.504C307.16 177.596 308.265 174.343 310.567 172.073H310.544Z" fill="white"/>
<path d="M330.421 183.985C330.444 183.751 330.538 183.657 330.679 183.657C330.961 183.657 331.384 184.149 331.384 184.687C331.384 187.097 329.598 190.397 327.013 190.397C323.677 190.397 322.22 187.401 322.22 184.266C322.22 179.679 323.865 177.807 326.073 177.807C326.073 177.198 326.543 177.081 326.802 177.081C328.259 177.081 328.776 178.087 328.776 180.1C328.776 183.259 326.614 185.693 324.993 185.693H324.758C325.11 186.933 325.932 188.15 327.507 188.15C329.34 188.15 330.233 186.068 330.421 184.008V183.985ZM326.52 178.813C325.51 179.023 324.546 180.896 324.546 184.078C324.546 184.266 324.57 184.476 324.57 184.64C325.181 184.57 326.778 183.049 326.778 180.264C326.778 179.538 326.637 179.094 326.52 178.789V178.813Z" fill="white"/>
<path d="M335.637 186.489C335.637 184.429 336.154 181.083 336.154 180.404C336.154 179.843 335.285 179.445 334.345 179.094C334.251 182.744 333.899 185.319 333.899 185.319C333.899 185.319 333.899 185.412 333.781 185.412C333.476 185.366 332.935 185.108 332.935 184.804V184.757C332.935 184.757 333.264 182.464 333.335 178.672C332.559 178.368 331.972 177.994 331.972 177.479C331.972 176.964 332.747 176.613 333.429 176.613C333.946 176.613 334.416 176.824 334.416 177.339V178.111C336.037 178.696 338.998 179.609 338.998 180.825C338.998 181.691 338.457 186.442 338.457 187.823C338.457 189.11 338.716 189.578 339.045 189.578C340.596 189.578 341.113 184.546 341.16 183.985C341.183 183.751 341.254 183.681 341.395 183.681C341.677 183.681 342.123 184.195 342.123 184.71V184.757C342.006 186.629 341.301 190.725 338.786 190.725C336.272 190.725 335.684 188.501 335.684 186.465L335.637 186.489Z" fill="white"/>
<path d="M349.079 182.066C348.374 181.2 347.904 180.03 347.904 179.281C347.904 177.924 348.35 176.847 349.384 176.847C350.418 176.847 350.818 178.134 350.818 179.164C350.818 179.726 350.63 180.802 350.371 182.089C350.7 182.37 351.053 182.534 351.358 182.534C351.616 182.534 351.922 182.394 352.11 182.394C352.18 182.394 352.251 182.417 352.251 182.534C352.251 182.885 351.828 183.33 351.17 183.33C350.841 183.33 350.536 183.236 350.207 183.049C349.408 186.512 347.974 190.818 346.705 190.818C346.259 190.818 345.436 190.561 345.084 190.21C343.58 188.736 343.275 182.955 343.275 179.889C343.275 178.626 342.852 178.673 342.852 178.415C342.852 178.205 342.946 178.134 343.275 178.134C343.768 178.134 346.047 178.673 346.047 180.006V181.036C346.047 186.372 346.071 188.712 346.846 188.712C347.622 188.712 348.609 184.827 349.102 182.066H349.079Z" fill="white"/>
<path d="M355.679 190.233C355.256 190.233 354.269 189.718 353.541 188.993C352.953 188.408 352.718 186.255 352.718 184.078C352.718 181.551 353.024 178.953 353.423 178.602C353.611 178.438 353.87 178.368 354.128 178.368C354.622 178.368 355.209 178.602 355.585 178.953C355.82 179.187 355.938 179.491 355.938 180.006C355.938 180.357 355.75 180.474 355.75 180.474C355.75 180.474 355.303 184.078 355.303 186.419C355.303 187.542 355.397 188.408 355.726 188.408C357.206 188.408 357.582 185.763 357.723 184.78C357.723 184.71 357.817 184.663 357.958 184.663C358.24 184.663 358.71 184.874 358.71 185.178C358.71 185.506 358.663 186.395 358.381 187.331C357.911 188.899 356.83 190.233 355.726 190.233H355.679ZM354.387 172.096C354.692 171.792 355.468 171.511 355.867 171.511C356.76 171.511 357.3 172.213 357.3 173.032C357.3 173.196 357.23 173.313 357.136 173.383C356.736 173.781 356.619 175.49 355.491 175.49C354.998 175.49 353.964 174.788 353.964 173.547C353.964 172.705 354.105 172.377 354.41 172.073L354.387 172.096Z" fill="white"/>
<path d="M359.956 184.336C359.956 179.562 362.258 177.666 364.679 177.666C366.159 177.666 367.193 178.415 367.193 179.562C367.193 181.176 366.183 183.212 365.407 183.212C365.219 183.212 365.149 183.095 365.149 182.955C365.149 182.908 365.149 182.815 365.196 182.791C365.454 182.51 365.924 181.457 365.924 179.889C365.924 179.164 365.619 178.579 365.219 178.579C364.397 178.579 362.423 180.076 362.423 184.687C362.423 187.167 363.715 188.876 365.36 188.876C367.757 188.876 368.345 185.038 368.439 184.172C368.462 183.938 368.533 183.844 368.674 183.844C368.956 183.844 369.402 184.359 369.402 184.874V184.921C369.214 186.816 368.345 190.842 365.125 190.842C361.906 190.842 359.932 187.986 359.932 184.336H359.956Z" fill="white"/>
<path d="M379.036 183.985C379.06 183.751 379.154 183.657 379.295 183.657C379.577 183.657 380 184.149 380 184.687C380 187.097 378.214 190.397 375.629 190.397C372.292 190.397 370.835 187.401 370.835 184.266C370.835 179.679 372.48 177.807 374.689 177.807C374.689 177.198 375.159 177.081 375.418 177.081C376.875 177.081 377.392 178.087 377.392 180.1C377.392 183.259 375.23 185.693 373.608 185.693H373.373C373.726 186.933 374.548 188.15 376.123 188.15C377.955 188.15 378.848 186.068 379.036 184.008V183.985ZM375.136 178.813C374.125 179.023 373.162 180.896 373.162 184.078C373.162 184.266 373.185 184.476 373.185 184.64C373.796 184.57 375.394 183.049 375.394 180.264C375.394 179.538 375.253 179.094 375.136 178.789V178.813Z" fill="white"/>
</g>
<defs>
<linearGradient id="paint0_linear_3739_37586" x1="113.8" y1="100.694" x2="240.344" y2="236.387" gradientUnits="userSpaceOnUse">
<stop stop-color="#E9605A"/>
<stop offset="0.463542" stop-color="#5B599B"/>
<stop offset="0.994792" stop-color="#68C4FF"/>
</linearGradient>
<linearGradient id="paint1_linear_3739_37586" x1="113.8" y1="100.694" x2="240.344" y2="236.387" gradientUnits="userSpaceOnUse">
<stop stop-color="#E9605A"/>
<stop offset="0.463542" stop-color="#5B599B"/>
<stop offset="0.994792" stop-color="#68C4FF"/>
</linearGradient>
<linearGradient id="paint2_linear_3739_37586" x1="113.8" y1="100.694" x2="240.344" y2="236.387" gradientUnits="userSpaceOnUse">
<stop stop-color="#E9605A"/>
<stop offset="0.463542" stop-color="#5B599B"/>
<stop offset="0.994792" stop-color="#68C4FF"/>
</linearGradient>
<clipPath id="clip0_3739_37586">
<rect width="278" height="26" fill="white" transform="translate(109 170.294)"/>
</clipPath>
</defs>
</svg>
