<?xml version="1.0" standalone="no"?>
<!DOCTYPE svg PUBLIC "-//W3C//DTD SVG 20010904//EN"
 "http://www.w3.org/TR/2001/REC-SVG-20010904/DTD/svg10.dtd">
<svg version="1.0" xmlns="http://www.w3.org/2000/svg"
 width="512.000000pt" height="512.000000pt" viewBox="0 0 512.000000 512.000000"
 preserveAspectRatio="xMidYMid meet">

<g transform="translate(0.000000,512.000000) scale(0.100000,-0.100000)"
fill="#000000" stroke="none">
<path d="M895 5109 c-209 -30 -429 -142 -586 -298 -179 -180 -289 -421 -305
-671 -6 -85 -4 -100 15 -138 14 -28 34 -48 61 -62 109 -56 220 20 220 150 0
71 27 193 59 270 72 172 226 326 399 400 78 33 200 60 272 60 69 0 124 29 150
80 25 50 25 90 0 140 -38 74 -116 93 -285 69z"/>
<path d="M2463 5106 c-104 -34 -177 -98 -222 -196 -30 -66 -45 -240 -20 -240
8 0 64 7 124 15 167 22 306 19 519 -11 l49 -7 -5 94 c-7 156 -69 259 -194 320
-76 38 -181 48 -251 25z"/>
<path d="M3998 5100 c-23 -12 -46 -36 -58 -60 -56 -109 20 -220 150 -220 176
0 375 -87 509 -223 135 -137 204 -288 218 -480 7 -102 29 -150 83 -177 109
-55 220 20 220 149 0 154 -60 368 -144 508 -183 308 -496 501 -841 519 -88 4
-105 2 -137 -16z"/>
<path d="M945 4506 c-84 -21 -147 -57 -210 -121 -113 -112 -165 -287 -115
-385 23 -45 80 -80 130 -80 76 0 150 74 150 150 0 74 76 150 149 150 77 0 151
74 151 150 0 50 -35 107 -80 130 -44 23 -100 24 -175 6z"/>
<path d="M3998 4499 c-43 -22 -78 -81 -78 -129 0 -50 35 -107 80 -130 21 -11
53 -20 70 -20 17 0 49 -9 70 -20 45 -23 80 -80 80 -130 0 -76 74 -150 150
-150 78 0 150 74 150 154 0 202 -156 391 -358 435 -75 16 -121 13 -164 -10z"/>
<path d="M2410 4394 c-245 -31 -464 -113 -672 -250 -101 -67 -310 -278 -379
-384 -108 -164 -177 -328 -222 -525 -18 -83 -21 -138 -27 -680 -6 -566 -7
-593 -28 -669 -29 -103 -89 -225 -149 -303 -190 -243 -210 -281 -220 -408 -13
-163 73 -324 219 -412 110 -66 21 -63 1628 -63 1276 0 1463 2 1515 15 206 54
348 251 332 460 -10 127 -30 165 -220 408 -58 75 -118 195 -148 297 -22 73
-23 94 -29 670 -7 545 -9 603 -27 685 -64 285 -184 511 -378 713 -121 126
-235 213 -375 286 -212 110 -389 155 -630 160 -85 3 -171 2 -190 0z m220 -814
c26 -13 47 -34 60 -60 19 -38 20 -58 20 -670 0 -612 -1 -632 -20 -670 -23 -45
-80 -80 -131 -80 -46 0 -108 39 -130 82 -18 35 -19 68 -19 670 1 712 -3 677
76 724 48 29 92 30 144 4z m0 -1800 c45 -23 80 -80 80 -130 0 -76 -74 -150
-151 -150 -46 0 -108 39 -130 82 -37 72 -14 151 57 194 48 29 92 30 144 4z"/>
<path d="M1922 358 c36 -67 164 -194 244 -244 246 -154 549 -151 800 8 71 44
198 174 232 236 l23 42 -661 0 -661 0 23 -42z"/>
</g>
</svg>
