<?xml version="1.0" standalone="no"?>
<!DOCTYPE svg PUBLIC "-//W3C//DTD SVG 20010904//EN"
 "http://www.w3.org/TR/2001/REC-SVG-20010904/DTD/svg10.dtd">
<svg version="1.0" xmlns="http://www.w3.org/2000/svg"
 width="512.000000pt" height="512.000000pt" viewBox="0 0 512.000000 512.000000"
 preserveAspectRatio="xMidYMid meet">

<g transform="translate(0.000000,512.000000) scale(0.100000,-0.100000)"
fill="#000000" stroke="none">
<path d="M345 5106 c-84 -21 -147 -57 -210 -121 -180 -180 -178 -457 4 -635
31 -30 80 -66 108 -79 l51 -23 4 -157 c6 -177 21 -240 91 -376 30 -57 64 -103
123 -163 l81 -82 -81 -83 c-59 -59 -93 -105 -123 -162 -70 -136 -85 -199 -91
-376 l-4 -157 -51 -23 c-28 -13 -77 -49 -108 -79 -182 -178 -184 -455 -4 -635
139 -139 342 -172 517 -84 184 93 286 312 234 504 -33 124 -130 246 -234 294
l-52 24 0 108 c0 188 34 284 134 384 104 104 197 135 405 135 l128 0 43 -130
c48 -148 151 -362 237 -495 215 -328 573 -655 936 -854 l77 -43 103 57 c201
112 381 249 565 429 281 274 476 577 582 906 l43 130 346 0 346 0 -173 -173
-172 -172 105 -105 105 -105 353 353 352 352 -352 352 -353 353 -105 -105
-105 -105 172 -172 173 -173 -320 0 -320 0 3 600 3 600 -242 0 c-231 0 -243 1
-281 22 -60 34 -78 78 -78 188 l0 90 -750 0 -750 0 0 -90 c0 -112 -20 -159
-80 -190 -36 -18 -58 -20 -280 -20 l-241 0 3 -600 3 -600 -102 0 c-180 0 -279
35 -378 135 -101 100 -135 198 -135 384 l0 108 52 24 c29 13 78 49 109 79 182
178 184 455 4 636 -112 113 -269 158 -420 120z m2666 -1185 c55 -55 99 -103
99 -108 0 -4 -157 -166 -350 -358 l-350 -350 -200 200 c-110 110 -200 203
-200 208 0 10 197 207 207 207 4 0 49 -42 100 -92 l93 -93 243 243 c133 133
246 242 251 242 5 0 53 -45 107 -99z"/>
<path d="M955 1486 c-84 -21 -147 -57 -211 -121 -177 -176 -177 -453 1 -630
83 -84 201 -135 311 -135 78 0 154 -72 154 -145 0 -79 -70 -145 -153 -145 -61
0 -79 9 -152 81 l-60 59 -105 -106 -105 -105 85 -83 c97 -94 162 -130 269
-148 240 -41 471 125 513 371 40 232 -117 461 -350 510 -29 6 -69 11 -89 11
-75 0 -153 74 -153 145 0 72 59 134 135 143 68 7 93 -4 165 -73 l66 -64 104
105 105 105 -85 83 c-142 137 -283 182 -445 142z"/>
<path d="M1810 750 l0 -750 150 0 150 0 0 750 0 750 -150 0 -150 0 0 -750z"/>
<path d="M2410 750 l0 -750 300 0 300 0 0 150 0 150 -150 0 -150 0 0 150 0
150 150 0 150 0 0 150 0 150 -150 0 -150 0 0 150 0 150 150 0 150 0 0 150 0
150 -300 0 -300 0 0 -750z"/>
<path d="M3310 750 l0 -750 150 0 150 0 1 503 0 502 147 -292 c81 -161 149
-293 152 -293 3 0 71 132 152 293 l147 292 0 -502 1 -503 150 0 150 0 0 750 0
750 -198 0 -197 0 -100 -200 c-55 -110 -102 -200 -105 -200 -3 0 -50 90 -105
200 l-100 200 -197 0 -198 0 0 -750z"/>
</g>
</svg>
